<svg width="100" height="100" viewBox="0 0 100 100" fill="none" xmlns="http://www.w3.org/2000/svg">
<g clip-path="url(#clip0_599_27)">
<path d="M76.5625 0H23.4375C10.4933 0 0 10.4933 0 23.4375V76.5625C0 89.5067 10.4933 100 23.4375 100H76.5625C89.5067 100 100 89.5067 100 76.5625V23.4375C100 10.4933 89.5067 0 76.5625 0Z" fill="#1A1A1A"/>
<path d="M13 25.9395L49.3574 13L86.6719 25.7393L80.6414 73.8203L49.3574 91.125L18.5811 74.0449L13 25.9395Z" fill="#14DBEB"/>
<path d="M86.6719 25.7393L49.3574 13V91.125L80.6414 73.8203L86.6719 25.7393Z" fill="#14DBEB"/>
<path d="M49.6563 22L27 72.3906L35.4546 72.2195L40.02 60.8332H60.2837L65.2446 72.3078L73.3059 72.4785L49.6563 22ZM49.7122 38.1768L57.3782 54.1852H43.0278L49.7345 38.1768H49.7122Z" fill="#1A1A1A"/>
</g>
<defs>
<clipPath id="clip0_599_27">
<rect width="100" height="100" fill="white"/>
</clipPath>
</defs>
</svg>
