<svg width="14" height="14" viewBox="0 0 14 14" fill="none" xmlns="http://www.w3.org/2000/svg">
<path fill-rule="evenodd" clip-rule="evenodd" d="M1.43934 1.37658C1.72064 1.13546 2.10218 1 2.5 1H8.5C8.63261 1 8.75979 1.04515 8.85355 1.12553L12.8536 4.5541C12.9473 4.63447 13 4.74348 13 4.85714V11.7143C13 12.0553 12.842 12.3823 12.5607 12.6235C12.2794 12.8646 11.8978 13 11.5 13H2.5C2.10217 13 1.72064 12.8646 1.43934 12.6235C1.15804 12.3823 1 12.0553 1 11.7143V2.28571C1 1.94473 1.15804 1.61769 1.43934 1.37658ZM4.9558 4.38679C5.52153 4.38679 5.98014 3.9937 5.98014 3.50879C5.98014 3.02389 5.52153 2.63079 4.9558 2.63079C4.39008 2.63079 3.93147 3.02389 3.93147 3.50879C3.93147 3.9937 4.39008 4.38679 4.9558 4.38679ZM2.87579 8.28568C2.87528 7.98981 3.15468 7.74997 3.49986 7.74997H10.4999C10.845 7.74997 11.1253 7.98981 11.1258 8.28568C11.1263 8.58154 10.8469 8.82139 10.5017 8.82139H3.50173C3.15656 8.82139 2.87631 8.58154 2.87579 8.28568ZM2.87579 10.8571C2.87528 10.5613 3.15468 10.3214 3.49986 10.3214H7.49986C7.84504 10.3214 8.12528 10.5613 8.1258 10.8571C8.12632 11.1529 7.84692 11.3929 7.50174 11.3929H3.50173C3.15656 11.3929 2.87631 11.1529 2.87579 10.8571ZM4.95519 4.97203C4.25536 4.97203 3.61701 5.19761 3.13369 5.56856C2.8468 5.78875 3.07084 6.14269 3.45593 6.14269H6.45445C6.83954 6.14269 7.06357 5.78875 6.77669 5.56856C6.29337 5.19761 5.65501 4.97203 4.95519 4.97203Z" fill="white"/>
</svg>
