<svg width="32" height="32" viewBox="0 0 32 32" fill="none" xmlns="http://www.w3.org/2000/svg">
<g clip-path="url(#clip0_613_2)">
<mask id="mask0_613_2" style="mask-type:luminance" maskUnits="userSpaceOnUse" x="0" y="0" width="32" height="32">
<path d="M32 0H0V32H32V0Z" fill="white"/>
</mask>
<g mask="url(#mask0_613_2)">
<mask id="mask1_613_2" style="mask-type:luminance" maskUnits="userSpaceOnUse" x="0" y="5" width="32" height="22">
<path d="M32 5H0V26.8182H32V5Z" fill="white"/>
</mask>
<g mask="url(#mask1_613_2)">
<path d="M6.9519 23.8009H24.871L24.9661 26.1462H7.07835L6.9519 23.8009Z" fill="#00d2df"/>
<path d="M7.02883 13.8974C7.49542 12.7835 7.93557 11.7312 8.37731 10.679C8.45819 10.4864 8.53091 10.2886 8.62706 10.1043C8.82633 9.72063 9.20073 9.62769 9.49295 9.92441C10.0595 10.5007 10.6068 11.0982 11.1479 11.7026C11.3728 11.9535 11.3591 12.2578 11.1319 12.4987C10.8998 12.7446 10.6116 12.7353 10.382 12.4953C10.033 12.1311 9.71302 11.7363 9.32248 11.2892C8.85353 12.4099 8.43099 13.4098 8.02284 14.4146C7.99404 14.4856 8.04204 14.6462 8.10357 14.6943C8.82953 15.2639 9.56495 15.8201 10.3444 16.4159C10.6333 15.9291 10.9087 15.4728 11.1759 15.0112C12.121 13.3792 13.0589 11.7414 14.0129 10.1145C14.1641 9.85678 14.1513 9.69358 13.9696 9.45619C13.1094 8.33387 13.2239 6.74241 14.2138 5.74514C15.1709 4.78083 16.7034 4.74872 17.7165 5.67161C18.7329 6.59705 18.9201 8.22899 18.0935 9.36819C17.8518 9.70129 17.8639 9.91423 18.0663 10.2447C18.6018 11.1177 19.0995 12.016 19.6436 12.9584C19.7677 12.8384 19.8733 12.7446 19.9693 12.6415C20.7465 11.8082 21.5212 10.9731 22.2973 10.1391C22.8432 9.55161 23.1953 9.62434 23.513 10.3867C23.942 11.416 24.3709 12.4463 24.8015 13.4748C24.8543 13.6008 24.9167 13.7224 24.9927 13.8856C25.7218 13.3269 26.4284 12.8012 27.1095 12.2425C27.2007 12.1673 27.2103 11.9129 27.1831 11.7558C26.9567 10.4288 27.7161 9.13329 28.938 8.79278C30.1977 8.44121 31.4895 9.19496 31.8871 10.5126C32.4129 12.2587 31.0316 14.036 29.3206 13.8171C28.9942 13.7756 28.8045 13.5973 28.8061 13.2408C28.8084 12.8799 29.015 12.7116 29.3343 12.6745C29.5455 12.6499 29.7671 12.6745 29.9673 12.612C30.6236 12.4099 31.022 11.6822 30.8804 10.9918C30.7395 10.3046 30.1081 9.79758 29.4775 9.86434C28.7572 9.94041 28.2419 10.5235 28.2371 11.269C28.2371 11.3391 28.2291 11.4143 28.2483 11.4795C28.3875 11.9435 28.2947 12.3465 28.2954 12.36C28.3114 12.9509 27.3431 13.6498 27.2399 13.7241C26.6998 14.1145 23.0656 16.781 22.1638 17.5467C22.0445 17.6482 21.7132 17.9363 21.3834 17.8476C21.1121 17.7749 20.973 17.4783 20.9161 17.381C19.6308 15.1592 18.3456 12.9365 17.0643 10.712C16.5978 9.90245 16.625 9.52034 17.178 8.76063C17.7382 7.98987 17.6022 6.97736 16.8234 6.4052C16.3361 6.04686 15.6815 6.04264 15.1908 6.3959C14.401 6.96469 14.265 7.99234 14.8348 8.7631C15.3814 9.50347 15.4013 9.91176 14.9372 10.7163C13.6471 12.9509 12.358 15.1862 11.0703 17.4225C11.0175 17.5138 10.8733 17.7614 10.6132 17.8399C10.2227 17.9574 9.81615 17.6194 9.65862 17.4901C8.10924 16.224 5.58594 14.1619 4.55117 13.4782C4.3663 13.3557 3.93416 13.0827 3.7669 12.5663C3.65085 12.2063 3.63245 12.0473 3.73168 11.5968C3.89654 10.8473 3.4956 10.1323 2.84016 9.92529C2.17193 9.71394 1.4861 10.0453 1.2132 10.7096C0.937109 11.3814 1.16518 12.142 1.7862 12.4869C1.99907 12.6051 2.26637 12.6517 2.51126 12.6601C3.35315 12.6896 3.67407 12.9128 3.97417 13.7536C5.03933 16.7422 6.11091 19.728 7.15768 22.7232C7.29295 23.1094 7.47302 23.2177 7.84757 23.2159C10.943 23.1999 14.0377 23.2066 17.1332 23.2066C17.2532 23.2066 17.3748 23.1973 17.4925 23.2142C17.8198 23.2616 17.9815 23.4814 17.9983 23.8168C18.0151 24.1455 17.8038 24.3003 17.5446 24.3713C17.394 24.4127 17.2268 24.3941 17.0668 24.3941C14.0649 24.395 11.063 24.3923 8.06124 24.3999C7.88989 24.3999 7.57789 24.4591 7.57062 24.5217C7.53135 24.863 7.55142 25.2163 7.59462 25.5603C7.60029 25.6043 7.85629 25.6355 7.99564 25.6355C12.4652 25.6382 16.934 25.6364 21.4035 25.6355C22.271 25.6355 23.1376 25.6364 24.0052 25.6347C24.1476 25.6347 24.2909 25.6204 24.4237 25.6127C24.5325 25.0025 24.4749 24.5563 24.4726 24.5057C24.4726 24.5057 24.4573 24.4524 23.9772 24.4347C23.3105 24.4101 22.2198 24.4034 21.5532 24.3906C21.1345 24.383 20.8889 24.1583 20.8873 23.8219C20.8865 23.455 21.1402 23.2201 21.5539 23.2066C21.6204 23.2041 21.6876 23.2066 21.754 23.2066C22.5415 23.2066 23.3297 23.1729 24.1148 23.2193C24.5606 23.2454 24.7343 23.0595 24.8775 22.6488C25.7754 20.0745 26.6966 17.5096 27.6105 14.9411C27.6336 14.8752 27.6576 14.8101 27.6848 14.7459C27.8137 14.4374 28.0266 14.2726 28.3507 14.3673C28.6604 14.4576 28.8084 14.7848 28.7012 15.1499C28.6108 15.4584 28.4915 15.7567 28.3827 16.0592C27.5129 18.4924 26.6356 20.9222 25.7809 23.3612C25.6641 23.6943 25.6225 24.0678 25.6041 24.4254C25.5753 24.9874 25.6025 25.5519 25.5953 26.1155C25.5889 26.5973 25.3913 26.8002 24.9335 26.8171C24.8671 26.8195 24.7999 26.8171 24.7334 26.8171H7.28335C6.55187 26.8171 6.3614 26.6658 6.41743 25.9195C6.52306 24.4937 6.21096 23.1829 5.71078 21.8662C4.75925 19.3612 3.89254 16.8207 3.00502 14.2886C2.88819 13.9557 2.75533 13.8104 2.38562 13.8128C1.00992 13.8222 -0.0880548 12.5502 0.0055743 11.1084C0.0984034 9.67758 1.35565 8.54347 2.65451 8.71918C4.13183 8.9186 5.10176 10.2675 4.80966 11.7583C4.76085 12.0067 4.86248 12.2604 5.06095 12.404C5.70838 12.8731 6.3382 13.3692 7.02883 13.8958V13.8974ZM22.7671 11.4803C21.962 12.2824 21.1834 13.0496 20.4191 13.8323C20.3543 13.8991 20.3351 14.1036 20.3831 14.1906C20.7881 14.9301 21.2138 15.6569 21.6563 16.4286C22.4342 15.8336 23.1785 15.2699 23.9139 14.6918C23.99 14.6318 24.022 14.5075 23.9844 14.4155C23.577 13.4098 23.1553 12.4108 22.7671 11.4803Z" fill="#3228FA"/>
<path d="M18.3111 18.387C18.2383 18.5476 18.1839 18.7073 18.0998 18.8468C17.5924 19.6894 17.0826 20.5303 16.5657 21.366C16.208 21.9442 15.8031 21.95 15.4509 21.3813C14.926 20.5336 14.4146 19.6767 13.888 18.8299C13.6975 18.5239 13.6839 18.2501 13.8807 17.9356C14.4169 17.0795 14.9315 16.2082 15.4621 15.3479C15.7871 14.8222 16.2128 14.812 16.5337 15.3284C17.0746 16.198 17.6052 17.0761 18.1334 17.9551C18.2095 18.0818 18.2487 18.2332 18.3111 18.387ZM16.0111 16.7137C15.6717 17.2536 15.3652 17.7218 15.0835 18.2062C15.038 18.2847 15.0716 18.4546 15.1228 18.5493C15.3252 18.9262 15.5517 19.2888 15.7654 19.659C15.9254 19.9361 16.0815 19.8593 16.2199 19.6479C16.4384 19.315 16.6569 18.9803 16.853 18.6312C16.913 18.5247 16.9562 18.3371 16.9074 18.2466C16.6354 17.7422 16.3328 17.2562 16.0111 16.7137Z" fill="#3228FA"/>
<path d="M19.4317 24.3925C18.9852 24.3976 18.7219 24.2007 18.7107 23.8533C18.6979 23.4485 18.9364 23.2194 19.3798 23.211C19.8375 23.2017 20.0855 23.4046 20.0983 23.7967C20.1104 24.1643 19.8607 24.3874 19.4317 24.3925Z" fill="#3228FA"/>
<path d="M16.0113 16.7136C16.333 17.2563 16.6355 17.7423 16.9075 18.2476C16.9564 18.3381 16.9132 18.5266 16.8531 18.6322C16.6571 18.9804 16.4395 19.3151 16.2201 19.6489C16.0809 19.861 15.9256 19.937 15.7656 19.6598C15.5519 19.2896 15.3254 18.9272 15.123 18.5501C15.0718 18.4547 15.0382 18.2857 15.0837 18.207C15.3654 17.7228 15.6719 17.2528 16.0113 16.7136Z" fill="#00d2df"/>
</g>
</g>
</g>
<defs>
<clipPath id="clip0_613_2">
<rect width="32" height="32" fill="white"/>
</clipPath>
</defs>
</svg>
