<svg width="100" height="100" viewBox="0 0 100 100" fill="none" xmlns="http://www.w3.org/2000/svg">
<path d="M76.5625 0H23.4375C10.4933 0 0 10.4933 0 23.4375V76.5625C0 89.5067 10.4933 100 23.4375 100H76.5625C89.5067 100 100 89.5067 100 76.5625V23.4375C100 10.4933 89.5067 0 76.5625 0Z" fill="#1A1A1A"/>
<path d="M75.9219 10.9375H23.8281V89.0625H75.9219V10.9375Z" fill="#1A1A1A" fill-opacity="0.631373"/>
<path d="M36.8541 89.0625C44.0418 89.0625 49.875 83.2293 49.875 76.0418V63.0207H36.8541C29.6666 63.0207 23.8333 68.8543 23.8333 76.0418C23.8333 83.2293 29.6666 89.0625 36.8541 89.0625Z" fill="#14DBEB"/>
<path d="M23.8333 50C23.8333 42.8125 29.6666 36.9792 36.8541 36.9792H49.875V63.0207H36.8541C29.6666 63.0207 23.8333 57.1875 23.8333 50Z" fill="#14DBEB"/>
<path d="M23.8333 23.9583C23.8333 16.7708 29.6666 10.9375 36.8541 10.9375H49.875V36.9792H36.8541C29.6666 36.9792 23.8333 31.1458 23.8333 23.9583Z" fill="#14DBEB"/>
<path d="M49.875 10.9375H62.8957C70.0832 10.9375 75.9168 16.7708 75.9168 23.9583C75.9168 31.1458 70.0832 36.9792 62.8957 36.9792L49.875 36.9792V10.9375Z" fill="#14DBEB"/>
<path d="M75.9168 50C75.9168 57.1875 70.0832 63.0207 62.8957 63.0207C55.7082 63.0207 49.875 57.1875 49.875 50C49.875 42.8125 55.7082 36.9792 62.8957 36.9792C70.0832 36.9792 75.9168 42.8125 75.9168 50Z" fill="#14DBEB"/>
</svg>
