<svg width="100" height="100" viewBox="0 0 100 100" fill="none" xmlns="http://www.w3.org/2000/svg">
<path d="M76.5625 0H23.4375C10.4933 0 0 10.4933 0 23.4375V76.5625C0 89.5067 10.4933 100 23.4375 100H76.5625C89.5067 100 100 89.5067 100 76.5625V23.4375C100 10.4933 89.5067 0 76.5625 0Z" fill="#1A1A1A"/>
<path d="M89.0625 10.9375H10.9375V89.0625H89.0625V10.9375Z" fill="#1A1A1A"/>
<path d="M87.5879 46.5211L53.4789 12.4121C53.0121 11.9448 52.4574 11.5741 51.8473 11.3213C51.2367 11.0683 50.5824 10.9382 49.9219 10.9382C49.2613 10.9382 48.607 11.0683 47.9965 11.3213C47.3863 11.5741 46.8317 11.9448 46.3649 12.4121L39.2848 19.4922L48.2692 28.4766C50.359 27.7441 52.7516 28.2446 54.4164 29.9097C55.209 30.7037 55.7625 31.7046 56.0133 32.7981C56.2641 33.8916 56.2024 35.0337 55.8348 36.0938L64.4945 44.7535C66.5895 44.0309 69.0063 44.4969 70.6785 46.1742C71.2348 46.7305 71.6758 47.3906 71.9766 48.1172C72.2774 48.8438 72.432 49.6223 72.432 50.4086C72.4316 51.1949 72.277 51.9734 71.9758 52.7C71.6746 53.4262 71.2336 54.0863 70.6774 54.6422C70.1215 55.1984 69.4613 55.6391 68.7348 55.9398C68.0082 56.241 67.2297 56.3957 66.4434 56.3953C65.657 56.3953 64.8781 56.2402 64.152 55.9395C63.4254 55.6383 62.7652 55.1973 62.2094 54.641C60.4516 52.8832 60.0172 50.2953 60.9059 48.1297L52.8297 40.0535V61.3063C53.416 61.5961 53.9516 61.9789 54.4164 62.4391C54.9723 62.9949 55.4133 63.6547 55.7145 64.3813C56.0152 65.1074 56.1699 65.8859 56.1699 66.6723C56.1699 67.4586 56.0152 68.2371 55.7145 68.9633C55.4133 69.6898 54.9723 70.35 54.4164 70.9059C53.8606 71.4617 53.2004 71.9027 52.4742 72.2035C51.7477 72.5043 50.9691 72.6594 50.1832 72.6594C49.3969 72.6594 48.6184 72.5043 47.8922 72.2035C47.1656 71.9027 46.5055 71.4617 45.9496 70.9059C45.393 70.35 44.9516 69.6902 44.6504 68.9641C44.3488 68.2375 44.1938 67.4586 44.1938 66.6723C44.1938 65.8859 44.3488 65.1074 44.6504 64.3809C44.9516 63.6543 45.393 62.9945 45.9496 62.4391C46.5281 61.8629 47.1703 61.4258 47.9102 61.1328V39.6824C47.1973 39.3895 46.5281 38.9575 45.9496 38.3764C45.109 37.5368 44.5375 36.4659 44.3078 35.3002C44.0785 34.1344 44.2012 32.9267 44.6606 31.8311L35.7983 22.9736L12.4097 46.3379C11.942 46.8051 11.5711 47.3598 11.3179 47.9703C11.0648 48.5809 10.9345 49.2352 10.9345 49.8961C10.9345 50.557 11.0648 51.2117 11.3179 51.8223C11.5711 52.4328 11.942 52.9875 12.4097 53.4547L46.5211 87.5609C46.9879 88.0281 47.5426 88.3988 48.1527 88.652C48.7633 88.9047 49.4176 89.0348 50.0781 89.0348C50.7387 89.0348 51.393 88.9047 52.0035 88.652C52.6137 88.3988 53.1684 88.0281 53.6352 87.5609L87.5879 53.6621C88.0555 53.1949 88.4266 52.6402 88.6797 52.0297C88.9328 51.4191 89.0629 50.7648 89.0629 50.1039C89.0629 49.443 88.9328 48.7883 88.6797 48.1777C88.4266 47.5672 88.0555 47.0125 87.5879 46.5453" fill="#14DBEB"/>
</svg>
