<svg width="100" height="100" viewBox="0 0 100 100" fill="none" xmlns="http://www.w3.org/2000/svg">
<path d="M76.5625 0H23.4375C10.4933 0 0 10.4933 0 23.4375V76.5625C0 89.5067 10.4933 100 23.4375 100H76.5625C89.5067 100 100 89.5067 100 76.5625V23.4375C100 10.4933 89.5067 0 76.5625 0Z" fill="#1A1A1A"/>
<path d="M50.0004 11.7188C28.4293 11.7188 10.9375 29.2073 10.9375 50.7816C10.9375 68.0406 22.1302 82.6828 37.6511 87.8481C39.6031 88.2098 40.3199 87.0008 40.3199 85.9691C40.3199 85.0375 40.2836 81.9605 40.2668 78.6965C29.3996 81.0594 27.1065 74.0875 27.1065 74.0875C25.3296 69.5723 22.7693 68.3719 22.7693 68.3719C19.2251 65.9473 23.0364 65.9973 23.0364 65.9973C26.959 66.2727 29.0245 70.0227 29.0245 70.0227C32.5085 75.9945 38.1627 74.268 40.3918 73.2699C40.7426 70.7449 41.7547 69.0219 42.8719 68.0465C34.1955 67.0586 25.0747 63.709 25.0747 48.7414C25.0747 44.4766 26.6007 40.9918 29.0995 38.2563C28.6939 37.2725 27.3568 33.2994 29.4779 27.9188C29.4779 27.9188 32.7582 26.8689 40.223 31.9229C43.3391 31.0574 46.6805 30.6234 50.0004 30.6085C53.3199 30.6234 56.6645 31.0574 59.7859 31.9229C67.2418 26.8689 70.5176 27.9188 70.5176 27.9188C72.6437 33.2994 71.3063 37.2725 70.9004 38.2563C73.4051 40.9918 74.9207 44.4766 74.9207 48.7414C74.9207 63.7449 65.7824 67.0484 57.084 68.0152C58.4852 69.2277 59.7336 71.6047 59.7336 75.2492C59.7336 80.4758 59.6883 84.6824 59.6883 85.9691C59.6883 87.0086 60.3914 88.2266 62.3715 87.843C77.884 82.6719 89.0625 68.0348 89.0625 50.7816C89.0625 29.2073 71.573 11.7188 50.0004 11.7188ZM25.5678 67.3645C25.4818 67.5586 25.1764 67.6168 24.8983 67.4836C24.615 67.3562 24.4558 67.0914 24.5477 66.8969C24.6318 66.6969 24.9377 66.6414 25.2204 66.7754C25.5044 66.9027 25.6661 67.1699 25.5678 67.3645ZM27.4893 69.0789C27.303 69.252 26.9388 69.1715 26.6917 68.8984C26.4362 68.6262 26.3883 68.2621 26.5772 68.0867C26.7693 67.9141 27.1225 67.9949 27.3786 68.2672C27.6341 68.543 27.6839 68.9043 27.4893 69.0789ZM28.8075 71.2727C28.5681 71.4391 28.1768 71.2832 27.9348 70.9355C27.6955 70.5883 27.6955 70.1719 27.94 70.0047C28.1826 69.8379 28.5681 69.9879 28.8133 70.3328C29.052 70.6859 29.052 71.1027 28.8075 71.2727ZM31.0368 73.8133C30.8227 74.0492 30.3666 73.9859 30.0329 73.6637C29.6913 73.3488 29.5962 72.902 29.811 72.6656C30.0277 72.4289 30.4863 72.4957 30.8227 72.8152C31.1616 73.1293 31.2651 73.5797 31.0368 73.8133ZM33.918 74.6707C33.8236 74.977 33.3843 75.116 32.9419 74.9859C32.5001 74.852 32.2109 74.4938 32.3002 74.1844C32.3921 73.8766 32.8332 73.7316 33.2789 73.8707C33.7201 74.0039 34.0098 74.3598 33.918 74.6707ZM37.197 75.0348C37.2079 75.3566 36.8328 75.6238 36.3683 75.6297C35.9013 75.6402 35.5235 75.3793 35.5183 75.0625C35.5183 74.7371 35.8851 74.4727 36.3521 74.4648C36.8166 74.4559 37.197 74.7145 37.197 75.0348ZM40.418 74.9113C40.4738 75.2254 40.1512 75.5484 39.6898 75.6344C39.2363 75.7172 38.8165 75.523 38.7589 75.2113C38.7027 74.8891 39.0313 74.5664 39.484 74.4828C39.9461 74.4027 40.3594 74.5918 40.418 74.9113Z" fill="#14DBEB"/>
</svg>
