<svg width="" height="22" viewBox="0 0 201 21" fill="none" xmlns="http://www.w3.org/2000/svg">
<path d="M18.3567 3.15581L15.8298 14.7391C15.3983 16.7069 14.4019 18.2116 12.8405 19.2534C11.2997 20.2951 9.3685 20.816 7.04697 20.816C4.91033 20.816 3.22568 20.3943 1.99301 19.551C0.760334 18.7077 0.143997 17.484 0.143997 15.8801C0.143997 15.4171 0.205631 14.9127 0.328898 14.3671H6.33818C6.27655 14.6316 6.24573 14.8797 6.24573 15.1112C6.24573 15.9876 6.74907 16.4258 7.75575 16.4258C8.82407 16.4258 9.50204 15.8635 9.78966 14.7391L12.3166 3.15581H18.3567Z" fill="#BB5500"/>
<path d="M32.5012 17.79H24.797L23.0096 20.6424H16.6613L28.4025 3.15581H35.3671L39.435 20.6424H33.0559L32.5012 17.79ZM31.7924 14.0942L30.7138 8.41418L27.1391 14.0942H31.7924Z" fill="#BB5500"/>
<path d="M50.094 3.15581L52.2512 15.7561L59.9245 3.15581H66.3653L55.0247 20.6424H47.3205L43.6533 3.15581H50.094Z" fill="#BB5500"/>
<path d="M78.7866 17.79H71.0824L69.295 20.6424H62.9468L74.688 3.15581H81.6526L85.7204 20.6424H79.3413L78.7866 17.79ZM78.0778 14.0942L76.9992 8.41418L73.4245 14.0942H78.0778Z" fill="#BB5500"/>
<path d="M96.6568 20.816C94.1503 20.816 92.1267 20.4026 90.5858 19.5758C89.0655 18.7325 88.3054 17.5088 88.3054 15.9049C88.3054 15.7726 88.3259 15.5411 88.367 15.2104H94.7461C94.6845 15.7726 94.8283 16.2108 95.1775 16.525C95.5268 16.8392 96.061 16.9962 96.78 16.9962C97.3758 16.9962 97.8483 16.8888 98.1976 16.6738C98.5674 16.4588 98.7523 16.1529 98.7523 15.7561C98.7523 15.2931 98.4852 14.9127 97.9511 14.6151C97.4374 14.3174 96.5951 13.9702 95.4241 13.5733C94.253 13.1765 93.2874 12.8044 92.5273 12.4572C91.7671 12.0934 91.1097 11.6056 90.555 10.9938C90.0003 10.3654 89.723 9.58822 89.723 8.66222C89.723 7.45511 90.0928 6.42162 90.8324 5.56176C91.572 4.68537 92.5992 4.02394 93.9141 3.57747C95.2495 3.11447 96.7698 2.88297 98.475 2.88297C100.016 2.88297 101.382 3.0814 102.574 3.47826C103.765 3.85858 104.69 4.41253 105.347 5.1401C106.025 5.86768 106.364 6.72753 106.364 7.71968C106.364 7.98425 106.354 8.18268 106.333 8.31497H99.8309C99.8514 8.23229 99.8617 8.11654 99.8617 7.96772C99.8617 7.57086 99.7076 7.26495 99.3995 7.04998C99.0913 6.81848 98.6701 6.70273 98.136 6.70273C97.5813 6.70273 97.1293 6.81848 96.78 7.04998C96.4513 7.26495 96.287 7.57086 96.287 7.96772C96.287 8.39765 96.5438 8.7697 97.0574 9.08388C97.5915 9.38152 98.4133 9.73704 99.5227 10.1504C100.714 10.5969 101.69 11.0186 102.45 11.4154C103.231 11.7957 103.899 12.3084 104.453 12.9532C105.008 13.5981 105.285 14.3919 105.285 15.3344C105.285 16.3761 104.936 17.3187 104.238 18.162C103.539 18.9888 102.543 19.642 101.248 20.1215C99.9542 20.5845 98.4236 20.816 96.6568 20.816Z" fill="#BB5500"/>
<path d="M108.331 11.8619C108.701 10.1422 109.482 8.61261 110.673 7.27321C111.865 5.91728 113.365 4.86726 115.173 4.12315C116.981 3.36251 118.953 2.98219 121.089 2.98219C122.877 2.98219 124.438 3.24676 125.774 3.7759C127.109 4.30505 128.146 5.05742 128.886 6.03303C129.626 7.00864 130.026 8.15788 130.088 9.48074H123.586C123.339 8.83584 122.908 8.33977 122.291 7.99252C121.675 7.64527 120.915 7.47164 120.011 7.47164C118.614 7.47164 117.412 7.8685 116.405 8.66222C115.399 9.45593 114.751 10.5225 114.464 11.8619C114.382 12.2091 114.341 12.5812 114.341 12.9781C114.341 14.0033 114.669 14.8135 115.327 15.4088C116.005 15.9876 116.929 16.2769 118.1 16.2769C119.004 16.2769 119.836 16.1033 120.596 15.7561C121.377 15.4088 122.024 14.9127 122.538 14.2678H129.071C128.085 16.2687 126.534 17.8561 124.418 19.0301C122.302 20.1876 119.888 20.7664 117.176 20.7664C115.306 20.7664 113.683 20.477 112.307 19.8983C110.951 19.3195 109.913 18.501 109.194 17.4427C108.475 16.3844 108.116 15.1608 108.116 13.7718C108.116 13.1269 108.187 12.4902 108.331 11.8619Z" fill="#BB5500"/>
<path d="M143.857 3.15581C146.138 3.15581 147.874 3.5692 149.065 4.39599C150.257 5.20625 150.853 6.28934 150.853 7.64527C150.853 8.05866 150.812 8.43072 150.729 8.76143C150.483 9.95201 149.856 11.002 148.85 11.9115C147.843 12.8044 146.508 13.4411 144.843 13.8214L148.233 20.6424H141.515L138.618 14.1934H137.971L136.554 20.6424H130.483L134.335 3.15581H143.857ZM138.711 10.8697H141.7C143.303 10.8697 144.248 10.2579 144.535 9.03427C144.576 8.83584 144.597 8.69529 144.597 8.61261C144.597 8.16615 144.412 7.8189 144.042 7.57086C143.693 7.32282 143.169 7.1988 142.471 7.1988H139.481L138.711 10.8697Z" fill="#BB5500"/>
<path d="M160.749 3.15581L156.928 20.6424H150.857L154.709 3.15581H160.749Z" fill="#BB5500"/>
<path d="M180.059 8.98467C179.833 10.043 179.32 11.0103 178.519 11.8867C177.738 12.7466 176.68 13.4411 175.344 13.9702C174.009 14.4828 172.458 14.7391 170.691 14.7391H167.702L166.408 20.6424H160.337L164.189 3.15581H173.218C175.498 3.15581 177.234 3.57747 178.426 4.4208C179.618 5.24758 180.213 6.36375 180.213 7.76929C180.213 8.11654 180.162 8.52166 180.059 8.98467ZM170.968 10.8945C172.674 10.8945 173.66 10.2579 173.927 8.98467C173.968 8.75317 173.988 8.58781 173.988 8.48859C173.988 8.04213 173.804 7.69488 173.434 7.44684C173.084 7.18227 172.54 7.04998 171.8 7.04998H169.397L168.565 10.8945H170.968Z" fill="#BB5500"/>
<path d="M200.144 3.15581L199.281 7.02518H193.518L190.529 20.6424H184.458L187.447 7.02518H181.716L182.578 3.15581H200.144Z" fill="#BB5500"/>
<path d="M18.3567 1.08884L15.8298 12.6721C15.3983 14.6399 14.4019 16.1446 12.8405 17.1864C11.2997 18.2282 9.3685 18.749 7.04697 18.749C4.91033 18.749 3.22568 18.3274 1.99301 17.484C0.760334 16.6407 0.143997 15.4171 0.143997 13.8131C0.143997 13.3501 0.205631 12.8458 0.328898 12.3001H6.33818C6.27655 12.5647 6.24573 12.8127 6.24573 13.0442C6.24573 13.9206 6.74907 14.3588 7.75575 14.3588C8.82407 14.3588 9.50204 13.7966 9.78966 12.6721L12.3166 1.08884H18.3567Z" fill="#FFBB00"/>
<path d="M32.5012 15.723H24.797L23.0096 18.5754H16.6613L28.4025 1.08884H35.3671L39.435 18.5754H33.0559L32.5012 15.723ZM31.7924 12.0272L30.7138 6.34721L27.1391 12.0272H31.7924Z" fill="#FFBB00"/>
<path d="M50.094 1.08884L52.2512 13.6891L59.9245 1.08884H66.3653L55.0247 18.5754H47.3205L43.6533 1.08884H50.094Z" fill="#FFBB00"/>
<path d="M78.7866 15.723H71.0824L69.295 18.5754H62.9468L74.688 1.08884H81.6526L85.7204 18.5754H79.3413L78.7866 15.723ZM78.0778 12.0272L76.9992 6.34721L73.4245 12.0272H78.0778Z" fill="#FFBB00"/>
<path d="M96.6568 18.749C94.1503 18.749 92.1267 18.3356 90.5858 17.5088C89.0655 16.6655 88.3054 15.4419 88.3054 13.8379C88.3054 13.7056 88.3259 13.4741 88.367 13.1434H94.7461C94.6845 13.7056 94.8283 14.1438 95.1775 14.458C95.5268 14.7722 96.061 14.9293 96.78 14.9293C97.3758 14.9293 97.8483 14.8218 98.1976 14.6068C98.5674 14.3919 98.7523 14.0859 98.7523 13.6891C98.7523 13.2261 98.4852 12.8458 97.9511 12.5481C97.4374 12.2505 96.5951 11.9032 95.4241 11.5064C94.253 11.1095 93.2874 10.7375 92.5273 10.3902C91.7671 10.0264 91.1097 9.53861 90.555 8.92679C90.0003 8.29843 89.723 7.52125 89.723 6.59525C89.723 5.38814 90.0928 4.35465 90.8324 3.49479C91.572 2.6184 92.5992 1.95697 93.9141 1.5105C95.2495 1.0475 96.7698 0.816002 98.475 0.816002C100.016 0.816002 101.382 1.01443 102.574 1.41129C103.765 1.79161 104.69 2.34556 105.347 3.07313C106.025 3.80071 106.364 4.66057 106.364 5.65271C106.364 5.91728 106.354 6.11571 106.333 6.248H99.8309C99.8514 6.16532 99.8617 6.04957 99.8617 5.90075C99.8617 5.50389 99.7076 5.19798 99.3995 4.98301C99.0913 4.75151 98.6701 4.63576 98.136 4.63576C97.5813 4.63576 97.1293 4.75151 96.78 4.98301C96.4513 5.19798 96.287 5.50389 96.287 5.90075C96.287 6.33068 96.5438 6.70273 97.0574 7.01691C97.5915 7.31455 98.4133 7.67007 99.5227 8.08347C100.714 8.52993 101.69 8.95159 102.45 9.34845C103.231 9.72878 103.899 10.2414 104.453 10.8863C105.008 11.5312 105.285 12.3249 105.285 13.2674C105.285 14.3092 104.936 15.2517 104.238 16.095C103.539 16.9218 102.543 17.575 101.248 18.0545C99.9542 18.5175 98.4236 18.749 96.6568 18.749Z" fill="#FFBB00"/>
<path d="M108.331 9.79492C108.701 8.0752 109.482 6.54564 110.673 5.20625C111.865 3.85031 113.365 2.80029 115.173 2.05618C116.981 1.29554 118.953 0.915217 121.089 0.915217C122.877 0.915217 124.438 1.17979 125.774 1.70893C127.109 2.23808 128.146 2.99045 128.886 3.96606C129.626 4.94167 130.026 6.09091 130.088 7.41377H123.586C123.339 6.76887 122.908 6.2728 122.291 5.92555C121.675 5.5783 120.915 5.40467 120.011 5.40467C118.614 5.40467 117.412 5.80153 116.405 6.59525C115.399 7.38896 114.751 8.45552 114.464 9.79492C114.382 10.1422 114.341 10.5142 114.341 10.9111C114.341 11.9363 114.669 12.7466 115.327 13.3418C116.005 13.9206 116.929 14.21 118.1 14.21C119.004 14.21 119.836 14.0363 120.596 13.6891C121.377 13.3418 122.024 12.8458 122.538 12.2009H129.071C128.085 14.2017 126.534 15.7891 124.418 16.9632C122.302 18.1207 119.888 18.6994 117.176 18.6994C115.306 18.6994 113.683 18.41 112.307 17.8313C110.951 17.2525 109.913 16.434 109.194 15.3757C108.475 14.3174 108.116 13.0938 108.116 11.7048C108.116 11.0599 108.187 10.4233 108.331 9.79492Z" fill="#FFBB00"/>
<path d="M143.857 1.08884C146.138 1.08884 147.874 1.50224 149.065 2.32902C150.257 3.13928 150.853 4.22237 150.853 5.5783C150.853 5.99169 150.812 6.36375 150.729 6.69446C150.483 7.88504 149.856 8.93506 148.85 9.84453C147.843 10.7375 146.508 11.3741 144.843 11.7544L148.233 18.5754H141.515L138.618 12.1265H137.971L136.554 18.5754H130.483L134.335 1.08884H143.857ZM138.711 8.80277H141.7C143.303 8.80277 144.248 8.19095 144.535 6.9673C144.576 6.76887 144.597 6.62832 144.597 6.54564C144.597 6.09918 144.412 5.75193 144.042 5.50389C143.693 5.25585 143.169 5.13183 142.471 5.13183H139.481L138.711 8.80277Z" fill="#FFBB00"/>
<path d="M160.749 1.08884L156.928 18.5754H150.857L154.709 1.08884H160.749Z" fill="#FFBB00"/>
<path d="M180.059 6.9177C179.833 7.97598 179.32 8.94333 178.519 9.81972C177.738 10.6796 176.68 11.3741 175.344 11.9032C174.009 12.4158 172.458 12.6721 170.691 12.6721H167.702L166.408 18.5754H160.337L164.189 1.08884H173.218C175.498 1.08884 177.234 1.5105 178.426 2.35383C179.618 3.18061 180.213 4.29678 180.213 5.70232C180.213 6.04957 180.162 6.45469 180.059 6.9177ZM170.968 8.82758C172.674 8.82758 173.66 8.19095 173.927 6.9177C173.968 6.6862 173.988 6.52084 173.988 6.42162C173.988 5.97516 173.804 5.62791 173.434 5.37987C173.084 5.1153 172.54 4.98301 171.8 4.98301H169.397L168.565 8.82758H170.968Z" fill="#FFBB00"/>
<path d="M200.144 1.08884L199.281 4.95821H193.518L190.529 18.5754H184.458L187.447 4.95821H181.716L182.578 1.08884H200.144Z" fill="#FFBB00"/>
</svg>
