<svg width="102" height="102" viewBox="0 0 102 102" fill="none" xmlns="http://www.w3.org/2000/svg">
<path d="M79 1H23C8.2 1 2.16667 15.6667 1 23V79C1 94.6 15.6667 100.167 23 101H79C95.4 101 100.5 85.6667 101 78C100.833 65 100.5 35.6 100.5 22C100.5 8.4 86.1667 2.33333 79 1Z" fill="black" stroke="black"/>
<path d="M40.607 68.1375C40.607 68.1375 37.6073 69.9633 42.6949 70.4855C48.8387 71.2684 52.0871 71.1375 58.8695 69.834C58.8695 69.834 60.6953 71.0094 63.1742 71.9215C47.9106 78.4434 28.605 71.5301 40.607 68.1375ZM38.6505 59.659C38.6505 59.659 35.3888 62.1379 40.4762 62.6586C47.1277 63.3106 52.3477 63.4414 61.3484 61.6168C61.3484 61.6168 62.5238 62.9219 64.4793 63.5738C46.0875 69.0524 25.4756 64.0934 38.6505 59.659ZM74.6543 74.5301C74.6543 74.5301 76.8715 76.3559 72.1754 77.7918C63.4348 80.4004 35.5197 81.1844 27.6928 77.7918C24.9547 76.6164 30.1718 74.9199 31.8667 74.6609C33.563 74.2695 34.4752 74.2695 34.4752 74.2695C31.4754 72.182 14.5166 78.5742 25.8656 80.4137C57.0426 85.5024 82.7418 78.1965 74.6531 74.5434L74.6543 74.5301ZM42.0418 50.7875C42.0418 50.7875 27.8223 54.1801 36.9529 55.3527C40.8664 55.8734 48.5625 55.7441 55.7375 55.2219C61.6078 54.7008 67.4914 53.6566 67.4914 53.6566C67.4914 53.6566 65.4035 54.5699 63.9691 55.4824C49.4773 59.2687 21.6917 57.5727 29.6495 53.659C36.4346 50.3973 42.0418 50.7875 42.0418 50.7875ZM67.4777 65.0066C82.0898 57.4402 75.3047 50.1356 70.6086 51.0492C69.4332 51.3098 68.9125 51.5703 68.9125 51.5703C68.9125 51.5703 69.3035 50.7875 70.2172 50.5285C79.4785 47.2668 86.7848 60.3121 67.2176 65.3996C67.2176 65.3996 67.3484 65.2688 67.4777 65.0082V65.0066ZM43.4762 85.616C57.5648 86.5297 79.0887 85.0949 79.6109 78.4406C79.6109 78.4406 78.5691 81.0492 68.0016 83.0063C56.0008 85.2234 41.1281 84.9629 32.389 83.527C32.389 83.527 34.2148 85.0922 43.4773 85.6145L43.4762 85.616Z" fill="#14DBEB"/>
<path d="M57.7051 8C57.7051 8 65.7926 16.2183 50.009 28.6091C37.3551 38.6531 47.1375 44.3938 50.009 50.9145C42.5734 44.2629 37.2269 38.3914 40.8773 32.9126C46.2387 24.8292 60.9773 20.9158 57.7051 8ZM53.5312 45.4383C57.3137 49.743 52.4894 53.6566 52.4894 53.6566C52.4894 53.6566 62.1422 48.7012 57.7078 42.568C53.6633 36.6977 50.5328 33.8275 67.4914 24.0425C67.4914 24.0425 40.7492 30.6941 53.534 45.4355L53.5312 45.4383Z" fill="#14DBEB"/>
</svg>
