<svg width="100" height="100" viewBox="0 0 100 100" fill="none" xmlns="http://www.w3.org/2000/svg">
<path d="M78 0H22C7.2 0 1.16667 14.6667 0 22V78C0 93.6 14.6667 99.1667 22 100H78C94.4 100 99.5 84.6667 100 77C99.8333 64 99.5 34.6 99.5 21C99.5 7.4 85.1667 1.33333 78 0Z" fill="black"/>
<path d="M39.607 67.1375C39.607 67.1375 36.6073 68.9633 41.6949 69.4855C47.8387 70.2684 51.0871 70.1375 57.8695 68.834C57.8695 68.834 59.6953 70.0094 62.1742 70.9215C46.9106 77.4434 27.605 70.5301 39.607 67.1375ZM37.6505 58.659C37.6505 58.659 34.3888 61.1379 39.4762 61.6586C46.1277 62.3106 51.3477 62.4414 60.3484 60.6168C60.3484 60.6168 61.5238 61.9219 63.4793 62.5738C45.0875 68.0524 24.4756 63.0934 37.6505 58.659ZM73.6543 73.5301C73.6543 73.5301 75.8715 75.3559 71.1754 76.7918C62.4348 79.4004 34.5197 80.1844 26.6928 76.7918C23.9547 75.6164 29.1718 73.9199 30.8667 73.6609C32.563 73.2695 33.4752 73.2695 33.4752 73.2695C30.4754 71.182 13.5166 77.5742 24.8656 79.4137C56.0426 84.5024 81.7418 77.1965 73.6531 73.5434L73.6543 73.5301ZM41.0418 49.7875C41.0418 49.7875 26.8224 53.1801 35.9529 54.3527C39.8664 54.8734 47.5625 54.7441 54.7375 54.2219C60.6078 53.7008 66.4914 52.6566 66.4914 52.6566C66.4914 52.6566 64.4035 53.5699 62.9691 54.4824C48.4773 58.2687 20.6917 56.5727 28.6495 52.659C35.4346 49.3973 41.0418 49.7875 41.0418 49.7875ZM66.4777 64.0066C81.0898 56.4402 74.3047 49.1356 69.6086 50.0492C68.4332 50.3098 67.9125 50.5703 67.9125 50.5703C67.9125 50.5703 68.3035 49.7875 69.2172 49.5285C78.4785 46.2668 85.7848 59.3121 66.2176 64.3996C66.2176 64.3996 66.3484 64.2688 66.4777 64.0082V64.0066ZM42.4762 84.616C56.5648 85.5297 78.0887 84.0949 78.6109 77.4406C78.6109 77.4406 77.5691 80.0492 67.0016 82.0063C55.0008 84.2234 40.1281 83.9629 31.389 82.527C31.389 82.527 33.2148 84.0922 42.4773 84.6145L42.4762 84.616Z" fill="#14DBEB"/>
<path d="M56.7051 7C56.7051 7 64.7926 15.2183 49.009 27.6091C36.3551 37.6531 46.1375 43.3938 49.009 49.9145C41.5734 43.2629 36.2269 37.3914 39.8773 31.9126C45.2387 23.8292 59.9773 19.9158 56.7051 7ZM52.5312 44.4383C56.3137 48.743 51.4894 52.6566 51.4894 52.6566C51.4894 52.6566 61.1422 47.7012 56.7078 41.568C52.6633 35.6977 49.5328 32.8275 66.4914 23.0425C66.4914 23.0425 39.7492 29.6941 52.534 44.4355L52.5312 44.4383Z" fill="#14DBEB"/>
</svg>
