<svg width="100" height="100" viewBox="0 0 100 100" fill="none" xmlns="http://www.w3.org/2000/svg">
<path d="M76.5625 0H23.4375C10.4933 0 0 10.4933 0 23.4375V76.5625C0 89.5067 10.4933 100 23.4375 100H76.5625C89.5067 100 100 89.5067 100 76.5625V23.4375C100 10.4933 89.5067 0 76.5625 0Z" fill="#242938"/>
<path d="M39.7327 71.6946C39.7327 71.6946 36.7127 73.477 41.8347 73.9868C48.0199 74.751 51.2903 74.6233 58.1185 73.3507C58.1185 73.3507 59.9566 74.4982 62.4523 75.3886C47.0855 81.7553 27.6497 75.0065 39.7327 71.6946ZM37.7629 63.4178C37.7629 63.4178 34.4792 65.8377 39.601 66.346C46.2974 66.9825 51.5526 67.1102 60.6142 65.329C60.6142 65.329 61.7975 66.6031 63.7662 67.2395C45.2502 72.5877 24.4991 67.7478 37.7629 63.4189V63.4178ZM74.0099 77.9351C74.0099 77.9351 76.2421 79.7175 71.5142 81.1193C62.7146 83.6658 34.611 84.4312 26.7312 81.1193C23.9746 79.9718 29.2269 78.3157 30.9333 78.0629C32.6411 77.6808 33.5595 77.6808 33.5595 77.6808C30.5393 75.6429 13.466 81.8831 24.8917 83.6788C56.2792 88.6464 82.152 81.5143 74.0087 77.9481L74.0099 77.9351ZM41.1771 54.7573C41.1771 54.7573 26.8617 58.0692 36.0538 59.214C39.9938 59.7223 47.7419 59.596 54.9653 59.0862C60.8753 58.5775 66.7986 57.5582 66.7986 57.5582C66.7986 57.5582 64.6966 58.4498 63.2526 59.3406C48.6629 63.0368 20.6896 61.3811 28.7012 57.5605C35.5321 54.3764 41.1771 54.7573 41.1771 54.7573ZM66.7849 68.6382C81.4957 61.2518 74.6647 54.1209 69.9369 55.0128C68.7535 55.2672 68.2293 55.5215 68.2293 55.5215C68.2293 55.5215 68.623 54.7573 69.5428 54.5045C78.8667 51.3203 86.2223 64.0554 66.523 69.0218C66.523 69.0218 66.6547 68.8941 66.7849 68.6398V68.6382ZM42.6212 88.7574C56.805 89.6493 78.4742 88.2487 79 81.7527C79 81.7527 77.9512 84.2992 67.3122 86.2097C55.2304 88.3741 40.2573 88.1198 31.4591 86.718C31.4591 86.718 33.2973 88.246 42.6224 88.7559L42.6212 88.7574Z" fill="white"/>
<path d="M57.7878 11C57.7878 11 66.2272 19.2801 49.7568 31.7641C36.5522 41.8837 46.7603 47.6674 49.7568 54.2372C41.9977 47.5356 36.4185 41.62 40.2278 36.0999C45.8224 27.9558 61.2025 24.0129 57.7878 11ZM53.4323 48.7198C57.3793 53.0569 52.3452 57 52.3452 57C52.3452 57 62.418 52.0073 57.7906 45.8279C53.5701 39.9135 50.3034 37.0217 68 27.1632C68 27.1632 40.094 33.8647 53.4352 48.7171L53.4323 48.7198Z" fill="#F58219"/>
</svg>
