<svg width="100" height="100" viewBox="0 0 100 100" fill="none" xmlns="http://www.w3.org/2000/svg">
<g clip-path="url(#clip0_159_2)">
<path d="M76.5625 0H23.4375C10.4933 0 0 10.4933 0 23.4375V76.5625C0 89.5067 10.4933 100 23.4375 100H76.5625C89.5067 100 100 89.5067 100 76.5625V23.4375C100 10.4933 89.5067 0 76.5625 0Z" fill="url(#paint0_linear_159_2)"/>
<path d="M30.9524 26.8519C27.0517 32.5616 27.5376 39.9895 30.5094 46.0492L30.728 46.4809L30.8757 46.7543C30.903 46.8074 30.9347 46.8598 30.9628 46.9113C31.0145 47.0074 31.0662 47.0996 31.1105 47.1942L31.3947 47.691L31.5572 47.9645L31.8872 48.4903L32.0349 48.7117C32.1826 48.9481 32.3494 49.1828 32.5133 49.4145C32.517 49.4203 32.5222 49.427 32.5266 49.4328C32.5524 49.4699 32.5813 49.5067 32.6005 49.5438C32.7422 49.743 32.8958 49.9395 33.0435 50.1344L33.2074 50.3469L33.6098 50.8508L33.7634 51.0383C33.9464 51.259 34.1335 51.477 34.3245 51.691L34.3363 51.7027C34.3437 51.7121 34.3511 51.7176 34.3585 51.727C34.5436 51.936 34.7336 52.1403 34.9285 52.3399L35.1116 52.5274L35.5672 52.9824L35.7532 53.1625C35.958 53.3586 36.166 53.5512 36.3771 53.7406L36.4953 53.8438L37.0616 54.3313L37.2964 54.5219L37.7689 54.891L38.0215 55.0867L38.7436 55.6145C38.762 55.627 38.7783 55.6402 38.7967 55.6527C38.9665 55.7711 39.1387 55.8856 39.3113 56L39.5344 56.1512L40.3406 56.6535L40.5637 56.7813L41.1691 57.1266C41.2797 57.1871 41.393 57.2449 41.5035 57.3024L41.9363 57.5238L42.0359 57.5727L42.2133 57.6598L42.8996 57.9832L43.0453 58.057C43.3101 58.1746 43.5769 58.2875 43.8457 58.3957L44.0406 58.4742L44.7957 58.759L44.8902 58.793C45.1691 58.8914 45.45 58.9852 45.732 59.0738L45.9351 59.1356C46.2305 59.2242 46.5074 59.3301 46.8043 59.3867C65.6676 62.8985 71.1484 47.8492 71.1484 47.8492C66.5465 53.9555 58.3777 55.5649 50.6387 53.7731C50.3453 53.6992 50.0609 53.6129 49.7746 53.5266L49.559 53.4528C49.2801 53.3656 49.0023 53.2731 48.7277 53.1774L48.6133 53.1352C48.3676 53.0465 48.123 52.9543 47.8801 52.8582L47.6734 52.7754C47.4074 52.6688 47.1433 52.557 46.8816 52.4402L46.7238 52.3695L46.0562 52.052L45.8644 51.9574C45.691 51.8703 45.5187 51.7809 45.3472 51.6895L45.0027 51.5047C44.7941 51.3906 44.5879 51.2727 44.384 51.1512L44.175 51.0328C43.9031 50.8707 43.6344 50.7008 43.3687 50.5309C43.2949 50.4828 43.2238 50.432 43.1508 50.3832L42.5769 49.9949L42.3926 49.8621L41.85 49.4633L41.609 49.2785L41.1195 48.8887L40.9012 48.7117L40.2918 48.1949C40.2711 48.1762 40.2476 48.1578 40.218 48.1379C40.0012 47.9438 39.7875 47.7445 39.5773 47.5442L39.3969 47.3672L38.9363 46.9078L38.7561 46.7231C38.5642 46.5238 38.3759 46.3211 38.1913 46.1149C38.1824 46.1043 38.1721 46.0949 38.1632 46.0852C37.9681 45.8676 37.7771 45.6457 37.5903 45.4207L37.4404 45.2391L37.0269 44.7199L36.8755 44.5281L36.3993 43.882C32.1021 37.9124 30.5663 29.6798 33.9923 22.9179L30.9524 26.8519ZM43.0613 22.0408C40.241 26.1756 40.3937 31.7088 42.5941 36.0813C42.9621 36.8155 43.3789 37.5242 43.8418 38.2026C44.2644 38.8192 44.7332 39.5539 45.2941 40.0485C45.4973 40.2699 45.7098 40.4914 45.9269 40.7176C45.9816 40.7742 46.0379 40.8281 46.0937 40.8852C46.3047 41.0942 46.5203 41.2985 46.7406 41.4973C46.7496 41.5047 46.7578 41.5133 46.7672 41.5207C47.0156 41.7414 47.2691 41.9555 47.5285 42.1633L47.7 42.2988C47.9578 42.502 48.2215 42.6977 48.4898 42.8867C48.4969 42.8926 48.5043 42.8985 48.5121 42.9039C48.6301 42.9871 48.7519 43.066 48.8723 43.1457C48.9301 43.1844 48.9844 43.225 49.0422 43.261C49.2347 43.3871 49.4301 43.509 49.6277 43.6266L49.7105 43.6754L50.2273 43.9707C50.2879 44.0055 50.3496 44.0356 50.4117 44.068L50.7808 44.2586C50.7996 44.2684 50.818 44.2754 50.8355 44.2844C51.0844 44.4098 51.3347 44.5281 51.591 44.6426C51.6457 44.6668 51.7015 44.6891 51.7578 44.7125C51.9625 44.8012 52.1691 44.8871 52.3781 44.9688L52.6437 45.068C52.8324 45.1379 53.0219 45.2051 53.2125 45.2695L53.4691 45.3527C53.7402 45.4391 54.0082 45.5469 54.291 45.5949C68.8551 48.0524 72.2183 36.6314 72.2183 36.6314C69.1875 41.0762 63.3183 43.1985 57.0539 41.543C56.7769 41.4692 56.5019 41.3879 56.2293 41.2992C56.1457 41.2735 56.064 41.2461 55.9812 41.2254C55.7879 41.1617 55.5957 41.0942 55.4047 41.0231L55.1437 40.9242C54.9348 40.8504 54.7281 40.7582 54.5238 40.6695C54.4676 40.6449 54.4113 40.6231 54.3562 40.5973C54.0992 40.4848 53.8457 40.3649 53.5957 40.2375C53.4672 40.1735 53.341 40.1063 53.2144 40.0395L52.9945 39.9246C52.832 39.8352 52.6715 39.743 52.5125 39.6477L52.3972 39.5738C52.2008 39.4563 52.0062 39.3352 51.814 39.2106C51.7547 39.1719 51.6973 39.1367 51.6383 39.091L51.2601 38.8361C50.993 38.6471 50.7308 38.4516 50.473 38.2499L50.2957 38.1081C47.5543 35.9034 45.3805 32.8909 44.3476 29.4745C43.2644 25.9304 43.4984 21.9544 45.3812 18.727L43.0613 22.0408ZM53.2433 18.4465C51.5805 20.9392 51.4176 24.0344 52.5789 26.7869C53.7957 29.7086 56.289 32.0012 59.1988 33.0873C59.3187 33.1331 59.439 33.1737 59.568 33.2151L59.7277 33.2667C59.8988 33.3213 60.0695 33.3849 60.2461 33.4188C68.2883 35.0011 70.4691 29.2161 71.0496 28.3648C69.1387 31.1669 65.9277 31.8395 61.9879 30.8656C61.6777 30.7881 61.3344 30.6736 61.0277 30.5658C60.6422 30.4263 60.2644 30.2664 59.8961 30.0866C59.1949 29.7428 58.5301 29.3295 57.9113 28.8528C54.3781 26.1283 52.1875 20.9318 54.4883 16.6995" fill="white"/>
<path d="M35.4829 71.3597L34.9381 73.2914L35.4829 71.3605V71.3597Z" fill="white"/>
<path d="M51.4934 66.9371H48.9977C48.859 66.9371 48.7215 67.048 48.6922 67.1836L46.9199 75.3847C46.8906 75.5199 46.7531 75.6305 46.6153 75.6305H44.8485C43.1 75.6305 43.3024 74.4219 43.6668 72.7656L43.6781 72.7156L43.8899 71.5859L43.9813 71.1207L44.7879 67.1836C44.8156 67.048 44.725 66.9363 44.5864 66.9363H42.0242C41.9535 66.9387 41.8856 66.964 41.8305 67.0086C41.7758 67.0531 41.7367 67.1144 41.7199 67.1828L40.5656 72.657C39.9309 75.5543 40.0992 78.3176 43.5489 78.4039L43.6485 78.4058H49.0621C49.2008 78.4058 49.3375 78.2953 49.3672 78.1594L51.7016 67.1828C51.7313 67.0473 51.6403 66.9363 51.5024 66.9363L51.4934 66.9371ZM61.4516 75.6594C61.5906 75.6594 61.6731 75.7699 61.6531 75.9058L61.411 77.091L61.4516 75.6594Z" fill="white"/>
<path d="M54.7746 74.134C54.7727 74.0039 54.9203 73.7808 55.059 73.7808L54.7473 73.7758C54.5996 75.189 54.7746 74.134 54.7746 74.134ZM61.4516 75.6594C61.5906 75.6594 61.673 75.7699 61.6531 75.9058L61.3711 77.2836L61.4516 75.6594Z" fill="white"/>
<path d="M56.8082 78.5477H56.6914H56.8231H56.8082ZM20.1134 74.1633L20.5011 72.4446L20.0581 74.4086L20.0064 74.6551L20.1141 74.1621L20.1134 74.1633ZM24.7547 66.909H22.0132C21.9423 66.9117 21.8743 66.9371 21.8189 66.9817C21.7635 67.0258 21.7237 67.0864 21.7053 67.1551L21.1855 69.4438C21.1768 69.4735 21.1753 69.5047 21.1813 69.5352C21.1872 69.5653 21.2004 69.5938 21.2197 69.618C21.2389 69.6422 21.2638 69.6614 21.292 69.6739C21.3202 69.6864 21.3511 69.6918 21.3819 69.6899H24.1448C24.2836 69.6899 24.421 69.5789 24.4505 69.4438L24.9526 67.1496C24.9821 67.0149 24.8935 66.9039 24.7532 66.9039L24.7547 66.909ZM16.1942 83.0516L18.4551 83.0696C17.7876 83.0696 16.6852 83.0571 16.1935 83.0512L16.1942 83.0516Z" fill="white"/>
<path d="M23.9602 70.4789H21.1966C21.1257 70.4816 21.0576 70.507 21.0022 70.5516C20.9468 70.5957 20.9071 70.6562 20.8887 70.725L20.1134 74.1625L20.0056 74.6558L19.2673 78.1652C19.2307 78.3289 19.1863 78.491 19.1343 78.6504C19.1343 78.6504 18.6175 80.1863 17.7507 80.1691L16.8905 80.1531C16.8199 80.1551 16.7518 80.1793 16.6961 80.2226C16.6403 80.266 16.5998 80.3258 16.5804 80.3937L16.0082 82.8027C15.9991 82.8324 15.9973 82.8637 16.0028 82.8937C16.0084 82.9242 16.0212 82.9527 16.0401 82.9769C16.0589 83.0012 16.0834 83.0207 16.1114 83.0336C16.1394 83.0465 16.1701 83.0523 16.2008 83.0512L18.4624 83.0695C20.6302 83.0695 21.7725 81.868 22.5057 78.4125L24.1669 70.7336C24.1965 70.5988 24.1064 70.4879 23.9676 70.4879L23.9602 70.4789ZM63.2125 78.4074C63.0738 78.4074 62.991 78.2969 63.0133 78.1609L65.0918 68.425L63.2125 78.4074Z" fill="white"/>
<path d="M63.0434 78.2844C63.0266 78.2164 63.0364 78.05 63.0657 77.9149L64.052 73.293L63.0126 78.1609C62.9829 78.2969 63.0731 78.4074 63.2118 78.4074H63.4645C63.3258 78.4074 63.0598 78.352 63.0434 78.2844ZM65.9379 78.352C65.8626 78.3816 65.6868 78.4074 65.5481 78.4074H65.8004C65.8711 78.4047 65.9387 78.3789 65.9934 78.3344C66.0481 78.2899 66.0864 78.2285 66.1032 78.1602L66.1536 77.9137C66.1262 78.0492 66.0059 78.3219 65.9321 78.352H65.9379ZM74.7227 69.077L74.8372 69.5496C74.8692 69.6848 74.7813 69.7945 74.643 69.7953" fill="white"/>
<path d="M66.8926 74.2485L66.9946 73.7582L67.3911 71.9012L66.9422 74.0039L66.8926 74.2477V74.2485ZM65.1258 68.2649L65.0395 68.6707L64.0528 73.293L65.0926 68.425L65.1258 68.2656V68.2649Z" fill="white"/>
<path d="M74.8379 69.5496L74.7234 69.077L74.5539 68.3387C74.3293 67.4672 73.6707 66.9629 72.2398 66.9629L65.6535 66.9586C65.5828 66.9609 65.5152 66.9863 65.4601 67.0309C65.4054 67.0754 65.3664 67.1367 65.3496 67.2051L65.2476 67.6875L65.1 68.416L63.0738 77.9063C63.0441 78.0422 63.0347 78.2016 63.0515 78.2754C63.0687 78.3492 63.3344 78.3988 63.4726 78.3988H65.5547C65.6933 78.3988 65.8683 78.3734 65.9445 78.3434C66.0207 78.3129 66.132 78.0481 66.166 77.9047L66.9562 73.9957L67.8015 70.0352C67.8308 69.9 67.9676 69.7902 68.1058 69.7895L74.657 69.7863C74.7953 69.7863 74.8832 69.6758 74.8511 69.5406L74.8379 69.5496ZM83.2722 65.2723L82.7679 65.2742H80.6711C80.5941 65.2789 80.5195 65.3 80.4511 65.3359C80.3832 65.3719 80.3238 65.4219 80.2765 65.4824L75.6398 72.2754C75.5617 72.3899 75.4722 72.3731 75.4406 72.2387L75.0992 70.7418C75.0808 70.6734 75.0414 70.6125 74.9859 70.5684C74.9304 70.5242 74.8625 70.4988 74.7914 70.4961H71.8109C71.6718 70.4961 71.5894 70.6047 71.6277 70.7383L72.9566 75.418C72.9949 75.5508 72.9972 75.7699 72.964 75.9051L72.3734 78.1699C72.3633 78.1988 72.3605 78.2297 72.3656 78.2602C72.3707 78.2906 72.3832 78.3192 72.4019 78.3434C72.4207 78.3676 72.4453 78.3867 72.4734 78.3992C72.5015 78.4117 72.5324 78.4168 72.5633 78.4141H75.5164C75.6554 78.4141 75.7972 78.3035 75.8312 78.1703L76.4218 75.9059C76.4679 75.7465 76.5406 75.5957 76.6359 75.4602L84.1715 65.468C84.2551 65.357 84.2101 65.2672 84.0711 65.2684L83.2812 65.2738L83.2722 65.2723ZM59.5886 71.1324C59.5711 71.2801 59.4324 71.391 59.2933 71.391H55.5129C55.3824 71.391 55.316 71.3024 55.3359 71.1914L55.3386 71.1715L55.3558 71.1074C55.725 70.1477 56.4523 69.5176 57.8336 69.5176C59.3894 69.5176 59.6929 70.2781 59.5875 71.1324H59.5886ZM58.4797 66.7703C53.6289 66.7703 52.4793 69.7149 51.8347 72.6867C51.1894 75.716 51.2453 78.5492 56.2648 78.5492H57.0605L57.6734 78.5469L60.8676 78.5277C60.9379 78.5246 61.0047 78.4988 61.059 78.4543C61.1133 78.4098 61.1515 78.3488 61.1679 78.2805L61.6531 75.909C61.6812 75.7731 61.5906 75.6621 61.4515 75.6621H56.9386C55.1445 75.6621 54.6109 75.1852 54.807 73.7832H62.0211C62.139 73.7809 62.2461 73.7094 62.2883 73.5973C62.2957 73.5774 62.3031 73.5559 62.3058 73.5344C63.3765 69.4957 63.0695 66.7734 58.4812 66.7734L58.4797 66.7703ZM35.5509 71.1164L35.4829 71.3578C35.4829 71.3586 34.9381 73.2891 34.9381 73.2891L34.3931 75.2192C34.3705 75.2875 34.3277 75.3469 34.2706 75.3902C34.2133 75.4332 34.1443 75.4582 34.0727 75.4613H31.1887C29.0017 75.4613 28.4693 73.7508 29.0017 71.2277C29.5333 68.6473 30.5781 67.0426 32.7304 66.8805C35.672 66.659 36.2597 68.7277 35.5509 71.1156V71.1164ZM37.5282 75.3137C37.5282 75.3137 38.8868 72.0133 39.1968 70.1063C39.6176 67.5535 38.3404 63.8524 33.4045 63.8524C28.4967 63.8524 26.3658 67.3859 25.5528 71.2359C24.7406 75.1047 25.8053 78.4984 30.6844 78.4719L38.1314 78.4445C38.2028 78.441 38.2714 78.4156 38.3279 78.3719C38.3843 78.3277 38.4258 78.2676 38.4467 78.1992L39.0742 75.8086C39.0843 75.7797 39.0871 75.7484 39.0824 75.7184C39.0777 75.6879 39.0652 75.6594 39.0465 75.6352C39.0278 75.6106 39.0034 75.5914 38.9753 75.5789C38.9473 75.5664 38.9166 75.5609 38.886 75.5633L37.6847 75.5559C37.5666 75.5551 37.5001 75.4793 37.5135 75.3789C37.5164 75.3602 37.5208 75.3418 37.5282 75.3227V75.3137Z" fill="white"/>
<path d="M61.823 73.1054C61.823 73.1968 61.7492 73.2707 61.6578 73.2707C61.566 73.2707 61.4922 73.1968 61.4922 73.1054C61.4922 73.0136 61.566 72.9398 61.6578 72.9398C61.7492 72.9398 61.823 73.0136 61.823 73.1054Z" fill="white"/>
</g>
<defs>
<linearGradient id="paint0_linear_159_2" x1="0" y1="0" x2="100" y2="100" gradientUnits="userSpaceOnUse">
<stop stop-color="#FF5C00"/>
<stop offset="1" stop-color="#FF0F00"/>
</linearGradient>
<clipPath id="clip0_159_2">
<rect width="100" height="100" fill="white"/>
</clipPath>
</defs>
</svg>
