<svg width="100" height="100" viewBox="0 0 100 100" fill="none" xmlns="http://www.w3.org/2000/svg">
<g clip-path="url(#clip0_683_25)">
<path d="M76.5625 0H23.4375C10.4933 0 0 10.4933 0 23.4375V76.5625C0 89.5067 10.4933 100 23.4375 100H76.5625C89.5067 100 100 89.5067 100 76.5625V23.4375C100 10.4933 89.5067 0 76.5625 0Z" fill="#1A1A1A"/>
<path fill-rule="evenodd" clip-rule="evenodd" d="M84.3148 30.5913C84.3398 30.6864 84.3531 30.7845 84.3531 30.883V46.1953C84.3531 46.3918 84.302 46.5848 84.2051 46.7547C84.1078 46.925 83.968 47.066 83.8 47.1637L71.1258 54.5629V69.2289C71.1258 69.6281 70.9168 69.9965 70.5754 70.1977L44.1191 85.641C44.0586 85.6758 43.9926 85.6981 43.9266 85.7219C43.9016 85.7305 43.8785 85.7457 43.8523 85.7527C43.6672 85.802 43.473 85.802 43.2879 85.7527C43.2578 85.7441 43.2301 85.7274 43.2012 85.7164C43.1406 85.6941 43.0773 85.6746 43.0195 85.641L16.5689 70.1977C16.4009 70.0996 16.2613 69.9586 16.1641 69.7887C16.067 69.6188 16.0157 69.4254 16.0156 69.2289V23.2925C16.0156 23.192 16.0294 23.0943 16.0541 22.9994C16.0624 22.9673 16.0817 22.938 16.0927 22.9059C16.1133 22.8473 16.1326 22.7873 16.1629 22.7329C16.1835 22.6966 16.2138 22.6673 16.2386 22.6338C16.2702 22.5891 16.2991 22.543 16.3363 22.504C16.3679 22.4719 16.4092 22.4482 16.445 22.4203C16.4849 22.3868 16.5207 22.3505 16.5661 22.3239H16.5675L29.7935 14.6023C29.961 14.5046 30.1508 14.4531 30.344 14.4531C30.5372 14.4531 30.7271 14.5046 30.8945 14.6023L44.1207 22.3239H44.1234C44.1672 22.3519 44.2047 22.3868 44.2445 22.4189C44.2801 22.4468 44.3199 22.4719 44.3516 22.5026C44.3902 22.543 44.418 22.5891 44.4508 22.6338C44.4742 22.6673 44.5059 22.6966 44.525 22.7329C44.5566 22.7887 44.5746 22.8473 44.5969 22.9059C44.6078 22.938 44.627 22.9673 44.6352 23.0008C44.6605 23.0959 44.6734 23.194 44.6738 23.2925V51.984L55.6949 45.5492V30.8816C55.6949 30.7839 55.7086 30.6848 55.7336 30.5913C55.7434 30.5578 55.7609 30.5285 55.7723 30.4964C55.7941 30.4378 55.8133 30.3778 55.8438 30.3234C55.8645 30.2871 55.8945 30.2578 55.918 30.2243C55.9512 30.1796 55.9785 30.1336 56.0172 30.0945C56.0488 30.0624 56.0887 30.0387 56.1246 30.0107C56.1656 29.9773 56.2016 29.941 56.2457 29.9145H56.2473L69.4746 22.1928C69.6418 22.0949 69.8316 22.0434 70.025 22.0434C70.2184 22.0434 70.4082 22.0949 70.5754 22.1928L83.8016 29.9145C83.8484 29.9424 83.884 29.9773 83.9254 30.0094C83.9598 30.0373 83.9996 30.0624 84.0312 30.0931C84.0699 30.1336 84.0973 30.1796 84.1305 30.2243C84.1551 30.2578 84.1855 30.2871 84.2047 30.3234C84.2363 30.3778 84.2543 30.4378 84.2762 30.4964C84.2887 30.5285 84.3066 30.5578 84.3148 30.5913ZM82.1484 45.5492V32.8159L77.5199 35.5177L71.1258 39.2508V51.984L82.1496 45.5492H82.1484ZM68.9223 68.5828V55.8414L62.6328 59.484L44.6723 69.8781V82.7395L68.9223 68.5828ZM18.2204 25.2254V68.5828L42.4676 82.7383V69.8793L29.8004 62.6098L29.7962 62.607L29.7907 62.6043C29.7481 62.5793 29.7123 62.543 29.6724 62.5121C29.638 62.4844 29.5981 62.4621 29.5678 62.4313L29.5651 62.4273C29.5293 62.3922 29.5045 62.3492 29.4742 62.3098C29.4467 62.2723 29.4137 62.2402 29.3916 62.2012L29.3901 62.1969C29.3653 62.1551 29.3502 62.1047 29.3323 62.0574C29.3144 62.0156 29.291 61.9766 29.28 61.9316V61.9301C29.2663 61.8773 29.2635 61.8215 29.258 61.7668C29.2525 61.725 29.2414 61.6832 29.2414 61.6414V61.6387V31.6604L22.8488 27.9258L18.2204 25.2268V25.2254ZM30.3454 16.8603L19.3256 23.2925L30.3427 29.7246L41.3609 23.2911L30.3427 16.8603H30.3454ZM36.0762 57.0023L42.4691 53.2707V25.2254L37.8406 27.9272L31.4464 31.6603V59.7059L36.0762 57.0023ZM70.025 24.4508L59.0062 30.883L70.025 37.3152L81.0418 30.8816L70.025 24.4508ZM68.9223 39.2508L62.5281 35.5177L57.9 32.8159V45.5492L64.2926 49.2809L68.9223 51.984V39.2508ZM43.5688 67.9453L59.7301 58.5891L67.809 53.9141L56.7988 47.4859L44.1219 54.8867L32.5681 61.6316L43.5688 67.9453Z" fill="#14DBEB"/>
</g>
<defs>
<clipPath id="clip0_683_25">
<rect width="100" height="100" fill="white"/>
</clipPath>
</defs>
</svg>
