<svg width="100" height="100" viewBox="0 0 100 100" fill="none" xmlns="http://www.w3.org/2000/svg">
<path d="M76.5625 0H23.4375C10.4933 0 0 10.4933 0 23.4375V76.5625C0 89.5067 10.4933 100 23.4375 100H76.5625C89.5067 100 100 89.5067 100 76.5625V23.4375C100 10.4933 89.5067 0 76.5625 0Z" fill="#1A1A1A"/>
<path d="M9.39539 65.9934C8.52168 65.9934 7.77902 65.7078 7.16742 65.1363C6.55582 64.55 6.25 63.8539 6.25 63.0477C6.25 62.227 6.55582 61.5235 7.16742 60.9371C7.77902 60.3512 8.52168 60.0578 9.39539 60.0578C10.2837 60.0578 11.0336 60.3512 11.6452 60.9371C12.2714 61.5235 12.5845 62.227 12.5845 63.0477C12.5845 63.8539 12.2714 64.55 11.6452 65.1363C11.0336 65.7078 10.2837 65.9934 9.39539 65.9934Z" fill="#14DBEB"/>
<path d="M44.323 65.5098H38.6439L23.6816 42.3387C23.303 41.7523 22.9898 41.1438 22.7424 40.5137H22.6112C22.7278 41.1879 22.786 42.6316 22.786 44.8445V65.5098H17.762V33.9844H23.8125L38.2727 56.6063C38.8843 57.5445 39.2773 58.1891 39.4523 58.541H39.5395C39.3941 57.7055 39.3211 56.2914 39.3211 54.2977V33.9844H44.323V65.5098Z" fill="#14DBEB"/>
<path d="M68.7883 65.5098H51.2047V33.9844H68.0895V38.4253H56.4035V47.3508H67.1723V51.7695H56.4035V61.091H68.7883V65.5098Z" fill="#14DBEB"/>
<path d="M93.7777 38.4253H84.7785V65.5098H79.5797V38.4253H70.6023V33.9844H93.7777V38.4253Z" fill="#14DBEB"/>
</svg>
