<svg width="102" height="102" viewBox="0 0 102 102" fill="none" xmlns="http://www.w3.org/2000/svg">
<g clip-path="url(#clip0_28_655)">
<path d="M77.5625 1H24.4375C11.4933 1 1 11.4933 1 24.4375V77.5625C1 90.5067 11.4933 101 24.4375 101H77.5625C90.5067 101 101 90.5067 101 77.5625V24.4375C101 11.4933 90.5067 1 77.5625 1Z" fill="#1A1A1A"/>
<path d="M51.0004 58.4028C55.0254 58.4028 58.2879 55.1399 58.2879 51.1153C58.2879 47.0907 55.0254 43.8278 51.0004 43.8278C46.9758 43.8278 43.7129 47.0907 43.7129 51.1153C43.7129 55.1399 46.9758 58.4028 51.0004 58.4028Z" fill="#14DBEB"/>
<path d="M77.5625 1H24.4375C11.4933 1 1 11.4933 1 24.4375V77.5625C1 90.5067 11.4933 101 24.4375 101H77.5625C90.5067 101 101 90.5067 101 77.5625V24.4375C101 11.4933 90.5067 1 77.5625 1Z" stroke="#1A1A1A" stroke-width="1.67081"/>
<path d="M51.0004 58.4028C55.0254 58.4028 58.2879 55.1399 58.2879 51.1153C58.2879 47.0907 55.0254 43.8278 51.0004 43.8278C46.9758 43.8278 43.7129 47.0907 43.7129 51.1153C43.7129 55.1399 46.9758 58.4028 51.0004 58.4028Z" stroke="#14DBEB" stroke-width="1.67081"/>
<path fill-rule="evenodd" clip-rule="evenodd" d="M51.0008 36.2982C60.7852 36.2982 69.8746 37.7021 76.7281 40.0616C84.9855 42.9043 90.0625 47.2133 90.0625 51.1152C90.0625 55.1812 84.682 59.759 75.8145 62.6969C69.1105 64.918 60.2887 66.0773 51.0008 66.0773C41.4781 66.0773 32.4605 64.9891 25.681 62.6723C17.1037 59.7406 11.9375 55.1039 11.9375 51.1152C11.9375 47.2449 16.785 42.9691 24.9264 40.1309C31.8054 37.7325 41.1191 36.2982 50.9992 36.2982H51.0008Z" stroke="#14DBEB" stroke-width="1.67081"/>
<path fill-rule="evenodd" clip-rule="evenodd" d="M38.1021 43.7492C42.9903 35.2735 48.747 28.1009 54.215 23.3426C60.8025 17.6096 67.072 15.3644 70.4517 17.3134C73.9739 19.3446 75.2517 26.2928 73.3669 35.4419C71.9431 42.359 68.5392 50.5801 63.8989 58.6262C59.1415 66.8754 53.6942 74.1434 48.3009 78.8574C41.4763 84.8231 34.8784 86.982 31.4233 84.9895C28.0705 83.0574 26.7884 76.7211 28.3968 68.2504C29.7558 61.093 33.1662 52.3082 38.1005 43.7492H38.1021Z" stroke="#14DBEB" stroke-width="1.67081"/>
<path fill-rule="evenodd" clip-rule="evenodd" d="M38.1141 58.6476C33.2121 50.1812 29.8747 41.6101 28.4816 34.4967C26.8047 25.9261 27.9903 19.3732 31.3671 17.4185C34.886 15.3813 41.5436 17.7445 48.5288 23.9467C53.8101 28.6359 59.2331 35.6895 63.8866 43.7277C68.6577 51.9691 72.2335 60.3187 73.6245 67.3453C75.3847 76.2375 73.9601 83.0316 70.5081 85.0297C67.1589 86.9687 61.0296 84.916 54.494 79.2918C48.9722 74.5402 43.0644 67.1984 38.1141 58.6476Z" stroke="#14DBEB" stroke-width="1.67081"/>
</g>
<defs>
<clipPath id="clip0_28_655">
<rect width="102" height="102" fill="white"/>
</clipPath>
</defs>
</svg>
