<svg width="100" height="100" viewBox="0 0 100 100" fill="none" xmlns="http://www.w3.org/2000/svg">
<path d="M76.5625 0H23.4375C10.4933 0 0 10.4933 0 23.4375V76.5625C0 89.5067 10.4933 100 23.4375 100H76.5625C89.5067 100 100 89.5067 100 76.5625V23.4375C100 10.4933 89.5067 0 76.5625 0Z" fill="#1A1A1A"/>
<path d="M89.0625 20.7031H10.9375V79.2613H89.0625V20.7031Z" fill="#1A1A1A"/>
<path d="M78.1668 54.3605C75.4426 54.3746 73.0754 55.0308 71.093 56.0004C70.3656 54.5601 69.6383 53.2765 69.5098 52.3351C69.3672 51.2371 69.1961 50.5668 69.3672 49.2547C69.5383 47.9425 70.3086 46.0746 70.2941 45.932C70.2801 45.789 70.123 45.1191 68.5543 45.1047C66.9855 45.0906 65.6309 45.4043 65.4738 45.8179C65.3168 46.2312 65.0176 47.1726 64.818 48.1425C64.5469 49.5687 61.6801 54.6601 60.0402 57.3269C59.5125 56.2859 59.0562 55.373 58.9562 54.6457C58.8137 53.5476 58.6426 52.8773 58.8137 51.5652C58.9848 50.2531 59.7551 48.3847 59.7406 48.2421C59.7266 48.0996 59.5695 47.4293 58.0008 47.4152C56.432 47.4007 55.077 47.7144 54.9203 48.1281C54.7633 48.5418 54.5922 49.5117 54.2641 50.4527C53.9363 51.3941 50.1285 59.8941 49.1301 62.0902C48.6168 63.2168 48.1746 64.1152 47.8609 64.7285C47.8609 64.7285 47.8465 64.7714 47.8039 64.8425C47.5328 65.3703 47.3758 65.6554 47.3758 65.6554C47.3758 65.6554 47.3758 65.6554 47.3758 65.6699C47.1621 66.055 46.9336 66.4113 46.8195 66.4113C46.734 66.4113 46.5773 65.3847 46.848 63.9871C47.4187 61.0347 48.7734 56.4425 48.7594 56.2859C48.7594 56.2003 49.016 55.4015 47.875 54.9879C46.7625 54.5742 46.3633 55.2589 46.2633 55.2589C46.1637 55.2589 46.0922 55.5015 46.0922 55.5015C46.0922 55.5015 47.3332 50.3386 43.725 50.3386C41.4715 50.3386 38.3625 52.8058 36.8223 55.0308C35.8525 55.5586 33.7846 56.6851 31.574 57.8972C30.7326 58.3679 29.8627 58.8386 29.0497 59.2808C28.9927 59.2238 28.9357 59.1523 28.8786 59.0953C24.5146 54.4316 16.4425 51.1375 16.7848 44.8765C16.9131 42.5945 17.6975 36.6048 32.2871 29.3313C44.2953 23.4128 53.8508 25.0529 55.5051 28.6896C57.8723 33.8808 50.3852 43.5214 37.9775 44.9191C33.2427 45.4468 30.7611 43.6214 30.1336 42.9371C29.4776 42.2238 29.3778 42.1812 29.1353 42.3238C28.736 42.5375 28.9927 43.1793 29.1353 43.55C29.5061 44.5199 31.0321 46.2312 33.6134 47.0726C35.8953 47.8144 41.443 48.2281 48.1602 45.6324C55.6762 42.723 61.552 34.6366 59.8262 27.8624C58.1008 20.9883 46.6914 18.7207 35.8953 22.5571C29.4776 24.8389 22.5179 28.4329 17.5121 33.1107C11.565 38.6727 10.6238 43.5074 11.0088 45.5324C12.3922 52.7203 22.304 57.398 26.2687 60.8636C26.0691 60.9777 25.8837 61.0777 25.7268 61.1632C23.7444 62.1472 16.1858 66.0976 14.3032 70.2765C12.164 75.0113 14.6456 78.4054 16.2856 78.8617C21.377 80.2738 26.611 77.7351 29.4205 73.5422C32.2301 69.3492 31.8878 63.9015 30.59 61.4058C30.5757 61.3773 30.5615 61.3488 30.5329 61.3203C31.0464 61.0207 31.574 60.707 32.0875 60.4074C33.1 59.8086 34.0983 59.2523 34.954 58.7957C34.4691 60.1222 34.1126 61.705 33.9414 63.9871C33.7275 66.6683 34.8257 70.148 36.2661 71.5172C36.9079 72.116 37.6637 72.1304 38.1486 72.1304C39.8316 72.1304 40.5875 70.7328 41.4289 69.0785C42.4555 67.0531 43.3828 64.7 43.3828 64.7C43.3828 64.7 42.2273 71.0609 45.3648 71.0609C46.5059 71.0609 47.6609 69.5777 48.1746 68.8218C48.1746 68.8359 48.1746 68.8359 48.1746 68.8359C48.1746 68.8359 48.2031 68.7933 48.2602 68.6933C48.3742 68.5078 48.4453 68.3937 48.4453 68.3937C48.4453 68.3937 48.4453 68.3796 48.4453 68.3652C48.902 67.5668 49.9285 65.7554 51.4547 62.7461C53.4227 58.8671 55.3195 54.0183 55.3195 54.0183C55.3195 54.0183 55.4906 55.2019 56.0754 57.1699C56.4176 58.3253 57.1309 59.5945 57.7012 60.8211C57.2449 61.4628 56.9598 61.8191 56.9598 61.8191C56.9598 61.8191 56.9598 61.8191 56.9738 61.8336C56.6031 62.3183 56.2039 62.8461 55.7617 63.3593C54.207 65.2136 52.3531 67.3386 52.0965 67.9519C51.7969 68.6793 51.8684 69.2066 52.4387 69.6347C52.8523 69.9484 53.5937 69.991 54.3496 69.9484C55.7473 69.8484 56.7316 69.5062 57.2164 69.2921C57.9723 69.0214 58.8566 68.6078 59.6836 67.9945C61.2098 66.8679 62.1367 65.2562 62.0512 63.1312C62.0082 61.9617 61.623 60.7925 61.1527 59.6941C61.2953 59.4945 61.4234 59.2949 61.566 59.0953C63.9766 55.5726 65.8445 51.7078 65.8445 51.7078C65.8445 51.7078 66.0156 52.8914 66.6004 54.8597C66.8855 55.8578 67.4703 56.9418 67.984 57.9972C65.7164 59.8371 64.3188 61.9761 63.8195 63.3738C62.9211 65.9695 63.6199 67.1386 64.9461 67.4097C65.5453 67.5382 66.4008 67.2531 67.0285 66.982C67.827 66.7254 68.7684 66.2832 69.6668 65.6269C71.1926 64.5004 72.6617 62.9316 72.5762 60.8066C72.5332 59.8371 72.2766 58.8812 71.9199 57.9543C73.8453 57.1558 76.327 56.7136 79.493 57.0843C86.2816 57.8832 87.6223 62.1187 87.3652 63.9015C87.1086 65.6839 85.6824 66.6539 85.2117 66.9535C84.7414 67.2531 84.5844 67.3527 84.6273 67.5668C84.6844 67.8804 84.9125 67.866 85.3117 67.8089C85.868 67.7093 88.877 66.3687 89.0055 63.0886C89.2195 58.8957 85.2262 54.3175 78.1668 54.3605ZM25.7981 72.0164C23.5448 74.4691 20.4072 75.3964 19.0524 74.6121C17.5977 73.7703 18.1682 70.148 20.9349 67.5523C22.6178 65.9695 24.7855 64.5004 26.2259 63.6019C26.5539 63.4023 27.0389 63.1172 27.6236 62.7605C27.7234 62.7035 27.7805 62.675 27.7805 62.675C27.8945 62.6035 28.0086 62.5324 28.1227 62.4609C29.1353 66.1691 28.1655 69.4351 25.7981 72.0164ZM42.1988 60.8636C41.4145 62.775 39.7746 67.6664 38.7761 67.3957C37.9204 67.1672 37.3928 63.4593 38.605 59.7941C39.2184 57.9543 40.516 55.7582 41.2719 54.9023C42.4984 53.5332 43.8531 53.0769 44.1812 53.6332C44.5949 54.3605 42.684 59.6656 42.1988 60.8636ZM55.7332 67.3386C55.4051 67.5097 55.0914 67.6238 54.9488 67.5382C54.8488 67.4812 55.0914 67.2531 55.0914 67.2531C55.0914 67.2531 56.7887 65.4273 57.459 64.6003C57.8437 64.1152 58.3004 63.5449 58.7852 62.9031C58.7852 62.9601 58.7852 63.0316 58.7852 63.0886C58.7852 65.2707 56.6746 66.7394 55.7332 67.3386ZM66.1727 64.9566C65.9301 64.7855 65.9731 64.2152 66.7859 62.4324C67.0996 61.7336 67.8414 60.5644 69.1105 59.4375C69.2531 59.8941 69.3531 60.3359 69.3387 60.7496C69.3246 63.5023 67.3562 64.5289 66.1727 64.9566Z" fill="#14DBEB"/>
</svg>
