<svg width="331" height="32" viewBox="0 0 331 32" fill="none" xmlns="http://www.w3.org/2000/svg">
<path d="M7.12799 25.168C5.17599 25.168 3.59999 24.768 2.39999 23.968C1.21599 23.152 0.623993 21.968 0.623993 20.416C0.623993 20.288 0.639993 20.064 0.671993 19.744H5.63999C5.59199 20.288 5.70399 20.712 5.97599 21.016C6.24799 21.32 6.66399 21.472 7.22399 21.472C7.68799 21.472 8.05599 21.368 8.32799 21.16C8.61599 20.952 8.75999 20.656 8.75999 20.272C8.75999 19.824 8.55199 19.456 8.13599 19.168C7.73599 18.88 7.07999 18.544 6.16799 18.16C5.25599 17.776 4.50399 17.416 3.91199 17.08C3.31999 16.728 2.80799 16.256 2.37599 15.664C1.94399 15.056 1.72799 14.304 1.72799 13.408C1.72799 12.24 2.01599 11.24 2.59199 10.408C3.16799 9.56 3.96799 8.92 4.99199 8.488C6.03199 8.04 7.21599 7.816 8.54399 7.816C9.74399 7.816 10.808 8.008 11.736 8.392C12.664 8.76 13.384 9.296 13.896 10C14.424 10.704 14.688 11.536 14.688 12.496C14.688 12.752 14.68 12.944 14.664 13.072H9.59999C9.61599 12.992 9.62399 12.88 9.62399 12.736C9.62399 12.352 9.50399 12.056 9.26399 11.848C9.02399 11.624 8.69599 11.512 8.27999 11.512C7.84799 11.512 7.49599 11.624 7.22399 11.848C6.96799 12.056 6.83999 12.352 6.83999 12.736C6.83999 13.152 7.03999 13.512 7.43999 13.816C7.85599 14.104 8.49599 14.448 9.35999 14.848C10.288 15.28 11.048 15.688 11.64 16.072C12.248 16.44 12.768 16.936 13.2 17.56C13.632 18.184 13.848 18.952 13.848 19.864C13.848 20.872 13.576 21.784 13.032 22.6C12.488 23.4 11.712 24.032 10.704 24.496C9.69599 24.944 8.50399 25.168 7.12799 25.168Z" fill="#050060"/>
<path d="M22.9881 8.08L20.0121 25H15.2841L18.2841 8.08H22.9881Z" fill="#050060"/>
<path d="M29.6749 25.168C27.7229 25.168 26.1469 24.768 24.9469 23.968C23.7629 23.152 23.1709 21.968 23.1709 20.416C23.1709 20.288 23.1869 20.064 23.2189 19.744H28.1869C28.1389 20.288 28.2509 20.712 28.5229 21.016C28.7949 21.32 29.2109 21.472 29.7709 21.472C30.2349 21.472 30.6029 21.368 30.8749 21.16C31.1629 20.952 31.3069 20.656 31.3069 20.272C31.3069 19.824 31.0989 19.456 30.6829 19.168C30.2829 18.88 29.6269 18.544 28.7149 18.16C27.8029 17.776 27.0509 17.416 26.4589 17.08C25.8669 16.728 25.3549 16.256 24.9229 15.664C24.4909 15.056 24.2749 14.304 24.2749 13.408C24.2749 12.24 24.5629 11.24 25.1389 10.408C25.7149 9.56 26.5149 8.92 27.5389 8.488C28.5789 8.04 29.7629 7.816 31.0909 7.816C32.2909 7.816 33.3549 8.008 34.2829 8.392C35.2109 8.76 35.9309 9.296 36.4429 10C36.9709 10.704 37.2349 11.536 37.2349 12.496C37.2349 12.752 37.2269 12.944 37.2109 13.072H32.1469C32.1629 12.992 32.1709 12.88 32.1709 12.736C32.1709 12.352 32.0509 12.056 31.8109 11.848C31.5709 11.624 31.2429 11.512 30.8269 11.512C30.3949 11.512 30.0429 11.624 29.7709 11.848C29.5149 12.056 29.3869 12.352 29.3869 12.736C29.3869 13.152 29.5869 13.512 29.9869 13.816C30.4029 14.104 31.0429 14.448 31.9069 14.848C32.8349 15.28 33.5949 15.688 34.1869 16.072C34.7949 16.44 35.3149 16.936 35.7469 17.56C36.1789 18.184 36.3949 18.952 36.3949 19.864C36.3949 20.872 36.1229 21.784 35.5789 22.6C35.0349 23.4 34.2589 24.032 33.2509 24.496C32.2429 24.944 31.0509 25.168 29.6749 25.168Z" fill="#050060"/>
<path d="M53.5749 8.08L52.9029 11.824H48.4149L46.0869 25H41.3589L43.6869 11.824H39.2229L39.8949 8.08H53.5749Z" fill="#050060"/>
<path d="M59.3713 11.8L58.8913 14.608H64.2913L63.6433 18.184H58.2433L57.6913 21.256H63.8113L63.1633 25H52.3153L55.3153 8.08H66.1393L65.4913 11.8H59.3713Z" fill="#050060"/>
<path d="M88.2157 8.08L85.2157 25H80.5357L82.1917 15.64L77.3197 25H73.3837L71.8477 15.592L70.1917 25H65.4637L68.4637 8.08H74.1517L76.4797 19.048L82.5517 8.08H88.2157Z" fill="#050060"/>
<path d="M99.1014 22.24H93.1014L91.7094 25H86.7654L95.9094 8.08H101.333L104.501 25H99.5334L99.1014 22.24ZM98.5494 18.664L97.7094 13.168L94.9254 18.664H98.5494Z" fill="#050060"/>
<path d="M113.019 25.168C111.067 25.168 109.491 24.768 108.291 23.968C107.107 23.152 106.515 21.968 106.515 20.416C106.515 20.288 106.531 20.064 106.563 19.744H111.531C111.483 20.288 111.595 20.712 111.867 21.016C112.139 21.32 112.555 21.472 113.115 21.472C113.579 21.472 113.947 21.368 114.219 21.16C114.507 20.952 114.651 20.656 114.651 20.272C114.651 19.824 114.443 19.456 114.027 19.168C113.627 18.88 112.971 18.544 112.059 18.16C111.147 17.776 110.395 17.416 109.803 17.08C109.211 16.728 108.699 16.256 108.267 15.664C107.835 15.056 107.619 14.304 107.619 13.408C107.619 12.24 107.907 11.24 108.483 10.408C109.059 9.56 109.859 8.92 110.883 8.488C111.923 8.04 113.107 7.816 114.435 7.816C115.635 7.816 116.699 8.008 117.627 8.392C118.555 8.76 119.275 9.296 119.787 10C120.315 10.704 120.579 11.536 120.579 12.496C120.579 12.752 120.571 12.944 120.555 13.072H115.491C115.507 12.992 115.515 12.88 115.515 12.736C115.515 12.352 115.395 12.056 115.155 11.848C114.915 11.624 114.587 11.512 114.171 11.512C113.739 11.512 113.387 11.624 113.115 11.848C112.859 12.056 112.731 12.352 112.731 12.736C112.731 13.152 112.931 13.512 113.331 13.816C113.747 14.104 114.387 14.448 115.251 14.848C116.179 15.28 116.939 15.688 117.531 16.072C118.139 16.44 118.659 16.936 119.091 17.56C119.523 18.184 119.739 18.952 119.739 19.864C119.739 20.872 119.467 21.784 118.923 22.6C118.379 23.4 117.603 24.032 116.595 24.496C115.587 24.944 114.395 25.168 113.019 25.168Z" fill="#050060"/>
<path d="M135.699 8.08C137.251 8.08 138.595 8.36 139.731 8.92C140.867 9.464 141.731 10.24 142.323 11.248C142.915 12.256 143.211 13.432 143.211 14.776C143.211 15.384 143.155 15.968 143.043 16.528C142.755 18.16 142.131 19.616 141.171 20.896C140.227 22.176 139.019 23.184 137.547 23.92C136.091 24.64 134.475 25 132.699 25H126.003L129.003 8.08H135.699ZM133.083 20.872C134.459 20.872 135.603 20.496 136.515 19.744C137.427 18.976 138.011 17.904 138.267 16.528C138.331 16.208 138.363 15.864 138.363 15.496C138.363 14.424 138.035 13.6 137.379 13.024C136.723 12.448 135.803 12.16 134.619 12.16H133.011L131.451 20.872H133.083Z" fill="#050060"/>
<path d="M150.707 11.8L150.227 14.608H155.627L154.979 18.184H149.579L149.027 21.256H155.147L154.499 25H143.651L146.651 8.08H157.475L156.827 11.8H150.707Z" fill="#050060"/>
<path d="M169.332 8.08L166.356 25H161.628L164.628 8.08H169.332Z" fill="#050060"/>
<path d="M184.707 25H179.979L175.419 15.544L173.739 25H169.011L172.011 8.08H176.715L181.299 17.656L182.979 8.08H187.683L184.707 25Z" fill="#050060"/>
<path d="M201.834 8.08L201.186 11.824H194.418L193.89 14.8H198.858L198.234 18.376H193.266L192.09 25H187.362L190.362 8.08H201.834Z" fill="#050060"/>
<path d="M208.999 25.168C207.575 25.168 206.319 24.872 205.231 24.28C204.143 23.688 203.303 22.856 202.711 21.784C202.119 20.712 201.823 19.48 201.823 18.088C201.823 16.088 202.239 14.312 203.071 12.76C203.919 11.192 205.095 9.976 206.599 9.112C208.119 8.248 209.855 7.816 211.807 7.816C213.263 7.816 214.535 8.112 215.623 8.704C216.727 9.28 217.575 10.104 218.167 11.176C218.759 12.232 219.055 13.456 219.055 14.848C219.055 16.832 218.631 18.608 217.783 20.176C216.935 21.744 215.751 22.968 214.231 23.848C212.711 24.728 210.967 25.168 208.999 25.168ZM209.719 20.8C210.663 20.8 211.487 20.552 212.191 20.056C212.911 19.56 213.455 18.904 213.823 18.088C214.207 17.256 214.399 16.36 214.399 15.4C214.399 14.376 214.119 13.584 213.559 13.024C213.015 12.448 212.231 12.16 211.207 12.16C210.263 12.16 209.431 12.408 208.711 12.904C207.991 13.384 207.439 14.032 207.055 14.848C206.671 15.664 206.479 16.56 206.479 17.536C206.479 18.544 206.759 19.344 207.319 19.936C207.879 20.512 208.679 20.8 209.719 20.8Z" fill="#050060"/>
<path d="M230.122 8.08C231.898 8.08 233.25 8.48 234.178 9.28C235.106 10.064 235.57 11.112 235.57 12.424C235.57 12.824 235.538 13.184 235.474 13.504C235.282 14.656 234.794 15.672 234.01 16.552C233.226 17.416 232.186 18.032 230.89 18.4L233.53 25H228.298L226.042 18.76H225.538L224.434 25H219.706L222.706 8.08H230.122ZM226.114 15.544H228.442C229.69 15.544 230.426 14.952 230.65 13.768C230.682 13.576 230.698 13.44 230.698 13.36C230.698 12.928 230.554 12.592 230.266 12.352C229.994 12.112 229.586 11.992 229.042 11.992H226.714L226.114 15.544Z" fill="#050060"/>
<path d="M258.325 8.08L255.325 25H250.645L252.301 15.64L247.429 25H243.493L241.957 15.592L240.301 25H235.573L238.573 8.08H244.261L246.589 19.048L252.661 8.08H258.325Z" fill="#050060"/>
<path d="M269.211 22.24H263.211L261.819 25H256.875L266.019 8.08H271.443L274.611 25H269.643L269.211 22.24ZM268.659 18.664L267.819 13.168L265.035 18.664H268.659Z" fill="#050060"/>
<path d="M284.664 20.776C285.368 20.776 286.016 20.608 286.608 20.272C287.216 19.936 287.72 19.456 288.12 18.832H293.208C292.536 20.512 291.52 21.896 290.16 22.984C288.8 24.072 287.24 24.744 285.48 25L285.312 25.888C286.016 25.888 286.632 26.072 287.16 26.44C287.704 26.808 287.976 27.368 287.976 28.12C287.976 28.376 287.96 28.576 287.928 28.72C287.752 29.696 287.28 30.416 286.512 30.88C285.744 31.344 284.888 31.576 283.944 31.576H280.032L280.464 29.104H283.848C284.088 29.104 284.288 29.056 284.448 28.96C284.608 28.88 284.696 28.76 284.712 28.6C284.776 28.264 284.544 28.096 284.016 28.096H282.144L282.696 25.048C280.872 24.808 279.448 24.096 278.424 22.912C277.4 21.712 276.888 20.192 276.888 18.352C276.888 17.728 276.944 17.112 277.056 16.504C277.344 14.84 277.952 13.36 278.88 12.064C279.808 10.752 280.976 9.736 282.384 9.016C283.792 8.28 285.328 7.912 286.992 7.912C288.384 7.912 289.6 8.168 290.64 8.68C291.68 9.192 292.488 9.92 293.064 10.864C293.64 11.808 293.952 12.92 294 14.2H288.936C288.744 13.576 288.408 13.096 287.928 12.76C287.448 12.424 286.856 12.256 286.152 12.256C285.064 12.256 284.128 12.64 283.344 13.408C282.56 14.176 282.056 15.208 281.832 16.504C281.768 16.84 281.736 17.2 281.736 17.584C281.736 18.576 281.992 19.36 282.504 19.936C283.032 20.496 283.752 20.776 284.664 20.776Z" fill="#050060"/>
<path d="M305.516 22.24H299.516L298.124 25H293.18L302.323 8.08H307.747L310.915 25H305.947L305.516 22.24ZM304.964 18.664L304.124 13.168L301.34 18.664H304.964ZM300.043 6.808C300.923 4.216 302.347 2.92 304.315 2.92C304.667 2.92 304.979 2.976 305.251 3.088C305.539 3.184 305.859 3.336 306.211 3.544C306.483 3.704 306.699 3.824 306.859 3.904C307.035 3.968 307.219 4 307.411 4C308.003 4 308.419 3.64 308.659 2.92H311.035C310.139 5.496 308.715 6.784 306.763 6.784C306.411 6.784 306.099 6.736 305.827 6.64C305.555 6.528 305.228 6.368 304.844 6.16C304.572 6 304.347 5.888 304.171 5.824C304.011 5.744 303.835 5.704 303.643 5.704C303.067 5.704 302.652 6.072 302.396 6.808H300.043Z" fill="#050060"/>
<path d="M320.609 25.168C319.185 25.168 317.929 24.872 316.841 24.28C315.753 23.688 314.913 22.856 314.321 21.784C313.729 20.712 313.433 19.48 313.433 18.088C313.433 16.088 313.849 14.312 314.681 12.76C315.529 11.192 316.705 9.976 318.209 9.112C319.729 8.248 321.465 7.816 323.417 7.816C324.873 7.816 326.145 8.112 327.233 8.704C328.337 9.28 329.185 10.104 329.777 11.176C330.369 12.232 330.665 13.456 330.665 14.848C330.665 16.832 330.241 18.608 329.393 20.176C328.545 21.744 327.361 22.968 325.841 23.848C324.321 24.728 322.577 25.168 320.609 25.168ZM321.329 20.8C322.273 20.8 323.097 20.552 323.801 20.056C324.521 19.56 325.065 18.904 325.433 18.088C325.817 17.256 326.009 16.36 326.009 15.4C326.009 14.376 325.729 13.584 325.169 13.024C324.625 12.448 323.841 12.16 322.817 12.16C321.873 12.16 321.041 12.408 320.321 12.904C319.601 13.384 319.049 14.032 318.665 14.848C318.281 15.664 318.089 16.56 318.089 17.536C318.089 18.544 318.369 19.344 318.929 19.936C319.489 20.512 320.289 20.8 321.329 20.8Z" fill="#050060"/>
<path d="M7.12799 23.168C5.17599 23.168 3.59999 22.768 2.39999 21.968C1.21599 21.152 0.623993 19.968 0.623993 18.416C0.623993 18.288 0.639993 18.064 0.671993 17.744H5.63999C5.59199 18.288 5.70399 18.712 5.97599 19.016C6.24799 19.32 6.66399 19.472 7.22399 19.472C7.68799 19.472 8.05599 19.368 8.32799 19.16C8.61599 18.952 8.75999 18.656 8.75999 18.272C8.75999 17.824 8.55199 17.456 8.13599 17.168C7.73599 16.88 7.07999 16.544 6.16799 16.16C5.25599 15.776 4.50399 15.416 3.91199 15.08C3.31999 14.728 2.80799 14.256 2.37599 13.664C1.94399 13.056 1.72799 12.304 1.72799 11.408C1.72799 10.24 2.01599 9.24 2.59199 8.408C3.16799 7.56 3.96799 6.92 4.99199 6.488C6.03199 6.04 7.21599 5.816 8.54399 5.816C9.74399 5.816 10.808 6.008 11.736 6.392C12.664 6.76 13.384 7.296 13.896 8C14.424 8.704 14.688 9.536 14.688 10.496C14.688 10.752 14.68 10.944 14.664 11.072H9.59999C9.61599 10.992 9.62399 10.88 9.62399 10.736C9.62399 10.352 9.50399 10.056 9.26399 9.848C9.02399 9.624 8.69599 9.512 8.27999 9.512C7.84799 9.512 7.49599 9.624 7.22399 9.848C6.96799 10.056 6.83999 10.352 6.83999 10.736C6.83999 11.152 7.03999 11.512 7.43999 11.816C7.85599 12.104 8.49599 12.448 9.35999 12.848C10.288 13.28 11.048 13.688 11.64 14.072C12.248 14.44 12.768 14.936 13.2 15.56C13.632 16.184 13.848 16.952 13.848 17.864C13.848 18.872 13.576 19.784 13.032 20.6C12.488 21.4 11.712 22.032 10.704 22.496C9.69599 22.944 8.50399 23.168 7.12799 23.168Z" fill="#0C00FF"/>
<path d="M22.9881 6.08L20.0121 23H15.2841L18.2841 6.08H22.9881Z" fill="#0C00FF"/>
<path d="M29.6749 23.168C27.7229 23.168 26.1469 22.768 24.9469 21.968C23.7629 21.152 23.1709 19.968 23.1709 18.416C23.1709 18.288 23.1869 18.064 23.2189 17.744H28.1869C28.1389 18.288 28.2509 18.712 28.5229 19.016C28.7949 19.32 29.2109 19.472 29.7709 19.472C30.2349 19.472 30.6029 19.368 30.8749 19.16C31.1629 18.952 31.3069 18.656 31.3069 18.272C31.3069 17.824 31.0989 17.456 30.6829 17.168C30.2829 16.88 29.6269 16.544 28.7149 16.16C27.8029 15.776 27.0509 15.416 26.4589 15.08C25.8669 14.728 25.3549 14.256 24.9229 13.664C24.4909 13.056 24.2749 12.304 24.2749 11.408C24.2749 10.24 24.5629 9.24 25.1389 8.408C25.7149 7.56 26.5149 6.92 27.5389 6.488C28.5789 6.04 29.7629 5.816 31.0909 5.816C32.2909 5.816 33.3549 6.008 34.2829 6.392C35.2109 6.76 35.9309 7.296 36.4429 8C36.9709 8.704 37.2349 9.536 37.2349 10.496C37.2349 10.752 37.2269 10.944 37.2109 11.072H32.1469C32.1629 10.992 32.1709 10.88 32.1709 10.736C32.1709 10.352 32.0509 10.056 31.8109 9.848C31.5709 9.624 31.2429 9.512 30.8269 9.512C30.3949 9.512 30.0429 9.624 29.7709 9.848C29.5149 10.056 29.3869 10.352 29.3869 10.736C29.3869 11.152 29.5869 11.512 29.9869 11.816C30.4029 12.104 31.0429 12.448 31.9069 12.848C32.8349 13.28 33.5949 13.688 34.1869 14.072C34.7949 14.44 35.3149 14.936 35.7469 15.56C36.1789 16.184 36.3949 16.952 36.3949 17.864C36.3949 18.872 36.1229 19.784 35.5789 20.6C35.0349 21.4 34.2589 22.032 33.2509 22.496C32.2429 22.944 31.0509 23.168 29.6749 23.168Z" fill="#0C00FF"/>
<path d="M53.5749 6.08L52.9029 9.824H48.4149L46.0869 23H41.3589L43.6869 9.824H39.2229L39.8949 6.08H53.5749Z" fill="#0C00FF"/>
<path d="M59.3713 9.8L58.8913 12.608H64.2913L63.6433 16.184H58.2433L57.6913 19.256H63.8113L63.1633 23H52.3153L55.3153 6.08H66.1393L65.4913 9.8H59.3713Z" fill="#0C00FF"/>
<path d="M88.2157 6.08L85.2157 23H80.5357L82.1917 13.64L77.3197 23H73.3837L71.8477 13.592L70.1917 23H65.4637L68.4637 6.08H74.1517L76.4797 17.048L82.5517 6.08H88.2157Z" fill="#0C00FF"/>
<path d="M99.1014 20.24H93.1014L91.7094 23H86.7654L95.9094 6.08H101.333L104.501 23H99.5334L99.1014 20.24ZM98.5494 16.664L97.7094 11.168L94.9254 16.664H98.5494Z" fill="#0C00FF"/>
<path d="M113.019 23.168C111.067 23.168 109.491 22.768 108.291 21.968C107.107 21.152 106.515 19.968 106.515 18.416C106.515 18.288 106.531 18.064 106.563 17.744H111.531C111.483 18.288 111.595 18.712 111.867 19.016C112.139 19.32 112.555 19.472 113.115 19.472C113.579 19.472 113.947 19.368 114.219 19.16C114.507 18.952 114.651 18.656 114.651 18.272C114.651 17.824 114.443 17.456 114.027 17.168C113.627 16.88 112.971 16.544 112.059 16.16C111.147 15.776 110.395 15.416 109.803 15.08C109.211 14.728 108.699 14.256 108.267 13.664C107.835 13.056 107.619 12.304 107.619 11.408C107.619 10.24 107.907 9.24 108.483 8.408C109.059 7.56 109.859 6.92 110.883 6.488C111.923 6.04 113.107 5.816 114.435 5.816C115.635 5.816 116.699 6.008 117.627 6.392C118.555 6.76 119.275 7.296 119.787 8C120.315 8.704 120.579 9.536 120.579 10.496C120.579 10.752 120.571 10.944 120.555 11.072H115.491C115.507 10.992 115.515 10.88 115.515 10.736C115.515 10.352 115.395 10.056 115.155 9.848C114.915 9.624 114.587 9.512 114.171 9.512C113.739 9.512 113.387 9.624 113.115 9.848C112.859 10.056 112.731 10.352 112.731 10.736C112.731 11.152 112.931 11.512 113.331 11.816C113.747 12.104 114.387 12.448 115.251 12.848C116.179 13.28 116.939 13.688 117.531 14.072C118.139 14.44 118.659 14.936 119.091 15.56C119.523 16.184 119.739 16.952 119.739 17.864C119.739 18.872 119.467 19.784 118.923 20.6C118.379 21.4 117.603 22.032 116.595 22.496C115.587 22.944 114.395 23.168 113.019 23.168Z" fill="#0C00FF"/>
<path d="M135.699 6.08C137.251 6.08 138.595 6.36 139.731 6.92C140.867 7.464 141.731 8.24 142.323 9.248C142.915 10.256 143.211 11.432 143.211 12.776C143.211 13.384 143.155 13.968 143.043 14.528C142.755 16.16 142.131 17.616 141.171 18.896C140.227 20.176 139.019 21.184 137.547 21.92C136.091 22.64 134.475 23 132.699 23H126.003L129.003 6.08H135.699ZM133.083 18.872C134.459 18.872 135.603 18.496 136.515 17.744C137.427 16.976 138.011 15.904 138.267 14.528C138.331 14.208 138.363 13.864 138.363 13.496C138.363 12.424 138.035 11.6 137.379 11.024C136.723 10.448 135.803 10.16 134.619 10.16H133.011L131.451 18.872H133.083Z" fill="#0C00FF"/>
<path d="M150.707 9.8L150.227 12.608H155.627L154.979 16.184H149.579L149.027 19.256H155.147L154.499 23H143.651L146.651 6.08H157.475L156.827 9.8H150.707Z" fill="#0C00FF"/>
<path d="M169.332 6.08L166.356 23H161.628L164.628 6.08H169.332Z" fill="#0C00FF"/>
<path d="M184.707 23H179.979L175.419 13.544L173.739 23H169.011L172.011 6.08H176.715L181.299 15.656L182.979 6.08H187.683L184.707 23Z" fill="#0C00FF"/>
<path d="M201.834 6.08L201.186 9.824H194.418L193.89 12.8H198.858L198.234 16.376H193.266L192.09 23H187.362L190.362 6.08H201.834Z" fill="#0C00FF"/>
<path d="M208.999 23.168C207.575 23.168 206.319 22.872 205.231 22.28C204.143 21.688 203.303 20.856 202.711 19.784C202.119 18.712 201.823 17.48 201.823 16.088C201.823 14.088 202.239 12.312 203.071 10.76C203.919 9.192 205.095 7.976 206.599 7.112C208.119 6.248 209.855 5.816 211.807 5.816C213.263 5.816 214.535 6.112 215.623 6.704C216.727 7.28 217.575 8.104 218.167 9.176C218.759 10.232 219.055 11.456 219.055 12.848C219.055 14.832 218.631 16.608 217.783 18.176C216.935 19.744 215.751 20.968 214.231 21.848C212.711 22.728 210.967 23.168 208.999 23.168ZM209.719 18.8C210.663 18.8 211.487 18.552 212.191 18.056C212.911 17.56 213.455 16.904 213.823 16.088C214.207 15.256 214.399 14.36 214.399 13.4C214.399 12.376 214.119 11.584 213.559 11.024C213.015 10.448 212.231 10.16 211.207 10.16C210.263 10.16 209.431 10.408 208.711 10.904C207.991 11.384 207.439 12.032 207.055 12.848C206.671 13.664 206.479 14.56 206.479 15.536C206.479 16.544 206.759 17.344 207.319 17.936C207.879 18.512 208.679 18.8 209.719 18.8Z" fill="#0C00FF"/>
<path d="M230.122 6.08C231.898 6.08 233.25 6.48 234.178 7.28C235.106 8.064 235.57 9.112 235.57 10.424C235.57 10.824 235.538 11.184 235.474 11.504C235.282 12.656 234.794 13.672 234.01 14.552C233.226 15.416 232.186 16.032 230.89 16.4L233.53 23H228.298L226.042 16.76H225.538L224.434 23H219.706L222.706 6.08H230.122ZM226.114 13.544H228.442C229.69 13.544 230.426 12.952 230.65 11.768C230.682 11.576 230.698 11.44 230.698 11.36C230.698 10.928 230.554 10.592 230.266 10.352C229.994 10.112 229.586 9.992 229.042 9.992H226.714L226.114 13.544Z" fill="#0C00FF"/>
<path d="M258.325 6.08L255.325 23H250.645L252.301 13.64L247.429 23H243.493L241.957 13.592L240.301 23H235.573L238.573 6.08H244.261L246.589 17.048L252.661 6.08H258.325Z" fill="#0C00FF"/>
<path d="M269.211 20.24H263.211L261.819 23H256.875L266.019 6.08H271.443L274.611 23H269.643L269.211 20.24ZM268.659 16.664L267.819 11.168L265.035 16.664H268.659Z" fill="#0C00FF"/>
<path d="M284.664 18.776C285.368 18.776 286.016 18.608 286.608 18.272C287.216 17.936 287.72 17.456 288.12 16.832H293.208C292.536 18.512 291.52 19.896 290.16 20.984C288.8 22.072 287.24 22.744 285.48 23L285.312 23.888C286.016 23.888 286.632 24.072 287.16 24.44C287.704 24.808 287.976 25.368 287.976 26.12C287.976 26.376 287.96 26.576 287.928 26.72C287.752 27.696 287.28 28.416 286.512 28.88C285.744 29.344 284.888 29.576 283.944 29.576H280.032L280.464 27.104H283.848C284.088 27.104 284.288 27.056 284.448 26.96C284.608 26.88 284.696 26.76 284.712 26.6C284.776 26.264 284.544 26.096 284.016 26.096H282.144L282.696 23.048C280.872 22.808 279.448 22.096 278.424 20.912C277.4 19.712 276.888 18.192 276.888 16.352C276.888 15.728 276.944 15.112 277.056 14.504C277.344 12.84 277.952 11.36 278.88 10.064C279.808 8.752 280.976 7.736 282.384 7.016C283.792 6.28 285.328 5.912 286.992 5.912C288.384 5.912 289.6 6.168 290.64 6.68C291.68 7.192 292.488 7.92 293.064 8.864C293.64 9.808 293.952 10.92 294 12.2H288.936C288.744 11.576 288.408 11.096 287.928 10.76C287.448 10.424 286.856 10.256 286.152 10.256C285.064 10.256 284.128 10.64 283.344 11.408C282.56 12.176 282.056 13.208 281.832 14.504C281.768 14.84 281.736 15.2 281.736 15.584C281.736 16.576 281.992 17.36 282.504 17.936C283.032 18.496 283.752 18.776 284.664 18.776Z" fill="#0C00FF"/>
<path d="M305.516 20.24H299.516L298.124 23H293.18L302.323 6.08H307.747L310.915 23H305.947L305.516 20.24ZM304.964 16.664L304.124 11.168L301.34 16.664H304.964ZM300.043 4.808C300.923 2.216 302.347 0.919998 304.315 0.919998C304.667 0.919998 304.979 0.975998 305.251 1.088C305.539 1.184 305.859 1.336 306.211 1.544C306.483 1.704 306.699 1.824 306.859 1.904C307.035 1.968 307.219 2 307.411 2C308.003 2 308.419 1.64 308.659 0.919998H311.035C310.139 3.496 308.715 4.784 306.763 4.784C306.411 4.784 306.099 4.736 305.827 4.64C305.555 4.528 305.228 4.368 304.844 4.16C304.572 4 304.347 3.888 304.171 3.824C304.011 3.744 303.835 3.704 303.643 3.704C303.067 3.704 302.652 4.072 302.396 4.808H300.043Z" fill="#0C00FF"/>
<path d="M320.609 23.168C319.185 23.168 317.929 22.872 316.841 22.28C315.753 21.688 314.913 20.856 314.321 19.784C313.729 18.712 313.433 17.48 313.433 16.088C313.433 14.088 313.849 12.312 314.681 10.76C315.529 9.192 316.705 7.976 318.209 7.112C319.729 6.248 321.465 5.816 323.417 5.816C324.873 5.816 326.145 6.112 327.233 6.704C328.337 7.28 329.185 8.104 329.777 9.176C330.369 10.232 330.665 11.456 330.665 12.848C330.665 14.832 330.241 16.608 329.393 18.176C328.545 19.744 327.361 20.968 325.841 21.848C324.321 22.728 322.577 23.168 320.609 23.168ZM321.329 18.8C322.273 18.8 323.097 18.552 323.801 18.056C324.521 17.56 325.065 16.904 325.433 16.088C325.817 15.256 326.009 14.36 326.009 13.4C326.009 12.376 325.729 11.584 325.169 11.024C324.625 10.448 323.841 10.16 322.817 10.16C321.873 10.16 321.041 10.408 320.321 10.904C319.601 11.384 319.049 12.032 318.665 12.848C318.281 13.664 318.089 14.56 318.089 15.536C318.089 16.544 318.369 17.344 318.929 17.936C319.489 18.512 320.289 18.8 321.329 18.8Z" fill="#0C00FF"/>
</svg>
