<svg width="32" height="32" viewBox="0 0 32 32" fill="none" xmlns="http://www.w3.org/2000/svg">
<mask id="mask0_613_15" style="mask-type:luminance" maskUnits="userSpaceOnUse" x="0" y="0" width="32" height="32">
<path d="M32 0H0V32H32V0Z" fill="white"/>
</mask>
<g mask="url(#mask0_613_15)">
<mask id="mask1_613_15" style="mask-type:luminance" maskUnits="userSpaceOnUse" x="2" y="6" width="28" height="20">
<path d="M30 6H2V25.0909H30V6Z" fill="white"/>
</mask>
<g mask="url(#mask1_613_15)">
<path d="M8.08301 22.4508H23.7622L23.8455 24.503H8.19365L8.08301 22.4508Z" fill="#9536F5"/>
<path d="M8.15023 13.7852C8.55849 12.8105 8.94362 11.8899 9.33015 10.9692C9.40091 10.8007 9.46455 10.6276 9.54868 10.4663C9.72304 10.1306 10.0506 10.0492 10.3063 10.3089C10.8021 10.8131 11.281 11.336 11.7544 11.8648C11.9512 12.0843 11.9392 12.3506 11.7404 12.5613C11.5373 12.7766 11.2852 12.7684 11.0842 12.5584C10.7789 12.2397 10.4989 11.8943 10.1572 11.5031C9.74684 12.4837 9.37711 13.3586 9.01999 14.2378C8.99479 14.2999 9.03679 14.4404 9.09062 14.4825C9.72584 14.9809 10.3693 15.4676 11.0514 15.9889C11.3041 15.5629 11.5451 15.1637 11.7789 14.7599C12.6059 13.3319 13.4265 11.8988 14.2613 10.4752C14.3936 10.2497 14.3824 10.1069 14.2234 9.89919C13.4707 8.91715 13.5709 7.52462 14.4371 6.65201C15.2745 5.80825 16.6155 5.78014 17.5019 6.58768C18.3913 7.39744 18.5551 8.82539 17.8318 9.82219C17.6203 10.1136 17.6309 10.3 17.808 10.5891C18.2765 11.353 18.7121 12.1391 19.1882 12.9637C19.2967 12.8587 19.3891 12.7766 19.4731 12.6863C20.1532 11.9572 20.831 11.2265 21.5101 10.4967C21.9878 9.98268 22.2959 10.0463 22.5739 10.7133C22.9492 11.6141 23.3245 12.5155 23.7013 13.4155C23.7475 13.5257 23.8021 13.6321 23.8686 13.7749C24.5065 13.286 25.1248 12.8261 25.7208 12.3372C25.8006 12.2714 25.809 12.0488 25.7852 11.9114C25.5871 10.7503 26.2516 9.61664 27.3208 9.3187C28.423 9.01108 29.5533 9.6706 29.9012 10.8236C30.3613 12.3513 29.1526 13.9065 27.6555 13.7149C27.3699 13.6787 27.2039 13.5226 27.2053 13.2107C27.2074 12.8949 27.3881 12.7477 27.6675 12.7152C27.8523 12.6937 28.0462 12.7152 28.2214 12.6605C28.7956 12.4837 29.1442 11.847 29.0204 11.2428C28.8971 10.6416 28.3446 10.1979 27.7928 10.2563C27.1626 10.3229 26.7117 10.8331 26.7075 11.4854C26.7075 11.5467 26.7005 11.6125 26.7173 11.6695C26.8391 12.0755 26.7579 12.4282 26.7585 12.4401C26.7725 12.957 25.9252 13.5686 25.8349 13.6336C25.3623 13.9752 22.1824 16.3084 21.3933 16.9783C21.2889 17.0672 20.999 17.3193 20.7105 17.2417C20.4731 17.178 20.3513 16.9185 20.3016 16.8334C19.177 14.8893 18.0524 12.9444 16.9313 10.9981C16.5231 10.2897 16.5469 9.95531 17.0308 9.29057C17.5209 8.61615 17.4019 7.7302 16.7205 7.22956C16.2941 6.91601 15.7213 6.91232 15.292 7.22143C14.6009 7.71912 14.4819 8.61831 14.9804 9.29273C15.4587 9.94055 15.4761 10.2978 15.07 11.0017C13.9412 12.957 12.8132 14.913 11.6865 16.8697C11.6403 16.9496 11.5141 17.1662 11.2866 17.2349C10.9449 17.3378 10.5891 17.042 10.4513 16.9288C9.09558 15.8211 6.8877 14.0167 5.98228 13.4184C5.82051 13.3112 5.44239 13.0723 5.29604 12.6205C5.1945 12.3055 5.1784 12.1664 5.26522 11.7723C5.40947 11.1164 5.05865 10.4907 4.48514 10.3096C3.90044 10.1247 3.30034 10.4146 3.06155 10.9959C2.81997 11.5838 3.01953 12.2493 3.56293 12.551C3.74919 12.6545 3.98308 12.6952 4.19735 12.7026C4.93401 12.7285 5.21481 12.9237 5.4774 13.6595C6.40942 16.2744 7.34705 18.8871 8.26297 21.5079C8.38133 21.8458 8.53889 21.9405 8.86662 21.9389C11.5751 21.9249 14.283 21.9308 16.9916 21.9308C17.0966 21.9308 17.203 21.9226 17.3059 21.9374C17.5923 21.9789 17.7338 22.1712 17.7485 22.4647C17.7632 22.7523 17.5783 22.8878 17.3515 22.9499C17.2198 22.9861 17.0734 22.9698 16.9334 22.9698C14.3068 22.9706 11.6801 22.9683 9.05358 22.9749C8.90366 22.9749 8.63066 23.0267 8.62429 23.0815C8.58993 23.3802 8.60749 23.6893 8.64529 23.9903C8.65026 24.0287 8.87426 24.0561 8.99618 24.0561C12.907 24.0584 16.8172 24.0569 20.7281 24.0561C21.4871 24.0561 22.2454 24.0569 23.0046 24.0553C23.1292 24.0553 23.2545 24.0429 23.3707 24.0361C23.4659 23.5022 23.4155 23.1117 23.4135 23.0675C23.4135 23.0675 23.4001 23.0209 22.98 23.0054C22.3967 22.9838 21.4423 22.978 20.859 22.9668C20.4927 22.9602 20.2778 22.7635 20.2764 22.4691C20.2757 22.1482 20.4977 21.9426 20.8597 21.9308C20.9178 21.9286 20.9766 21.9308 21.0348 21.9308C21.7238 21.9308 22.4135 21.9013 23.1004 21.9419C23.4905 21.9648 23.6425 21.8021 23.7678 21.4427C24.5535 19.1902 25.3595 16.9459 26.1592 14.6985C26.1794 14.6409 26.2004 14.5838 26.2242 14.5277C26.337 14.2578 26.5233 14.1136 26.8069 14.1964C27.0778 14.2755 27.2074 14.5617 27.1136 14.8811C27.0344 15.1511 26.9301 15.4121 26.8349 15.6769C26.0738 17.8059 25.3062 19.932 24.5583 22.0661C24.4561 22.3575 24.4197 22.6844 24.4036 22.9972C24.3784 23.489 24.4022 23.9829 24.3959 24.4761C24.3903 24.8976 24.2174 25.0752 23.8168 25.0899C23.7587 25.0921 23.6999 25.0899 23.6417 25.0899H8.37293C7.73289 25.0899 7.56622 24.9576 7.61525 24.3045C7.70768 23.057 7.43459 21.91 6.99693 20.758C6.16434 18.5661 5.40597 16.3431 4.62939 14.1276C4.52717 13.8362 4.41092 13.7091 4.08742 13.7113C2.88368 13.7194 1.92295 12.6064 2.00488 11.3449C2.0861 10.0929 3.1862 9.10055 4.32269 9.25429C5.61535 9.42879 6.46404 10.6091 6.20845 11.9135C6.16574 12.1309 6.25467 12.3529 6.42833 12.4785C6.99483 12.8889 7.54593 13.3231 8.15023 13.7838V13.7852ZM21.9212 11.6703C21.2168 12.3721 20.5355 13.0435 19.8667 13.7283C19.81 13.7867 19.7932 13.9657 19.8352 14.0418C20.1896 14.6888 20.5621 15.3248 20.9493 16C21.6299 15.4795 22.2812 14.9861 22.9247 14.4804C22.9912 14.4278 23.0192 14.3191 22.9864 14.2385C22.6299 13.3586 22.2609 12.4845 21.9212 11.6703Z" fill="#3228FA"/>
<path d="M18.0223 17.7136C17.9586 17.8541 17.911 17.9939 17.8374 18.1159C17.3935 18.8532 16.9474 19.589 16.4951 20.3203C16.1821 20.8262 15.8278 20.8313 15.5196 20.3336C15.0603 19.5919 14.6128 18.8421 14.1521 18.1012C13.9854 17.8334 13.9735 17.5938 14.1457 17.3187C14.6149 16.5696 15.0652 15.8072 15.5294 15.0544C15.8138 14.5944 16.1863 14.5855 16.4671 15.0373C16.9404 15.7983 17.4047 16.5666 17.8668 17.3357C17.9334 17.4466 17.9677 17.5791 18.0223 17.7136ZM16.0098 16.2495C15.7128 16.7219 15.4447 17.1316 15.1982 17.5554C15.1583 17.6241 15.1877 17.7728 15.2325 17.8556C15.4097 18.1854 15.6078 18.5027 15.7948 18.8266C15.9348 19.0691 16.0714 19.0019 16.1925 18.8169C16.3837 18.5256 16.5749 18.2328 16.7464 17.9273C16.799 17.8341 16.8368 17.67 16.794 17.5908C16.556 17.1494 16.2913 16.7242 16.0098 16.2495Z" fill="#3228FA"/>
<path d="M19.0027 22.9684C18.6119 22.9729 18.3816 22.8006 18.3718 22.4966C18.3606 22.1424 18.5693 21.942 18.9572 21.9346C19.3577 21.9264 19.5747 22.104 19.5859 22.4471C19.5965 22.7687 19.378 22.964 19.0027 22.9684Z" fill="#3228FA"/>
<path d="M16.0098 16.2494C16.2913 16.7242 16.5561 17.1495 16.7941 17.5916C16.8368 17.6708 16.799 17.8357 16.7465 17.9281C16.5749 18.2328 16.3845 18.5257 16.1926 18.8178C16.0708 19.0033 15.9349 19.0699 15.7949 18.8273C15.6079 18.5034 15.4097 18.1862 15.2326 17.8563C15.1878 17.7728 15.1584 17.625 15.1982 17.5561C15.4447 17.1324 15.7129 16.7212 16.0098 16.2494Z" fill="#9536F5"/>
</g>
</g>
</svg>
