<svg width="32" height="32" viewBox="0 0 32 32" fill="none" xmlns="http://www.w3.org/2000/svg">
<g clip-path="url(#clip0_613_2)">
<mask id="mask0_613_2" style="mask-type:luminance" maskUnits="userSpaceOnUse" x="0" y="0" width="32" height="32">
<path d="M32 0H0V32H32V0Z" fill="white"/>
</mask>
<g mask="url(#mask0_613_2)">
<mask id="mask1_613_2" style="mask-type:luminance" maskUnits="userSpaceOnUse" x="4" y="8" width="24" height="17">
<path d="M28 8H4V24.3636H28V8Z" fill="white"/>
</mask>
<g mask="url(#mask1_613_2)">
<path d="M9.21399 22.1007H22.6533L22.7247 23.8597H9.30882L9.21399 22.1007Z" fill="#9536F5"/>
<path d="M9.27162 14.673C9.62157 13.8376 9.95168 13.0485 10.283 12.2593C10.3436 12.1149 10.3982 11.9665 10.4703 11.8283C10.6197 11.5405 10.9005 11.4708 11.1197 11.6933C11.5446 12.1256 11.9551 12.5737 12.3609 13.027C12.5296 13.2152 12.5193 13.4434 12.3489 13.624C12.1748 13.8085 11.9587 13.8015 11.7865 13.6215C11.5248 13.3484 11.2848 13.0523 10.9919 12.7169C10.6401 13.5575 10.3232 14.3074 10.0171 15.061C9.99553 15.1142 10.0315 15.2346 10.0777 15.2708C10.6221 15.698 11.1737 16.1151 11.7583 16.562C11.975 16.1968 12.1815 15.8546 12.3819 15.5085C13.0908 14.2845 13.7942 13.0561 14.5097 11.8359C14.6231 11.6426 14.6135 11.5202 14.4772 11.3422C13.832 10.5004 13.9179 9.30683 14.6604 8.55889C15.3782 7.83566 16.5276 7.81157 17.2874 8.50374C18.0497 9.19782 18.1901 10.4218 17.5701 11.2762C17.3888 11.526 17.3979 11.6857 17.5497 11.9336C17.9513 12.5883 18.3246 13.2621 18.7327 13.9689C18.8258 13.8789 18.905 13.8085 18.977 13.7312C19.5599 13.1062 20.1409 12.4799 20.723 11.8544C21.1324 11.4137 21.3965 11.4683 21.6348 12.04C21.9565 12.8121 22.2782 13.5848 22.6011 14.3561C22.6407 14.4506 22.6875 14.5418 22.7445 14.6642C23.2913 14.2452 23.8213 13.8509 24.3321 13.4319C24.4005 13.3755 24.4077 13.1847 24.3873 13.0669C24.2175 12.0717 24.7871 11.1 25.7035 10.8446C26.6483 10.5809 27.6171 11.1462 27.9153 12.1345C28.3097 13.444 27.2737 14.777 25.9904 14.6128C25.7456 14.5817 25.6034 14.448 25.6046 14.1806C25.6063 13.91 25.7612 13.7837 26.0007 13.7559C26.1591 13.7375 26.3253 13.7559 26.4755 13.709C26.9677 13.5575 27.2665 13.0117 27.1603 12.4938C27.0546 11.9785 26.5811 11.5982 26.1081 11.6483C25.5679 11.7053 25.1814 12.1427 25.1778 12.7018C25.1778 12.7544 25.1718 12.8108 25.1862 12.8596C25.2906 13.2076 25.221 13.5099 25.2216 13.5201C25.2336 13.9632 24.5073 14.4874 24.4299 14.5431C24.0248 14.8359 21.2992 16.8358 20.6228 17.41C20.5334 17.4862 20.2849 17.7023 20.0376 17.6357C19.8341 17.5812 19.7297 17.3588 19.6871 17.2858C18.7231 15.6194 17.7592 13.9524 16.7982 12.2841C16.4484 11.6769 16.4688 11.3903 16.8835 10.8205C17.3036 10.2424 17.2016 9.48305 16.6176 9.05393C16.2521 8.78517 15.7611 8.78201 15.3931 9.04696C14.8008 9.47355 14.6988 10.2443 15.1261 10.8224C15.536 11.3776 15.551 11.6838 15.2029 12.2872C14.2353 13.9632 13.2685 15.6397 12.3027 17.3169C12.2631 17.3854 12.155 17.571 11.9599 17.63C11.667 17.7181 11.3621 17.4646 11.244 17.3676C10.0819 16.4181 8.18945 14.8715 7.41338 14.3586C7.27473 14.2668 6.95062 14.062 6.82517 13.6748C6.73814 13.4048 6.72434 13.2855 6.79876 12.9477C6.92241 12.3855 6.6217 11.8492 6.13012 11.694C5.62895 11.5355 5.11457 11.784 4.9099 12.2822C4.70283 12.7861 4.87389 13.3565 5.33965 13.6152C5.4993 13.7039 5.69978 13.7388 5.88345 13.7451C6.51486 13.7673 6.75555 13.9346 6.98063 14.5653C7.7795 16.8066 8.58318 19.0461 9.36826 21.2925C9.46971 21.5821 9.60477 21.6633 9.88568 21.662C12.2072 21.65 14.5283 21.655 16.8499 21.655C16.9399 21.655 17.0311 21.648 17.1194 21.6607C17.3648 21.6962 17.4861 21.861 17.4987 22.1126C17.5113 22.3592 17.3528 22.4752 17.1584 22.5285C17.0455 22.5596 16.9201 22.5456 16.8001 22.5456C14.5487 22.5462 12.2972 22.5443 10.0459 22.55C9.91742 22.55 9.68342 22.5944 9.67797 22.6413C9.64851 22.8973 9.66357 23.1623 9.69597 23.4203C9.70022 23.4532 9.89222 23.4767 9.99673 23.4767C13.3489 23.4787 16.7005 23.4773 20.0526 23.4767C20.7032 23.4767 21.3532 23.4773 22.0039 23.476C22.1107 23.476 22.2182 23.4653 22.3178 23.4596C22.3994 23.0019 22.3562 22.6672 22.3544 22.6293C22.3544 22.6293 22.343 22.5893 21.9829 22.576C21.4829 22.5576 20.6648 22.5526 20.1649 22.543C19.8509 22.5373 19.6667 22.3688 19.6655 22.1164C19.6649 21.8413 19.8552 21.6651 20.1654 21.655C20.2153 21.6531 20.2657 21.655 20.3155 21.655C20.9061 21.655 21.4973 21.6297 22.0861 21.6645C22.4204 21.6841 22.5507 21.5447 22.6581 21.2366C23.3316 19.3059 24.0224 17.3822 24.7079 15.4559C24.7252 15.4065 24.7432 15.3576 24.7636 15.3095C24.8603 15.0781 25.02 14.9545 25.263 15.0255C25.4953 15.0933 25.6063 15.3386 25.5259 15.6124C25.4581 15.8438 25.3686 16.0676 25.287 16.2945C24.6347 18.1193 23.9767 19.9417 23.3357 21.7709C23.2481 22.0208 23.2169 22.3009 23.2031 22.569C23.1815 22.9906 23.2019 23.414 23.1965 23.8367C23.1917 24.198 23.0435 24.3502 22.7001 24.3628C22.6503 24.3647 22.5999 24.3628 22.55 24.3628H9.46251C8.9139 24.3628 8.77105 24.2494 8.81307 23.6896C8.89229 22.6203 8.65822 21.6372 8.28309 20.6497C7.56944 18.7709 6.91941 16.8656 6.25377 14.9665C6.16614 14.7168 6.0665 14.6078 5.78921 14.6097C4.75744 14.6166 3.93396 13.6626 4.00418 12.5813C4.0738 11.5082 5.01674 10.6576 5.99088 10.7894C7.09887 10.939 7.82632 11.9507 7.60725 13.0688C7.57064 13.2551 7.64686 13.4453 7.79571 13.553C8.28129 13.9048 8.75365 14.2769 9.27162 14.6718V14.673ZM21.0753 12.8603C20.4715 13.4618 19.8876 14.0373 19.3143 14.6243C19.2657 14.6744 19.2513 14.8277 19.2873 14.893C19.5911 15.4476 19.9104 15.9927 20.2422 16.5714C20.8256 16.1253 21.3839 15.7024 21.9354 15.2689C21.9925 15.2238 22.0165 15.1307 21.9883 15.0616C21.6828 14.3074 21.3665 13.5581 21.0753 12.8603Z" fill="#3228FA"/>
<path d="M17.7334 18.0402C17.6788 18.1607 17.638 18.2805 17.5749 18.3851C17.1944 19.017 16.812 19.6477 16.4243 20.2745C16.1561 20.7082 15.8524 20.7125 15.5882 20.286C15.1945 19.6502 14.811 19.0075 14.4161 18.3724C14.2732 18.1429 14.263 17.9376 14.4106 17.7017C14.8127 17.0596 15.1987 16.4062 15.5966 15.7609C15.8404 15.3666 16.1597 15.359 16.4003 15.7463C16.806 16.3985 17.204 17.0571 17.6001 17.7163C17.6572 17.8114 17.6866 17.9249 17.7334 18.0402ZM16.0084 16.7853C15.7538 17.1902 15.524 17.5414 15.3127 17.9046C15.2785 17.9635 15.3037 18.091 15.3421 18.162C15.494 18.4446 15.6638 18.7166 15.8241 18.9942C15.9441 19.2021 16.0612 19.1445 16.165 18.9859C16.3289 18.7362 16.4927 18.4852 16.6398 18.2234C16.6848 18.1435 16.7172 18.0028 16.6806 17.935C16.4766 17.5566 16.2497 17.1922 16.0084 16.7853Z" fill="#3228FA"/>
<path d="M18.5737 22.5444C18.2388 22.5482 18.0414 22.4005 18.033 22.14C18.0234 21.8364 18.2023 21.6646 18.5348 21.6582C18.8781 21.6513 19.0641 21.8035 19.0737 22.0976C19.0827 22.3732 18.8954 22.5406 18.5737 22.5444Z" fill="#3228FA"/>
<path d="M16.0084 16.7852C16.2497 17.1922 16.4766 17.5567 16.6806 17.9357C16.7172 18.0035 16.6849 18.1449 16.6398 18.2241C16.4927 18.4853 16.3295 18.7363 16.165 18.9867C16.0606 19.1457 15.9441 19.2028 15.8241 18.9949C15.6639 18.7172 15.494 18.4454 15.3422 18.1626C15.3038 18.091 15.2786 17.9643 15.3127 17.9053C15.524 17.5421 15.7539 17.1896 16.0084 16.7852Z" fill="#9536F5"/>
</g>
</g>
</g>
<defs>
<clipPath id="clip0_613_2">
<rect width="32" height="32" fill="white"/>
</clipPath>
</defs>
</svg>
