<svg width="32" height="32" viewBox="0 0 32 32" fill="none" xmlns="http://www.w3.org/2000/svg">
<g clip-path="url(#clip0_4_24)">
<g clip-path="url(#clip1_4_24)">
<path d="M9.77951 20.9257H22.0989L22.1643 22.5381H9.86644L9.77951 20.9257Z" fill="#9536F5"/>
<path d="M9.83232 14.117C10.1531 13.3512 10.4557 12.6278 10.7594 11.9044C10.815 11.772 10.865 11.636 10.9311 11.5093C11.0681 11.2455 11.3255 11.1816 11.5264 11.3856C11.9159 11.7818 12.2922 12.1926 12.6642 12.6081C12.8188 12.7806 12.8094 12.9898 12.6532 13.1554C12.4936 13.3245 12.2955 13.3181 12.1376 13.1531C11.8977 12.9027 11.6777 12.6313 11.4092 12.3239C11.0868 13.0944 10.7963 13.7818 10.5157 14.4726C10.4959 14.5214 10.5289 14.6318 10.5712 14.6649C11.0703 15.0565 11.5759 15.4389 12.1118 15.8485C12.3104 15.5138 12.4997 15.2001 12.6834 14.8828C13.3332 13.7608 13.978 12.6348 14.6339 11.5163C14.7378 11.3391 14.729 11.2269 14.6041 11.0637C14.0127 10.2921 14.0914 9.19797 14.772 8.51235C15.43 7.84939 16.4836 7.82731 17.1801 8.4618C17.8789 9.09804 18.0076 10.22 17.4393 11.0032C17.2731 11.2322 17.2814 11.3786 17.4206 11.6058C17.7887 12.206 18.1309 12.8236 18.505 13.4715C18.5903 13.389 18.6629 13.3245 18.7289 13.2536C19.2632 12.6807 19.7958 12.1066 20.3294 11.5332C20.7047 11.1293 20.9468 11.1793 21.1652 11.7034C21.4601 12.4111 21.755 13.1194 22.051 13.8265C22.0873 13.9131 22.1302 13.9967 22.1825 14.1089C22.6837 13.7248 23.1695 13.3634 23.6378 12.9793C23.7005 12.9276 23.7071 12.7527 23.6884 12.6447C23.5327 11.7324 24.0548 10.8417 24.8949 10.6076C25.7609 10.3659 26.649 10.8841 26.9224 11.79C27.2839 12.9904 26.3342 14.2123 25.1579 14.0618C24.9335 14.0333 24.8031 13.9107 24.8042 13.6656C24.8058 13.4175 24.9478 13.3018 25.1673 13.2763C25.3125 13.2594 25.4649 13.2763 25.6025 13.2333C26.0537 13.0944 26.3276 12.5941 26.2303 12.1194C26.1334 11.647 25.6993 11.2984 25.2658 11.3443C24.7706 11.3966 24.4163 11.7975 24.413 12.31C24.413 12.3582 24.4075 12.4099 24.4207 12.4547C24.5164 12.7737 24.4526 13.0508 24.4531 13.0601C24.4641 13.4663 23.7984 13.9468 23.7274 13.9979C23.3561 14.2663 20.8576 16.0995 20.2376 16.6259C20.1556 16.6957 19.9278 16.8938 19.7011 16.8328C19.5146 16.7828 19.4189 16.5789 19.3798 16.512C18.4962 14.9845 17.6126 13.4564 16.7317 11.9271C16.411 11.3705 16.4297 11.1078 16.8099 10.5855C17.195 10.0556 17.1015 9.3595 16.5661 8.96614C16.2311 8.71978 15.781 8.71688 15.4437 8.95975C14.9007 9.35079 14.8072 10.0573 15.1989 10.5872C15.5747 11.0962 15.5884 11.3769 15.2693 11.93C14.3824 13.4663 13.4961 15.0031 12.6108 16.5405C12.5745 16.6033 12.4754 16.7735 12.2966 16.8275C12.0281 16.9083 11.7486 16.6759 11.6403 16.587C10.5751 15.7166 8.84033 14.2989 8.12893 13.8288C8.00183 13.7446 7.70473 13.5569 7.58974 13.2019C7.50996 12.9544 7.49731 12.8451 7.56553 12.5354C7.67887 12.0201 7.40322 11.5285 6.95261 11.3862C6.4932 11.2409 6.02169 11.4687 5.83407 11.9254C5.64426 12.3873 5.80106 12.9102 6.22801 13.1473C6.37436 13.2286 6.55813 13.2606 6.72649 13.2664C7.30529 13.2867 7.52592 13.4401 7.73224 14.0182C8.46454 16.0728 9.20125 18.1256 9.9209 20.1848C10.0139 20.4503 10.1377 20.5247 10.3952 20.5235C12.5233 20.5125 14.6509 20.5171 16.7791 20.5171C16.8616 20.5171 16.9452 20.5107 17.0261 20.5223C17.2511 20.5549 17.3623 20.706 17.3738 20.9366C17.3854 21.1626 17.2401 21.269 17.0619 21.3178C16.9584 21.3463 16.8434 21.3335 16.7334 21.3335C14.6696 21.3341 12.6058 21.3323 10.5421 21.3375C10.4243 21.3375 10.2098 21.3782 10.2048 21.4212C10.1778 21.6559 10.1916 21.8988 10.2213 22.1353C10.2252 22.1655 10.4012 22.187 10.497 22.187C13.5698 22.1888 16.6421 22.1876 19.7149 22.187C20.3113 22.187 20.9071 22.1876 21.5036 22.1864C21.6015 22.1864 21.7 22.1766 21.7913 22.1713C21.8661 21.7518 21.8265 21.445 21.8249 21.4102C21.8249 21.4102 21.8144 21.3736 21.4843 21.3614C21.026 21.3445 20.2761 21.3399 19.8178 21.3311C19.53 21.3259 19.3611 21.1714 19.36 20.9401C19.3595 20.6879 19.5339 20.5264 19.8183 20.5171C19.864 20.5154 19.9102 20.5171 19.9559 20.5171C20.4973 20.5171 21.0392 20.4939 21.5789 20.5258C21.8854 20.5438 22.0048 20.416 22.1033 20.1336C22.7206 18.3638 23.3539 16.6004 23.9822 14.8346C23.9981 14.7893 24.0146 14.7445 24.0333 14.7004C24.1219 14.4883 24.2683 14.375 24.4911 14.4401C24.704 14.5022 24.8058 14.7271 24.7321 14.9781C24.6699 15.1902 24.5879 15.3953 24.5131 15.6033C23.9151 17.2761 23.312 18.9466 22.7244 20.6234C22.6441 20.8524 22.6155 21.1092 22.6028 21.355C22.583 21.7414 22.6017 22.1295 22.5968 22.517C22.5924 22.8482 22.4565 22.9877 22.1418 22.9993C22.0961 23.001 22.0499 22.9993 22.0042 22.9993H10.0073C9.50441 22.9993 9.37346 22.8953 9.41198 22.3822C9.4846 21.402 9.27003 20.5008 8.92616 19.5956C8.27198 17.8734 7.67612 16.1268 7.06595 14.386C6.98563 14.1571 6.89429 14.0572 6.64011 14.0589C5.69432 14.0653 4.93946 13.1908 5.00383 12.1996C5.06765 11.2159 5.93201 10.4362 6.82497 10.557C7.84063 10.6941 8.50746 11.6215 8.30664 12.6464C8.27308 12.8172 8.34295 12.9916 8.4794 13.0903C8.92451 13.4128 9.35751 13.7539 9.83232 14.1159V14.117ZM20.6524 12.4553C20.0989 13.0067 19.5636 13.5342 19.0381 14.0723C18.9936 14.1182 18.9804 14.2588 19.0134 14.3186C19.2918 14.827 19.5845 15.3267 19.8887 15.8572C20.4235 15.4482 20.9352 15.0606 21.4408 14.6632C21.4931 14.6219 21.5151 14.5365 21.4893 14.4732C21.2092 13.7818 20.9193 13.0944 20.6524 12.4547V12.4553Z" fill="#3228FA"/>
<path d="M17.589 17.2036C17.5389 17.314 17.5015 17.4238 17.4437 17.5197C17.0949 18.099 16.7444 18.6771 16.389 19.2517C16.1431 19.6492 15.8647 19.6532 15.6226 19.2622C15.2617 18.6794 14.9101 18.0903 14.5481 17.5081C14.4171 17.2977 14.4078 17.1095 14.5431 16.8933C14.9117 16.3047 15.2655 15.7057 15.6303 15.1142C15.8537 14.7528 16.1464 14.7458 16.367 15.1008C16.7389 15.6987 17.1037 16.3024 17.4668 16.9067C17.5191 16.9938 17.5461 17.0979 17.589 17.2036ZM16.0077 16.0532C15.7744 16.4244 15.5637 16.7463 15.37 17.0793C15.3387 17.1333 15.3618 17.2501 15.397 17.3152C15.5362 17.5743 15.6919 17.8236 15.8388 18.0781C15.9488 18.2686 16.0561 18.2158 16.1513 18.0705C16.3015 17.8416 16.4517 17.6115 16.5865 17.3715C16.6278 17.2983 16.6575 17.1693 16.6239 17.1071C16.4369 16.7603 16.2289 16.4256 16.0077 16.0526V16.0532Z" fill="#3228FA"/>
<path d="M18.3592 21.3324C18.0522 21.3359 17.8712 21.2005 17.8635 20.9617C17.8547 20.6834 18.0187 20.5259 18.3235 20.5201C18.6382 20.5137 18.8087 20.6532 18.8175 20.9228C18.8258 21.1755 18.6536 21.3295 18.3587 21.333L18.3592 21.3324Z" fill="#3228FA"/>
<path d="M16.0077 16.0531C16.2289 16.4262 16.4369 16.7603 16.6239 17.1077C16.6575 17.1699 16.6278 17.2995 16.5865 17.3721C16.4517 17.6115 16.3021 17.8416 16.1513 18.0711C16.0556 18.2169 15.9488 18.2692 15.8388 18.0786C15.6919 17.8241 15.5362 17.5749 15.397 17.3157C15.3618 17.2501 15.3387 17.1339 15.37 17.0798C15.5637 16.7469 15.7744 16.4244 16.0077 16.0537V16.0531Z" fill="#9536F5"/>
</g>
</g>
<defs>
<clipPath id="clip0_4_24">
<rect width="32" height="32" fill="white"/>
</clipPath>
<clipPath id="clip1_4_24">
<rect width="22" height="15" fill="white" transform="translate(5 8)"/>
</clipPath>
</defs>
</svg>
