<svg width="102" height="102" viewBox="0 0 102 102" fill="none" xmlns="http://www.w3.org/2000/svg">
<path d="M77.5625 1H24.4375C11.4933 1 1 11.4933 1 24.4375V77.5625C1 90.5067 11.4933 101 24.4375 101H77.5625C90.5067 101 101 90.5067 101 77.5625V24.4375C101 11.4933 90.5067 1 77.5625 1Z" fill="url(#paint0_linear_308_2067)"/>
<path d="M52.5508 77.6238C64.143 77.6238 71.1285 71.9477 71.1285 62.5859C71.1285 55.509 66.1445 50.3859 58.7434 49.5746V49.2801C64.1809 48.3953 68.4477 43.3457 68.4477 37.7066C68.4477 29.6716 62.1043 24.4375 52.4375 24.4375H30.6875V77.6238H52.5508ZM39.1458 31.1826H50.3984C56.5156 31.1826 59.9895 33.91 59.9895 38.849C59.9895 44.1199 55.9492 47.0684 48.6238 47.0684H39.1458V31.1826ZM39.1458 70.8789V53.3715H50.3227C58.3281 53.3715 62.4816 56.3199 62.4816 62.0699C62.4816 67.8195 58.4414 70.8789 50.8137 70.8789H39.1458Z" fill="url(#paint1_linear_308_2067)"/>
<path d="M77.5625 1H24.4375C11.4933 1 1 11.4933 1 24.4375V77.5625C1 90.5067 11.4933 101 24.4375 101H77.5625C90.5067 101 101 90.5067 101 77.5625V24.4375C101 11.4933 90.5067 1 77.5625 1Z" stroke="white" stroke-width="2"/>
<path d="M52.5508 77.6238C64.143 77.6238 71.1285 71.9477 71.1285 62.5859C71.1285 55.509 66.1445 50.3859 58.7434 49.5746V49.2801C64.1809 48.3953 68.4477 43.3457 68.4477 37.7066C68.4477 29.6716 62.1043 24.4375 52.4375 24.4375H30.6875V77.6238H52.5508ZM39.1458 31.1826H50.3984C56.5156 31.1826 59.9895 33.91 59.9895 38.849C59.9895 44.1199 55.9492 47.0684 48.6238 47.0684H39.1458V31.1826ZM39.1458 70.8789V53.3715H50.3227C58.3281 53.3715 62.4816 56.3199 62.4816 62.0699C62.4816 67.8195 58.4414 70.8789 50.8137 70.8789H39.1458Z" stroke="white" stroke-width="2"/>
<path d="M52.5508 77.6238C64.143 77.6238 71.1285 71.9477 71.1285 62.5859C71.1285 55.509 66.1445 50.3859 58.7434 49.5746V49.2801C64.1809 48.3953 68.4477 43.3457 68.4477 37.7066C68.4477 29.6716 62.1043 24.4375 52.4375 24.4375H30.6875V77.6238H52.5508ZM39.1458 31.1826H50.3984C56.5156 31.1826 59.9895 33.91 59.9895 38.849C59.9895 44.1199 55.9492 47.0684 48.6238 47.0684H39.1458V31.1826ZM39.1458 70.8789V53.3715H50.3227C58.3281 53.3715 62.4816 56.3199 62.4816 62.0699C62.4816 67.8195 58.4414 70.8789 50.8137 70.8789H39.1458Z" stroke="white" stroke-width="2"/>
<defs>
<linearGradient id="paint0_linear_308_2067" x1="1" y1="1" x2="101" y2="101" gradientUnits="userSpaceOnUse">
<stop stop-color="#9013FE"/>
<stop offset="1" stop-color="#6B11F4"/>
</linearGradient>
<linearGradient id="paint1_linear_308_2067" x1="10.4592" y1="7.58211" x2="49.7997" y2="95.0852" gradientUnits="userSpaceOnUse">
<stop stop-color="white"/>
<stop offset="1" stop-color="#F1E5FC"/>
</linearGradient>
</defs>
</svg>
