<svg width="84" height="55" viewBox="0 0 84 55" fill="none" xmlns="http://www.w3.org/2000/svg">
<path d="M18.2491 47.3942H65.2867L65.5366 53.3063H18.581L18.2491 47.3942Z" fill="#00D2DF"/>
<path d="M18.4508 22.4297C19.6755 19.6218 20.8309 16.9693 21.9905 14.3169C22.2027 13.8312 22.3939 13.3327 22.646 12.8682C23.1691 11.901 24.1522 11.6666 24.919 12.4144C26.4063 13.8674 27.8432 15.3736 29.2633 16.8969C29.8536 17.5297 29.8179 18.2966 29.2213 18.9038C28.6121 19.5238 27.8558 19.5003 27.2529 18.8953C26.337 17.9771 25.4967 16.9821 24.4715 15.8551C23.2405 18.6801 22.1313 21.2004 21.0599 23.7336C20.9843 23.9125 21.1103 24.3173 21.2721 24.4387C23.1775 25.8747 25.108 27.2765 27.1542 28.7785C27.9125 27.5514 28.6352 26.4009 29.3368 25.2377C31.8178 21.1238 34.2798 16.9949 36.7839 12.8938C37.181 12.244 37.1473 11.8328 36.6705 11.2341C34.4122 8.40489 34.7126 4.39323 37.3112 1.87929C39.8237 -0.551568 43.8466 -0.632526 46.5061 1.69394C49.1741 4.02679 49.6656 8.14072 47.4956 11.0126C46.8611 11.852 46.8927 12.3889 47.4241 13.2219C48.8295 15.4226 50.1362 17.6873 51.5647 20.0628C51.8903 19.7603 52.1676 19.5238 52.4197 19.2639C54.4595 17.1632 56.493 15.0583 58.5307 12.9556C59.9634 11.4749 60.8877 11.6581 61.7217 13.5798C62.8477 16.1747 63.9737 18.7717 65.1039 21.3645C65.2426 21.6819 65.4064 21.9887 65.606 22.3999C67.5198 20.9917 69.3747 19.6665 71.1624 18.2583C71.4019 18.0687 71.4271 17.4274 71.3557 17.0311C70.7612 13.6863 72.7548 10.4203 75.9626 9.56174C79.2692 8.67546 82.6598 10.5758 83.7038 13.8972C85.084 18.2988 81.4581 22.7791 76.9668 22.2273C76.1097 22.1229 75.6118 21.6734 75.616 20.7744C75.6223 19.8646 76.1643 19.4407 77.0025 19.3469C77.5571 19.2852 78.139 19.3469 78.6642 19.1893C80.3868 18.6801 81.4329 16.8458 81.0611 15.1052C80.6914 13.3731 79.0339 12.0949 77.3785 12.2632C75.4879 12.4549 74.135 13.9249 74.1224 15.804C74.1224 15.9808 74.1014 16.1704 74.1518 16.3345C74.5173 17.5041 74.2736 18.5203 74.2757 18.5544C74.3177 20.0436 71.7759 21.8055 71.5049 21.993C70.0869 22.9773 60.5474 29.6989 58.1799 31.6291C57.8669 31.8847 56.9972 32.6112 56.1317 32.3875C55.4195 32.2043 55.054 31.4565 54.9049 31.2115C51.5311 25.6105 48.1573 20.0074 44.794 14.4C43.5693 12.359 43.6407 11.3961 45.0923 9.48078C46.5628 7.5378 46.2057 4.9855 44.1617 3.54318C42.8824 2.63986 41.164 2.62921 39.8762 3.51974C37.8028 4.95355 37.4457 7.54419 38.9414 9.48717C40.3762 11.3535 40.4287 12.3825 39.2103 14.4107C35.8239 20.0436 32.4396 25.6787 29.0595 31.3159C28.9209 31.546 28.5427 32.1702 27.86 32.3683C26.8348 32.6645 25.7677 31.8123 25.3538 31.4863C21.2868 28.2949 14.6632 23.0966 11.9469 21.373C11.4617 21.0641 10.3273 20.376 9.88821 19.0742C9.5836 18.1667 9.53529 17.7661 9.79578 16.6306C10.2285 14.7409 9.17606 12.9385 7.45556 12.4166C5.70145 11.8839 3.90112 12.7191 3.18476 14.3936C2.46001 16.0873 3.05872 18.0048 4.68889 18.874C5.24769 19.1722 5.94933 19.2894 6.59216 19.3107C8.80213 19.3853 9.64452 19.9477 10.4323 22.0675C13.2284 29.6009 16.0413 37.1278 18.789 44.6781C19.144 45.6518 19.6167 45.9245 20.5999 45.9202C28.7255 45.8797 36.849 45.8968 44.9747 45.8968C45.2898 45.8968 45.6091 45.8733 45.9179 45.9159C46.7771 46.0352 47.2015 46.5892 47.2456 47.435C47.2897 48.2637 46.7351 48.6536 46.0545 48.8325C45.6595 48.9369 45.2205 48.8901 44.8003 48.8901C36.9205 48.8922 29.0406 48.8858 21.1608 48.905C20.7112 48.905 19.8919 49.0541 19.873 49.2118C19.7701 50.0725 19.8226 50.963 19.936 51.8301C19.9507 51.9409 20.623 52.0197 20.9885 52.0197C32.7211 52.0261 44.4516 52.0218 56.1842 52.0197C58.4614 52.0197 60.7365 52.0218 63.0137 52.0176C63.3876 52.0176 63.7637 51.9814 64.1124 51.9622C64.3981 50.424 64.2468 49.2991 64.2405 49.1713C64.2405 49.1713 64.2006 49.0371 62.9402 48.9923C61.1903 48.9305 58.327 48.9135 56.577 48.8815C55.4784 48.8624 54.8334 48.2957 54.8292 47.4477C54.8271 46.5231 55.4931 45.9308 56.5791 45.8968C56.7535 45.8904 56.93 45.8968 57.1043 45.8968C59.1715 45.8968 61.2407 45.8115 63.3015 45.9287C64.4716 45.9948 64.9275 45.5261 65.3035 44.4907C67.6605 38.0013 70.0785 31.5353 72.4775 25.0608C72.5384 24.8947 72.6014 24.7306 72.6729 24.5687C73.0111 23.7911 73.5699 23.3756 74.4207 23.6143C75.2337 23.8422 75.6223 24.6667 75.3408 25.5871C75.1034 26.3647 74.7904 27.1167 74.5047 27.8794C72.2212 34.013 69.9188 40.1381 67.6752 46.2866C67.3685 47.126 67.2593 48.0677 67.211 48.9689C67.1353 50.3857 67.2068 51.8088 67.1879 53.2298C67.171 54.4442 66.6522 54.9555 65.4505 54.9981C65.2762 55.0045 65.0997 54.9981 64.9254 54.9981H19.1188C17.1988 54.9981 16.6988 54.6167 16.8458 52.7355C17.1231 49.1415 16.3039 45.8371 14.9909 42.5179C12.4931 36.2032 10.218 29.799 7.88831 23.4161C7.5816 22.5767 7.23288 22.2103 6.26234 22.2167C2.65118 22.2401 -0.23103 19.0338 0.0147556 15.3992C0.258441 11.7923 3.5587 8.93325 6.96819 9.37638C10.8461 9.87917 13.3922 13.2794 12.6255 17.0375C12.4973 17.6639 12.7641 18.303 13.2851 18.6652C14.9846 19.8476 16.6379 21.0982 18.4508 22.4255V22.4297ZM59.7639 16.3366C57.6505 18.3584 55.6065 20.2929 53.6003 22.2657C53.4301 22.434 53.3797 22.9496 53.5058 23.169C54.5687 25.0331 55.6863 26.8653 56.848 28.8105C58.8899 27.3106 60.8436 25.8896 62.7742 24.4324C62.9738 24.2811 63.0578 23.9679 62.9591 23.7357C61.8898 21.2004 60.7827 18.6801 59.7639 16.3345V16.3366Z" fill="#3228FA"/>
<path d="M48.0669 33.7465C47.8758 34.1513 47.7329 34.5539 47.5123 34.9054C46.1805 37.0295 44.8423 39.1493 43.4852 41.2564C42.5462 42.7136 41.4832 42.7285 40.5589 41.2947C39.1808 39.1579 37.8385 36.9976 36.4562 34.8628C35.9562 34.0916 35.9205 33.4013 36.4373 32.6088C37.8448 30.4507 39.1955 28.2542 40.5883 26.0853C41.4412 24.7602 42.5588 24.7346 43.4012 26.0363C44.8213 28.2286 46.2141 30.4421 47.6006 32.6578C47.8001 32.9774 47.9031 33.3587 48.0669 33.7465ZM42.0294 29.5282C41.1387 30.8895 40.3341 32.0698 39.5947 33.2906C39.4749 33.4887 39.5632 33.9169 39.6976 34.1555C40.2291 35.1057 40.8236 36.0197 41.3845 36.9528C41.8046 37.6516 42.2143 37.4577 42.5777 36.9251C43.1512 36.0857 43.7247 35.2421 44.2394 34.3622C44.3969 34.0937 44.5104 33.6208 44.3822 33.3928C43.668 32.1209 42.8739 30.8938 42.0294 29.526V29.5282Z" fill="#3228FA"/>
<path d="M51.0079 48.8856C49.8357 48.8983 49.1446 48.4019 49.1152 47.5263C49.0816 46.5058 49.7076 45.9285 50.8714 45.9072C52.073 45.8837 52.7242 46.3951 52.7579 47.3836C52.7894 48.3103 52.1318 48.8749 51.0058 48.8877L51.0079 48.8856Z" fill="#3228FA"/>
<path d="M42.0294 29.5282C42.8739 30.8959 43.668 32.1209 44.3822 33.3949C44.5104 33.6228 44.3969 34.0979 44.2394 34.3642C43.7247 35.242 43.1533 36.0857 42.5777 36.9272C42.2122 37.4619 41.8046 37.6537 41.3845 36.9549C40.8236 36.0218 40.2291 35.1078 39.6976 34.1576C39.5631 33.9169 39.4749 33.4908 39.5946 33.2926C40.3341 32.0719 41.1387 30.8895 42.0294 29.5302L42.0294 29.5282Z" fill="#00D2DF"/>
</svg>
