<svg width="100" height="100" viewBox="0 0 100 100" fill="none" xmlns="http://www.w3.org/2000/svg">
<path d="M0 14C0 6.26801 6.26801 0 14 0H86C93.732 0 100 6.26801 100 14V86C100 93.732 93.732 100 86 100H14C6.26801 100 0 93.732 0 86V14Z" fill="#1A1A1A"/>
<path fill-rule="evenodd" clip-rule="evenodd" d="M22 30.4651C22 25.4457 26.0072 21.5587 30.9824 19.0722C36.1036 16.5127 43.0075 15 50.5 15C57.9924 15 64.8966 16.5127 70.0178 19.0722C74.9927 21.5587 79 25.4457 79 30.4651V69.5349C79 74.5544 74.9927 78.4412 70.0178 80.9276C64.8966 83.4873 57.9924 85 50.5 85C43.0075 85 36.1036 83.4873 30.9824 80.9276C26.0072 78.4412 22 74.5544 22 69.5349V30.4651ZM26.8857 30.4651C26.8857 28.292 28.7116 25.6673 33.1673 23.4403C37.4769 21.2864 43.6015 19.8837 50.5 19.8837C57.3986 19.8837 63.523 21.2864 67.8326 23.4403C72.2883 25.6673 74.1143 28.292 74.1143 30.4651C74.1143 32.6382 72.2883 35.2629 67.8326 37.4899C63.523 39.6438 57.3986 41.0465 50.5 41.0465C43.6015 41.0465 37.4769 39.6438 33.1673 37.4899C28.7116 35.2629 26.8857 32.6382 26.8857 30.4651ZM26.8857 69.5349C26.8857 71.7078 28.7116 74.3326 33.1673 76.5596C37.4769 78.7137 43.6015 80.1163 50.5 80.1163C57.3986 80.1163 63.523 78.7137 67.8326 76.5596C72.2883 74.3326 74.1143 71.7078 74.1143 69.5349V58.8141C72.8873 59.7925 71.4952 60.6543 70.0178 61.3927C64.8966 63.9525 57.9924 65.4651 50.5 65.4651C43.0075 65.4651 36.1036 63.9525 30.9824 61.3927C29.5049 60.6543 28.1128 59.7925 26.8857 58.8141V69.5349ZM74.1143 39.2793V50C74.1143 52.1729 72.2883 54.7978 67.8326 57.0247C63.523 59.1788 57.3986 60.5814 50.5 60.5814C43.6015 60.5814 37.4769 59.1788 33.1673 57.0247C28.7116 54.7978 26.8857 52.1729 26.8857 50V39.2793C28.1128 40.2577 29.5049 41.1196 30.9824 41.858C36.1036 44.4176 43.0075 45.9302 50.5 45.9302C57.9924 45.9302 64.8966 44.4176 70.0178 41.858C71.4952 41.1196 72.8873 40.2577 74.1143 39.2793Z" fill="#EDEDED"/>
</svg>
