<svg width="100" height="100" viewBox="0 0 100 100" fill="none" xmlns="http://www.w3.org/2000/svg">
<path d="M0 14C0 6.26801 6.26801 0 14 0H86C93.732 0 100 6.26801 100 14V86C100 93.732 93.732 100 86 100H14C6.26801 100 0 93.732 0 86V14Z" fill="#1A1A1A"/>
<path fill-rule="evenodd" clip-rule="evenodd" d="M22 31.4651C22 26.4457 25.9369 22.5587 30.8248 20.0722C35.8561 17.5127 42.6389 16 50 16C57.361 16 64.144 17.5127 69.1754 20.0722C74.063 22.5587 78 26.4457 78 31.4651V70.5349C78 75.5544 74.063 79.4412 69.1754 81.9276C64.144 84.4873 57.361 86 50 86C42.6389 86 35.8561 84.4873 30.8248 81.9276C25.9369 79.4412 22 75.5544 22 70.5349V31.4651ZM26.8 31.4651C26.8 29.292 28.5938 26.6673 32.9714 24.4403C37.2054 22.2864 43.2226 20.8837 50 20.8837C56.7776 20.8837 62.7946 22.2864 67.0285 24.4403C71.4061 26.6673 73.2 29.292 73.2 31.4651C73.2 33.6382 71.4061 36.2629 67.0285 38.4899C62.7946 40.6438 56.7776 42.0465 50 42.0465C43.2226 42.0465 37.2054 40.6438 32.9714 38.4899C28.5938 36.2629 26.8 33.6382 26.8 31.4651ZM26.8 70.5349C26.8 72.7078 28.5938 75.3326 32.9714 77.5596C37.2054 79.7137 43.2226 81.1163 50 81.1163C56.7776 81.1163 62.7946 79.7137 67.0285 77.5596C71.4061 75.3326 73.2 72.7078 73.2 70.5349V59.8141C71.9946 60.7925 70.6269 61.6543 69.1754 62.3927C64.144 64.9525 57.361 66.4651 50 66.4651C42.6389 66.4651 35.8561 64.9525 30.8248 62.3927C29.3732 61.6543 28.0056 60.7925 26.8 59.8141V70.5349ZM73.2 40.2793V51C73.2 53.1729 71.4061 55.7978 67.0285 58.0247C62.7946 60.1788 56.7776 61.5814 50 61.5814C43.2226 61.5814 37.2054 60.1788 32.9714 58.0247C28.5938 55.7978 26.8 53.1729 26.8 51V40.2793C28.0056 41.2577 29.3732 42.1196 30.8248 42.858C35.8561 45.4176 42.6389 46.9302 50 46.9302C57.361 46.9302 64.144 45.4176 69.1754 42.858C70.6269 42.1196 71.9946 41.2577 73.2 40.2793Z" fill="#EDEDED"/>
</svg>
