<svg width="100" height="100" viewBox="0 0 100 100" fill="none" xmlns="http://www.w3.org/2000/svg">
<path d="M76.5625 0H23.4375C10.4933 0 0 10.4933 0 23.4375V76.5625C0 89.5067 10.4933 100 23.4375 100H76.5625C89.5067 100 100 89.5067 100 76.5625V23.4375C100 10.4933 89.5067 0 76.5625 0Z" fill="#1A1A1A"/>
<path d="M85.1562 14.8438H14.8438V85.1562H85.1562V14.8438Z" fill="#1A1A1A"/>
<path fill-rule="evenodd" clip-rule="evenodd" d="M79.6098 69.6133C75.7856 69.5071 72.8188 69.8989 70.3324 70.945C69.6164 71.2325 68.4676 71.2325 68.3731 72.1336C68.7559 72.5118 68.802 73.1305 69.1375 73.6547C69.7106 74.6059 70.716 75.8872 71.6238 76.552L74.684 78.7387C76.5488 79.8782 78.6527 80.5442 80.4695 81.6848C81.5219 82.3504 82.5734 83.2059 83.6258 83.9196C84.1617 84.2997 84.4863 84.9188 85.1563 85.1551V85.0114C84.8219 84.5852 84.7254 83.9676 84.3922 83.4903L82.9559 82.1129C81.5703 80.2598 79.8477 78.6426 77.9828 77.3133C76.4523 76.2676 73.1063 74.8422 72.4844 73.0848L72.3902 72.9782C73.4406 72.8719 74.684 72.502 75.6891 72.2168C77.316 71.7907 78.7973 71.8844 80.4695 71.4571L82.7664 70.7915V70.3653C81.9055 69.5102 81.284 68.3692 80.3762 67.5622C77.9379 65.4711 75.2582 63.427 72.4844 61.7165C71.0024 60.7665 69.0891 60.1473 67.5113 59.3411C66.9359 59.0555 65.9809 58.9129 65.6465 58.4379C64.7836 57.3942 64.3066 56.0145 63.6852 54.7782L59.7645 46.5094C58.9039 44.6559 58.3766 42.8024 57.3262 41.0918C52.4 33.0127 47.0434 28.1183 38.8184 23.3177C37.0499 22.3197 34.9459 21.8904 32.7091 21.3685L29.1229 21.1768C28.3566 20.8444 27.5924 19.9412 26.9225 19.513C24.1969 17.8023 17.167 14.0956 15.1574 18.9804C13.8659 22.0693 17.0706 25.1104 18.1584 26.6793C18.973 27.7722 20.0233 29.0077 20.5989 30.2433C20.9204 31.0507 21.0276 31.9071 21.3631 32.7624C22.1273 34.8533 22.8454 37.1828 23.8497 39.1321C24.3856 40.1301 24.9483 41.177 25.6181 42.0793C26.0008 42.6118 26.6706 42.8399 26.8132 43.695C26.1433 44.6461 26.0972 46.0704 25.7146 47.2602C23.9922 52.6305 24.6621 59.2836 27.1004 63.2375C27.8668 64.425 29.6727 67.0399 32.1229 66.0411C34.275 65.1856 33.7949 62.477 34.4165 60.1004C34.5612 59.5309 34.4647 59.1504 34.7509 58.7692V58.8758L36.7123 62.82C38.1946 65.1485 40.7777 67.5727 42.9285 69.1895C44.0754 70.045 44.9844 71.5192 46.4184 72.0411V71.8973H46.3242C46.0367 71.4711 45.6059 71.2793 45.2234 70.9469C44.3629 70.0918 43.4067 69.0457 42.7367 68.0957C40.7293 65.4348 38.9609 62.4875 37.3822 59.4465C36.6158 57.9735 35.9459 56.3575 35.3265 54.8844C35.0371 54.3137 35.0371 53.4571 34.5601 53.1739C33.842 54.2176 32.7917 55.1231 32.2633 56.4055C31.3544 58.4485 31.26 60.9676 30.9257 63.5817C30.7327 63.6293 30.8185 63.5817 30.7327 63.6879C29.2043 63.309 28.677 61.7387 28.1036 60.4094C26.6695 57.0352 26.4295 51.6176 27.6727 47.7204C28.0072 46.7223 29.4434 43.5856 28.87 42.6352C28.5806 41.7321 27.6266 41.2102 27.0993 40.4965C26.4777 39.5934 25.81 38.4535 25.3791 37.4555C24.2323 34.7926 23.6589 31.8474 22.4145 29.1856C21.839 27.95 20.8358 26.6665 20.0223 25.5268C19.1134 24.2433 18.1113 23.3401 17.3932 21.8201C17.1541 21.2875 16.8197 20.4418 17.2024 19.8709C17.2967 19.4906 17.4896 19.3383 17.8701 19.2531C18.4918 18.7205 20.2624 19.3958 20.884 19.6791C22.6525 20.3928 24.1347 21.0575 25.617 22.0544C26.2869 22.5295 27.005 23.4327 27.8657 23.6713H28.871C30.4015 24.0037 32.1218 23.7779 33.5548 24.2039C36.0896 25.0134 38.3843 26.2 40.4422 27.4846C46.7059 31.4288 51.8719 37.0369 55.3613 43.7387C55.9348 44.8317 56.1738 45.8297 56.7012 46.9704C57.7066 49.3 58.95 51.6754 59.952 53.9579C60.9574 56.1915 61.9133 58.4743 63.3477 60.3274C64.0656 61.3254 66.9336 61.8473 68.2242 62.3704C69.1813 62.7965 70.6625 63.1801 71.5254 63.702C73.15 64.7 74.7762 65.8407 76.3055 66.9336C77.0695 67.5024 79.4621 68.6911 79.6043 69.6391L79.6098 69.6133ZM30.8431 28.3154C30.1824 28.3096 29.5238 28.3895 28.8839 28.5529V28.6595H28.9782C29.3608 29.42 30.0307 29.9429 30.5087 30.6087L31.6095 32.8902L31.7038 32.7837C32.3736 32.3086 32.7091 31.5481 32.7091 30.4084C32.4219 30.0761 32.3747 29.7427 32.1357 29.4104C31.8485 28.9353 31.2268 28.6967 30.8431 28.3175V28.3154Z" fill="white"/>
</svg>
