<svg width="40" height="19" viewBox="0 0 40 19" fill="none" xmlns="http://www.w3.org/2000/svg">
<g clip-path="url(#clip0_626_2)">
<mask id="mask0_626_2" style="mask-type:luminance" maskUnits="userSpaceOnUse" x="0" y="0" width="40" height="19">
<path d="M40 0H0V19H40V0Z" fill="white"/>
</mask>
<g mask="url(#mask0_626_2)">
<path d="M33.0435 0H2.6087C1.16795 0 0 1.15999 0 2.59091C0 4.02183 1.16795 5.18182 2.6087 5.18182H33.0435C34.4842 5.18182 35.6522 4.02183 35.6522 2.59091C35.6522 1.15999 34.4842 0 33.0435 0Z" fill="#3228FA"/>
<path d="M33.0435 13.8182H2.6087C1.16795 13.8182 0 14.9782 0 16.4091C0 17.84 1.16795 19 2.6087 19H33.0435C34.4842 19 35.6522 17.84 35.6522 16.4091C35.6522 14.9782 34.4842 13.8182 33.0435 13.8182Z" fill="#3228FA"/>
<path d="M37.3914 6.90909H6.9566C5.51585 6.90909 4.3479 8.06908 4.3479 9.5C4.3479 10.9309 5.51585 12.0909 6.9566 12.0909H37.3914C38.8321 12.0909 40.0001 10.9309 40.0001 9.5C40.0001 8.06908 38.8321 6.90909 37.3914 6.90909Z" fill="#3228FA"/>
</g>
</g>
<defs>
<clipPath id="clip0_626_2">
<rect width="40" height="19" fill="white"/>
</clipPath>
</defs>
</svg>
