<svg width="25" height="19" viewBox="0 0 25 19" fill="none" xmlns="http://www.w3.org/2000/svg">
<g clip-path="url(#clip0_622_10)">
<mask id="mask0_622_10" style="mask-type:luminance" maskUnits="userSpaceOnUse" x="0" y="0" width="25" height="19">
<path d="M25 0H0V19H25V0Z" fill="white"/>
</mask>
<g mask="url(#mask0_622_10)">
<path d="M20.6522 0H1.63043C0.729971 0 0 1.15999 0 2.59091C0 4.02183 0.729971 5.18182 1.63043 5.18182H20.6522C21.5526 5.18182 22.2826 4.02183 22.2826 2.59091C22.2826 1.15999 21.5526 0 20.6522 0Z" fill="#3228FA"/>
<path d="M20.6522 13.8182H1.63043C0.729971 13.8182 0 14.9782 0 16.4091C0 17.84 0.729971 19 1.63043 19H20.6522C21.5526 19 22.2826 17.84 22.2826 16.4091C22.2826 14.9782 21.5526 13.8182 20.6522 13.8182Z" fill="#3228FA"/>
<path d="M23.3697 6.90909H4.34796C3.4475 6.90909 2.71753 8.06908 2.71753 9.5C2.71753 10.9309 3.4475 12.0909 4.34796 12.0909H23.3697C24.2702 12.0909 25.0001 10.9309 25.0001 9.5C25.0001 8.06908 24.2702 6.90909 23.3697 6.90909Z" fill="#3228FA"/>
</g>
</g>
<defs>
<clipPath id="clip0_622_10">
<rect width="25" height="19" fill="white"/>
</clipPath>
</defs>
</svg>
