<svg width="34" height="16" viewBox="0 0 34 16" fill="none" xmlns="http://www.w3.org/2000/svg">
<g clip-path="url(#clip0_622_10)">
<mask id="mask0_622_10" style="mask-type:luminance" maskUnits="userSpaceOnUse" x="0" y="0" width="34" height="16">
<path d="M34 0H0V16H34V0Z" fill="white"/>
</mask>
<g mask="url(#mask0_622_10)">
<path d="M28.087 0H2.21739C0.99276 0 0 0.976833 0 2.18182C0 3.3868 0.99276 4.36364 2.21739 4.36364H28.087C29.3116 4.36364 30.3043 3.3868 30.3043 2.18182C30.3043 0.976833 29.3116 0 28.087 0Z" fill="#3228FA"/>
<path d="M28.087 11.6364H2.21739C0.99276 11.6364 0 12.6132 0 13.8182C0 15.0232 0.99276 16 2.21739 16H28.087C29.3116 16 30.3043 15.0232 30.3043 13.8182C30.3043 12.6132 29.3116 11.6364 28.087 11.6364Z" fill="#3228FA"/>
<path d="M31.7825 5.81818H5.91295C4.68832 5.81818 3.69556 6.79502 3.69556 8C3.69556 9.20499 4.68832 10.1818 5.91295 10.1818H31.7825C33.0071 10.1818 33.9999 9.20499 33.9999 8C33.9999 6.79502 33.0071 5.81818 31.7825 5.81818Z" fill="#3228FA"/>
</g>
</g>
<defs>
<clipPath id="clip0_622_10">
<rect width="34" height="16" fill="white"/>
</clipPath>
</defs>
</svg>
