<svg width="42" height="20" viewBox="0 0 42 20" fill="none" xmlns="http://www.w3.org/2000/svg">
<g clip-path="url(#clip0_626_2)">
<mask id="mask0_626_2" style="mask-type:luminance" maskUnits="userSpaceOnUse" x="0" y="0" width="42" height="20">
<path d="M42 0H0V20H42V0Z" fill="white"/>
</mask>
<g mask="url(#mask0_626_2)">
<path d="M34.6957 0H2.73913C1.22635 0 0 1.22104 0 2.72727C0 4.2335 1.22635 5.45455 2.73913 5.45455H34.6957C36.2084 5.45455 37.4348 4.2335 37.4348 2.72727C37.4348 1.22104 36.2084 0 34.6957 0Z" fill="#3228FA"/>
<path d="M34.6957 14.5455H2.73913C1.22635 14.5455 0 15.7665 0 17.2727C0 18.779 1.22635 20 2.73913 20H34.6957C36.2084 20 37.4348 18.779 37.4348 17.2727C37.4348 15.7665 36.2084 14.5455 34.6957 14.5455Z" fill="#3228FA"/>
<path d="M39.2608 7.27272H7.30432C5.79154 7.27272 4.56519 8.49376 4.56519 9.99999C4.56519 11.5062 5.79154 12.7273 7.30432 12.7273H39.2608C40.7736 12.7273 42 11.5062 42 9.99999C42 8.49376 40.7736 7.27272 39.2608 7.27272Z" fill="#3228FA"/>
</g>
</g>
<defs>
<clipPath id="clip0_626_2">
<rect width="42" height="20" fill="white"/>
</clipPath>
</defs>
</svg>
