<svg width="25" height="25" viewBox="0 0 25 25" fill="none" xmlns="http://www.w3.org/2000/svg">
<path d="M12.4998 16.6667C13.8019 16.6667 14.9087 16.211 15.8201 15.2996C16.7316 14.3881 17.1873 13.2813 17.1873 11.9792C17.1873 10.6772 16.7316 9.57039 15.8201 8.65894C14.9087 7.74748 13.8019 7.29175 12.4998 7.29175C11.1978 7.29175 10.091 7.74748 9.17952 8.65894C8.26807 9.57039 7.81234 10.6772 7.81234 11.9792C7.81234 13.2813 8.26807 14.3881 9.17952 15.2996C10.091 16.211 11.1978 16.6667 12.4998 16.6667ZM12.4998 14.7917C11.7186 14.7917 11.0545 14.5183 10.5076 13.9714C9.96077 13.4246 9.68734 12.7605 9.68734 11.9792C9.68734 11.198 9.96077 10.5339 10.5076 9.98706C11.0545 9.44019 11.7186 9.16675 12.4998 9.16675C13.2811 9.16675 13.9451 9.44019 14.492 9.98706C15.0389 10.5339 15.3123 11.198 15.3123 11.9792C15.3123 12.7605 15.0389 13.4246 14.492 13.9714C13.9451 14.5183 13.2811 14.7917 12.4998 14.7917ZM12.4998 19.7917C9.96511 19.7917 7.65609 19.0843 5.57275 17.6694C3.48942 16.2544 1.979 14.3577 1.0415 11.9792C1.979 9.60078 3.48942 7.70407 5.57275 6.28914C7.65609 4.87421 9.96511 4.16675 12.4998 4.16675C15.0346 4.16675 17.3436 4.87421 19.4269 6.28914C21.5103 7.70407 23.0207 9.60078 23.9582 11.9792C23.0207 14.3577 21.5103 16.2544 19.4269 17.6694C17.3436 19.0843 15.0346 19.7917 12.4998 19.7917ZM12.4998 17.7084C14.4616 17.7084 16.2629 17.1919 17.9035 16.1589C19.5441 15.1259 20.7984 13.7327 21.6665 11.9792C20.7984 10.2258 19.5441 8.83255 17.9035 7.79956C16.2629 6.76657 14.4616 6.25008 12.4998 6.25008C10.538 6.25008 8.73682 6.76657 7.09619 7.79956C5.45557 8.83255 4.20123 10.2258 3.33317 11.9792C4.20123 13.7327 5.45557 15.1259 7.09619 16.1589C8.73682 17.1919 10.538 17.7084 12.4998 17.7084Z" fill="white"/>
</svg>
