<svg width="100" height="100" viewBox="0 0 100 100" fill="none" xmlns="http://www.w3.org/2000/svg">
<path d="M0 14C0 6.26801 6.26801 0 14 0H86C93.732 0 100 6.26801 100 14V86C100 93.732 93.732 100 86 100H14C6.26801 100 0 93.732 0 86V14Z" fill="#1A1A1A"/>
<path d="M60 60.3333C65.7069 60.3333 70.3333 55.7069 70.3333 50C70.3333 44.2931 65.7069 39.6667 60 39.6667C54.293 39.6667 49.6667 44.2931 49.6667 50C49.6667 55.7069 54.293 60.3333 60 60.3333Z" fill="#EDEDED"/>
<path fill-rule="evenodd" clip-rule="evenodd" d="M39.3333 81C45.0403 81 49.6667 76.3736 49.6667 70.6667C49.6667 69.1088 49.6667 65.6643 49.6667 60.3333C45.0245 60.3333 41.5801 60.3333 39.3333 60.3333C33.6264 60.3333 29 64.9597 29 70.6667C29 76.3736 33.6264 81 39.3333 81Z" fill="#EDEDED"/>
<path fill-rule="evenodd" clip-rule="evenodd" d="M39.3333 60.3333C41.2356 60.3333 44.6801 60.3333 49.6667 60.3333V39.6667C44.6801 39.6667 41.2356 39.6667 39.3333 39.6667C33.6264 39.6667 29 44.2931 29 50C29 55.7069 33.6264 60.3333 39.3333 60.3333Z" fill="#EDEDED"/>
<path fill-rule="evenodd" clip-rule="evenodd" d="M39.3333 39.6667C41.2356 39.6667 44.6801 39.6667 49.6667 39.6667V19C44.6801 19 41.2356 19 39.3333 19C33.6264 19 29 23.6264 29 29.3333C29 35.0403 33.6264 39.6667 39.3333 39.6667Z" fill="#EDEDED"/>
<path fill-rule="evenodd" clip-rule="evenodd" d="M60 39.6667H49.6667V19H60C65.7069 19 70.3333 23.6264 70.3333 29.3333C70.3333 35.0403 65.7069 39.6667 60 39.6667Z" fill="#EDEDED"/>
</svg>
