<svg width="100" height="100" viewBox="0 0 100 100" fill="none" xmlns="http://www.w3.org/2000/svg">
<path d="M0 14C0 6.26801 6.26801 0 14 0H86C93.732 0 100 6.26801 100 14V86C100 93.732 93.732 100 86 100H14C6.26801 100 0 93.732 0 86V14Z" fill="#1A1A1A"/>
<path d="M63.9999 62.6667C70.4432 62.6667 75.6666 57.4434 75.6666 51C75.6666 44.5567 70.4432 39.3334 63.9999 39.3334C57.5566 39.3334 52.3333 44.5567 52.3333 51C52.3333 57.4434 57.5566 62.6667 63.9999 62.6667Z" fill="#EDEDED"/>
<path fill-rule="evenodd" clip-rule="evenodd" d="M40.6667 86C47.11 86 52.3333 80.7767 52.3333 74.3334C52.3333 72.5744 52.3333 68.6856 52.3333 62.6667C47.0922 62.6667 43.2033 62.6667 40.6667 62.6667C34.2233 62.6667 29 67.89 29 74.3334C29 80.7767 34.2233 86 40.6667 86Z" fill="#EDEDED"/>
<path fill-rule="evenodd" clip-rule="evenodd" d="M40.6667 62.6667C42.8144 62.6667 46.7033 62.6667 52.3333 62.6667V39.3334C46.7033 39.3334 42.8144 39.3334 40.6667 39.3334C34.2233 39.3334 29 44.5567 29 51C29 57.4434 34.2233 62.6667 40.6667 62.6667Z" fill="#EDEDED"/>
<path fill-rule="evenodd" clip-rule="evenodd" d="M40.6667 39.3334C42.8144 39.3334 46.7033 39.3334 52.3333 39.3334V16C46.7033 16 42.8144 16 40.6667 16C34.2233 16 29 21.2233 29 27.6667C29 34.11 34.2233 39.3334 40.6667 39.3334Z" fill="#EDEDED"/>
<path fill-rule="evenodd" clip-rule="evenodd" d="M63.9999 39.3334H52.3333V16H63.9999C70.4432 16 75.6666 21.2233 75.6666 27.6667C75.6666 34.11 70.4432 39.3334 63.9999 39.3334Z" fill="#EDEDED"/>
</svg>
