<svg width="100" height="100" viewBox="0 0 100 100" fill="none" xmlns="http://www.w3.org/2000/svg">
<path d="M100 50C100 77.6142 77.6142 100 50 100C22.3858 100 0 77.6142 0 50C0 22.3858 22.3858 0 50 0C77.6142 0 100 22.3858 100 50Z" fill="#1A1A1A"/>
<path d="M77.8683 47.3272L51.6715 21.1317C50.1639 19.6228 47.7168 19.6228 46.2073 21.1317L40.7675 26.5716L47.6681 33.4723C49.2718 32.9305 51.1105 33.2939 52.389 34.5724C53.6734 35.8588 54.0342 37.7134 53.4792 39.3224L60.1296 45.9729C61.7386 45.4186 63.5951 45.7774 64.8802 47.0644C66.6761 48.8597 66.6761 51.7696 64.8802 53.5662C63.0836 55.3628 60.1738 55.3628 58.3765 53.5662C57.0256 52.214 56.6919 50.2298 57.3759 48.5655L51.1737 42.3632L51.173 58.6848C51.6109 58.9021 52.0243 59.1911 52.389 59.5545C54.1849 61.3498 54.1849 64.2597 52.389 66.0576C50.5924 67.8535 47.6813 67.8535 45.8874 66.0576C44.0914 64.2597 44.0914 61.3498 45.8874 59.5545C46.331 59.1115 46.8446 58.7763 47.3923 58.5512V42.0775C46.8446 41.8537 46.3317 41.5206 45.8874 41.0742C44.5266 39.7153 44.1994 37.7187 44.8966 36.0477L38.0947 29.2444L20.1322 47.206C18.6226 48.7162 18.6226 51.1633 20.1322 52.6722L46.329 78.8683C47.8373 80.3772 50.2837 80.3772 51.7938 78.8683L77.8683 52.794C79.3772 51.2844 79.3772 48.8361 77.8683 47.3272Z" fill="#EDEDED"/>
</svg>
