<svg width="100" height="100" viewBox="0 0 100 100" fill="none" xmlns="http://www.w3.org/2000/svg">
<path d="M100 50C100 77.6142 77.6142 100 50 100C22.3858 100 0 77.6142 0 50C0 22.3858 22.3858 0 50 0C77.6142 0 100 22.3858 100 50Z" fill="#1A1A1A"/>
<path d="M37.0117 32.3633V32.8299H37.1836L37.3143 32.7185L37.0117 32.3633ZM48.0859 22.9297L48.407 22.591L48.1026 22.3025L47.7833 22.5744L48.0859 22.9297ZM76.9336 50.2735L77.2906 50.574L77.574 50.2374L77.2546 49.9348L76.9336 50.2735ZM59.4336 71.0547L59.7048 71.4345L59.7527 71.4002L59.7906 71.3553L59.4336 71.0547ZM48.9062 78.5742L48.5413 78.8651L48.8173 79.2113L49.1775 78.954L48.9062 78.5742ZM33.8671 59.707L33.4024 59.6652L33.3856 59.8516L33.5023 59.9979L33.8671 59.707ZM36.3282 32.3633V31.8966H35.9015L35.8634 32.3215L36.3282 32.3633ZM37.3143 32.7185L48.3886 23.2849L47.7833 22.5744L36.7091 32.008L37.3143 32.7185ZM47.7649 23.2684L76.6126 50.6122L77.2546 49.9348L48.407 22.591L47.7649 23.2684ZM76.5767 49.9728L59.0767 70.7541L59.7906 71.3553L77.2906 50.574L76.5767 49.9728ZM59.1623 70.6749L48.635 78.1945L49.1775 78.954L59.7048 71.4345L59.1623 70.6749ZM49.2712 78.2834L34.2321 59.4161L33.5023 59.9979L48.5413 78.8651L49.2712 78.2834ZM34.3319 59.7489L36.7929 32.4051L35.8634 32.3215L33.4024 59.6652L34.3319 59.7489ZM36.3282 32.8299H37.0117V31.8966H36.3282V32.8299Z" fill="white"/>
<path d="M46.7886 26.3015L41.7399 21.2961L35.7719 27.3157L40.8206 32.3211L46.7886 26.3015Z" fill="#191919"/>
<path d="M83.6797 46.8811L53.1167 16.3203C51.3578 14.5599 48.5029 14.5599 46.7418 16.3203L40.3954 22.6667L48.4461 30.7174C50.3171 30.0853 52.4622 30.5093 53.9538 32.0009C55.4523 33.5016 55.8732 35.6652 55.2257 37.5423L62.9845 45.3011C64.8617 44.6544 67.0276 45.073 68.5269 46.5746C70.6221 48.6691 70.6221 52.0639 68.5269 54.1599C66.4309 56.2559 63.0361 56.2559 60.9392 54.1599C59.3632 52.5823 58.9738 50.2674 59.7718 48.3258L52.536 41.0899L52.5352 60.1314C53.046 60.3849 53.5284 60.7221 53.9538 61.146C56.049 63.2405 56.049 66.6354 53.9538 68.7328C51.8578 70.8281 48.4615 70.8281 46.3686 68.7328C44.2733 66.6354 44.2733 63.2405 46.3686 61.146C46.8862 60.6292 47.4853 60.2382 48.1243 59.9756V40.7566C47.4853 40.4955 46.887 40.1069 46.3686 39.5861C44.781 38.0008 44.3993 35.6714 45.2127 33.722L37.2772 25.7849L16.3209 46.7397C14.5597 48.5016 14.5597 51.3565 16.3209 53.1169L46.8839 83.6784C48.6435 85.4388 51.4976 85.4388 53.2595 83.6784L83.6797 53.2589C85.4401 51.4978 85.4401 48.6414 83.6797 46.8811Z" fill="#EDEDED"/>
</svg>
