<svg width="100" height="100" viewBox="0 0 100 100" fill="none" xmlns="http://www.w3.org/2000/svg">
<path d="M0 14C0 6.26801 6.26801 0 14 0H86C93.732 0 100 6.26801 100 14V86C100 93.732 93.732 100 86 100H14C6.26801 100 0 93.732 0 86V14Z" fill="#1A1A1A"/>
<path d="M83.6797 46.8811L53.1167 16.3203C51.3578 14.5599 48.5029 14.5599 46.7418 16.3203L40.3954 22.6667L48.4461 30.7174C50.3171 30.0853 52.4622 30.5093 53.9538 32.0009C55.4523 33.5016 55.8732 35.6652 55.2257 37.5423L62.9845 45.3011C64.8617 44.6544 67.0276 45.073 68.5269 46.5746C70.6221 48.6691 70.6221 52.0639 68.5269 54.1599C66.4309 56.2559 63.0361 56.2559 60.9392 54.1599C59.3632 52.5823 58.9738 50.2674 59.7718 48.3258L52.536 41.0899L52.5352 60.1314C53.046 60.3849 53.5284 60.7221 53.9538 61.146C56.049 63.2405 56.049 66.6354 53.9538 68.7328C51.8578 70.8281 48.4615 70.8281 46.3686 68.7328C44.2733 66.6354 44.2733 63.2405 46.3686 61.146C46.8862 60.6292 47.4853 60.2382 48.1243 59.9756V40.7566C47.4853 40.4955 46.887 40.1069 46.3686 39.5861C44.781 38.0008 44.3993 35.6714 45.2127 33.722L37.2772 25.7849L16.3209 46.7397C14.5597 48.5016 14.5597 51.3565 16.3209 53.1169L46.8839 83.6784C48.6435 85.4388 51.4976 85.4388 53.2595 83.6784L83.6797 53.2589C85.4401 51.4978 85.4401 48.6414 83.6797 46.8811Z" fill="#EDEDED"/>
</svg>
