<svg width="100" height="100" viewBox="0 0 100 100" fill="none" xmlns="http://www.w3.org/2000/svg">
<path d="M0 14C0 6.26801 6.26801 0 14 0H86C93.732 0 100 6.26801 100 14V86C100 93.732 93.732 100 86 100H14C6.26801 100 0 93.732 0 86V14Z" fill="#1A1A1A"/>
<path d="M71 73.0001C71 76.8765 62.267 80 51.5 80C40.733 80 32 76.8486 32 73.0001C32 69.1235 40.733 66 51.5 66C62.267 66 71 69.1235 71 73.0001Z" fill="#EDEDED"/>
<path d="M42.72 85.1358C43.1605 87.1346 44.2341 88.3071 45.3077 89H56.6219C57.9983 88.0939 59.4022 86.3884 59.4022 83.1905V74.9293C59.4022 74.9293 59.5674 72.8773 61.522 72.2111C61.522 72.2111 62.6506 71.4382 61.4394 71.0118C61.4394 71.0118 56.0714 70.5855 56.0714 74.8493V81.1385C56.0714 81.1385 56.2916 83.457 55.0253 84.4164V76.6348C55.0253 76.6348 55.1078 74.1564 56.4292 73.2238C56.4292 73.2238 57.3101 71.7047 55.3832 72.1045C55.3832 72.1045 51.6943 72.6108 51.5291 76.7947L51.4466 84.7895H50.5656L50.4831 76.7947C50.3179 72.6375 46.629 72.1045 46.629 72.1045C44.7021 71.6781 45.583 73.2238 45.583 73.2238C46.9044 74.1564 46.9869 76.6348 46.9869 76.6348V84.4963C45.7206 83.6169 45.9409 81.1385 45.9409 81.1385V74.8493C45.9409 70.5855 40.5728 71.0118 40.5728 71.0118C39.3341 71.4382 40.4902 72.2111 40.4902 72.2111C42.4172 72.904 42.61 74.9293 42.61 74.9293V80.7122L42.72 85.1358Z" fill="#1A1A1A"/>
<path d="M71 73.0001C71 76.8765 62.267 80 51.5 80C40.733 80 32 76.8486 32 73.0001C32 69.1235 40.733 66 51.5 66C62.267 66 71 69.1235 71 73.0001Z" fill="#EDEDED"/>
<path d="M28.5043 53L28.0102 55.0971C28.0102 55.0971 27.8925 55.8544 28.4572 56C29.069 55.9709 29.0219 55.2718 28.9748 55.0679L28.5043 53Z" fill="#EDEDED"/>
<path d="M85.9453 44.6921L86 44.4501C80.2305 43.321 74.3242 43.2941 70.7422 43.4554C71.3164 41.3854 71.5078 38.9659 71.5078 36.3043C71.5078 32.4601 70.0312 29.3954 67.6797 27.0834C68.0898 25.7661 68.6367 22.8358 67.1328 19.099C67.1328 19.099 64.4531 18.2656 58.3555 22.2712C55.9766 21.6798 53.4336 21.3841 50.8906 21.3841C48.1016 21.3841 45.2852 21.7336 42.6328 22.4325C36.3438 18.2119 33.582 19.0722 33.582 19.0722C31.7773 23.5079 32.8984 26.8146 33.2266 27.6211C31.0938 29.8793 29.8086 32.7558 29.8086 36.2776C29.8086 38.939 30.1094 41.3316 30.875 43.4016C27.2656 43.2672 21.5781 43.321 16 44.4232L16.0547 44.6652C21.6328 43.5629 27.375 43.536 30.957 43.6705C31.1211 44.1006 31.3125 44.5308 31.5039 44.9339C27.9492 45.0415 21.9062 45.4985 16.1094 47.1116L16.1914 47.3535C22.043 45.7405 28.1406 45.3103 31.668 45.2028C33.8008 49.074 37.957 51.6011 45.3945 52.3807C44.3281 53.0797 43.2617 54.2625 42.8242 56.2788C41.375 56.9508 36.8359 58.6177 34.1016 53.9937C34.1016 53.9937 32.5703 51.2516 29.6445 51.0365C29.6445 51.0365 26.8008 50.9827 29.4531 52.784C29.4531 52.784 31.3398 53.6711 32.6523 56.9777C32.6523 56.9777 34.375 62.6232 42.6055 60.7952V66.5751C42.6055 66.5751 42.4414 68.6452 40.5 69.3173C40.5 69.3173 39.3516 70.0969 40.582 70.527C40.582 70.527 45.9141 70.9571 45.9141 66.6558V60.3113C45.9141 60.3113 45.6953 57.7843 46.9531 56.924V67.3548C46.9531 67.3548 46.8711 69.8549 45.5586 70.7958C45.5586 70.7958 44.6836 72.3282 46.5977 71.9249C46.5977 71.9249 50.2617 71.4141 50.4258 67.1935L50.5078 56.6282H51.3828L51.4648 67.1935C51.6289 71.3873 55.293 71.9249 55.293 71.9249C57.207 72.3551 56.332 70.7958 56.332 70.7958C55.0195 69.8549 54.9375 67.3548 54.9375 67.3548V57.0046C56.1953 57.9724 55.9766 60.3113 55.9766 60.3113V66.6558C55.9766 70.9571 61.3086 70.527 61.3086 70.527C62.5391 70.0969 61.3906 69.3173 61.3906 69.3173C59.4766 68.6183 59.2852 66.5751 59.2852 66.5751V58.2413C59.2852 54.9884 57.8906 53.2679 56.5234 52.3807C64.4531 51.6011 68.2539 49.1009 70.0039 45.1759C73.4766 45.2565 79.7383 45.6867 85.6992 47.3535L85.7812 47.1116C79.8477 45.4716 73.6406 45.0415 70.1133 44.9339C70.2773 44.5308 70.4141 44.1275 70.5508 43.6973C74.2148 43.5629 80.1484 43.5629 85.9453 44.6921Z" fill="#EDEDED"/>
<path d="M63.3173 36.4956C64.9974 37.996 66 39.786 66 41.7077C66 50.7631 59.0629 51 50.5 51C41.9371 51 35 49.7365 35 41.7077C35 39.786 35.9755 37.996 37.6556 36.5219C40.4467 34.0474 45.1617 35.3636 50.5 35.3636C55.8383 35.3636 60.5262 34.021 63.3173 36.4956Z" fill="#EDEDED"/>
<path d="M46 42.0002C46 44.7779 44.4412 47 42.5 47C40.5588 47 39 44.7486 39 42.0002C39 39.2224 40.5588 37.0003 42.5 37.0003C44.4412 36.971 46 39.2224 46 42.0002Z" fill="#EDEDED"/>
<path d="M45 42C45 43.6579 43.8607 45 42.5001 45C41.1076 45 40 43.6579 40 42C40 40.3421 41.1393 39 42.5001 39C43.8607 39 45 40.3421 45 42Z" fill="#EDEDED"/>
<path d="M63 42.0002C63 44.7779 61.6639 47 60 47C58.3361 47 57 44.7486 57 42.0002C57 39.2224 58.3361 37.0003 60 37.0003C61.6387 36.971 63 39.2224 63 42.0002Z" fill="#EDEDED"/>
<path d="M62 42C62 43.6579 61.0887 45 60 45C58.8861 45 58 43.6579 58 42C58 40.3421 58.9114 39 60 39C61.114 39 62 40.3421 62 42Z" fill="#EDEDED"/>
<path d="M52 46C52 46.5333 51.5666 47 51 47C50.4667 47 50 46.5667 50 46C50 45.4333 50.4333 45 51 45C51.5333 45 52 45.4333 52 46Z" fill="#EDEDED"/>
<path d="M49.018 48.2048C48.9606 48.1237 49.0467 48.0426 49.1903 48.0102C49.3339 47.9777 49.4775 48.0264 49.535 48.1075C49.7649 48.4645 50.3394 48.6917 51 48.6917C51.6607 48.6917 52.2351 48.4483 52.465 48.1075C52.5224 48.0264 52.666 47.9777 52.8096 48.0102C52.9532 48.0426 53.0395 48.1237 52.982 48.2048C52.6947 48.6754 51.8904 49 51 49C50.1095 49 49.3053 48.6754 49.018 48.2048Z" fill="#EDEDED"/>
<path d="M31 51.5C31 51.7857 30.7857 52 30.5 52C30.2381 52 30 51.7857 30 51.5C30 51.2143 30.2143 51 30.5 51C30.7857 51 31 51.2143 31 51.5Z" fill="#EDEDED"/>
<path d="M32 52.5C32 52.7857 31.7857 53 31.5 53C31.2381 53 31 52.7857 31 52.5C31 52.2143 31.2143 52 31.5 52C31.7857 52 32 52.2143 32 52.5Z" fill="#EDEDED"/>
<path d="M33 53.5016C33 53.7864 32.7857 54 32.5 54C32.2381 54 32 53.7864 32 53.5016C32 53.2169 32.2143 53.0034 32.5 53.0034C32.7857 52.9678 33 53.2169 33 53.5016Z" fill="#EDEDED"/>
<path d="M33.5 55C33.2381 55 33 55 33 55C33 55 33.2143 55 33.5 55Z" fill="#EDEDED"/>
<path d="M35 56.5001C35 56.7857 34.7857 57 34.5 57C34.2381 57 34 56.7857 34 56.5001C34 56.2143 34.2143 56 34.5 56C34.7857 56 35 56.2143 35 56.5001Z" fill="#EDEDED"/>
<path d="M37 57.5017C37 57.7864 36.5716 58 36 58C35.4761 58 35 57.7864 35 57.5017C35 57.217 35.4286 57.0034 36 57.0034C36.5716 56.9678 37 57.217 37 57.5017Z" fill="#EDEDED"/>
<path d="M37.5 58C37.2381 58 37 58 37 58C37 58 37.2143 58 37.5 58Z" fill="#EDEDED"/>
<path d="M39.5 58C39.2381 58 39 58 39 58C39 58 39.2143 58 39.5 58Z" fill="#EDEDED"/>
<path d="M42 57.5C42 57.7857 41.7857 58 41.5 58C41.2381 58 41 57.7857 41 57.5C41 57.2143 41.2143 57 41.5 57C41.7619 57 42 57.2143 42 57.5Z" fill="#EDEDED"/>
</svg>
