<svg width="100" height="100" viewBox="0 0 100 100" fill="none" xmlns="http://www.w3.org/2000/svg">
<path d="M100 50C100 77.6142 77.6142 100 50 100C22.3858 100 0 77.6142 0 50C0 22.3858 22.3858 0 50 0C77.6142 0 100 22.3858 100 50Z" fill="#1A1A1A"/>
<path d="M68.7945 70.8535C68.7945 74.3919 60.493 77.243 50.2578 77.243C40.0226 77.243 31.7211 74.3665 31.7211 70.8535C31.7211 67.3151 40.0226 64.464 50.2578 64.464C60.493 64.464 68.7945 67.3151 68.7945 70.8535Z" fill="#EDEDED"/>
<path d="M42.2914 82.3088C42.7039 84.218 43.7094 85.3381 44.7148 86H55.3109C56.6 85.1345 57.9148 83.5053 57.9148 80.4505V72.5591C57.9148 72.5591 58.0695 70.599 59.9 69.9626C59.9 69.9626 60.957 69.2243 59.8227 68.817C59.8227 68.817 54.7953 68.4097 54.7953 72.4827V78.4904C54.7953 78.4904 55.0016 80.7051 53.8156 81.6215V74.1883C53.8156 74.1883 53.893 71.8209 55.1305 70.9299C55.1305 70.9299 55.9555 69.4789 54.1508 69.8607C54.1508 69.8607 50.6961 70.3444 50.5414 74.341L50.4641 81.9779H49.6391L49.5617 74.341C49.407 70.3699 45.9523 69.8607 45.9523 69.8607C44.1477 69.4534 44.9727 70.9299 44.9727 70.9299C46.2102 71.8209 46.2875 74.1883 46.2875 74.1883V81.6979C45.1016 80.8578 45.3078 78.4904 45.3078 78.4904V72.4827C45.3078 68.4097 40.2805 68.817 40.2805 68.817C39.1203 69.2243 40.2031 69.9626 40.2031 69.9626C42.0078 70.6244 42.1883 72.5591 42.1883 72.5591V78.0831L42.2914 82.3088Z" fill="#1A1A1A"/>
<path d="M68.7945 70.8535C68.7945 74.3919 60.493 77.243 50.2578 77.243C40.0226 77.243 31.7211 74.3665 31.7211 70.8535C31.7211 67.3151 40.0226 64.464 50.2578 64.464C60.493 64.464 68.7945 67.3151 68.7945 70.8535Z" fill="#EDEDED"/>
<path d="M29.0914 52.0414L28.55 53.8742C28.55 53.8742 28.4211 54.5361 29.0398 54.6634C29.7102 54.6379 29.6586 54.0269 29.607 53.8488L29.0914 52.0414Z" fill="#EDEDED"/>
<path d="M82.9484 44.3281L83 44.099C77.5602 43.0299 71.9914 43.0044 68.6141 43.1571C69.1555 41.197 69.3359 38.9059 69.3359 36.3858C69.3359 32.7455 67.9438 29.8435 65.7266 27.6543C66.1133 26.4069 66.6289 23.6322 65.2109 20.0938C65.2109 20.0938 62.6844 19.3046 56.9352 23.0976C54.6922 22.5376 52.2945 22.2576 49.8969 22.2576C47.2672 22.2576 44.6117 22.5885 42.1109 23.2503C36.1813 19.2537 33.5773 20.0683 33.5773 20.0683C31.8758 24.2686 32.9328 27.3997 33.2422 28.1634C31.2313 30.3017 30.0195 33.0255 30.0195 36.3603C30.0195 38.8805 30.3031 41.1461 31.025 43.1062C27.6219 42.9789 22.2594 43.0299 17 44.0736L17.0516 44.3027C22.3109 43.259 27.725 43.2335 31.1023 43.3608C31.257 43.7681 31.4375 44.1754 31.618 44.5572C28.2664 44.6591 22.5687 45.0918 17.1031 46.6192L17.1805 46.8483C22.6977 45.3209 28.4469 44.9136 31.7727 44.8118C33.7836 48.4775 37.7023 50.8704 44.7148 51.6086C43.7094 52.2705 42.7039 53.3905 42.2914 55.2998C40.925 55.9362 36.6453 57.5145 34.0672 53.136C34.0672 53.136 32.6234 50.5394 29.8648 50.3358C29.8648 50.3358 27.1836 50.2849 29.6844 51.9905C29.6844 51.9905 31.4633 52.8305 32.7008 55.9616C32.7008 55.9616 34.325 61.3074 42.0852 59.5764V65.0495C42.0852 65.0495 41.9305 67.0096 40.1 67.646C40.1 67.646 39.0172 68.3843 40.1773 68.7916C40.1773 68.7916 45.2047 69.1989 45.2047 65.1259V59.1182C45.2047 59.1182 44.9984 56.7253 46.1844 55.9107V65.7877C46.1844 65.7877 46.107 68.1552 44.8695 69.0461C44.8695 69.0461 44.0445 70.4971 45.8492 70.1153C45.8492 70.1153 49.3039 69.6316 49.4586 65.635L49.5359 55.6307H50.3609L50.4383 65.635C50.593 69.6062 54.0477 70.1153 54.0477 70.1153C55.8523 70.5226 55.0273 69.0461 55.0273 69.0461C53.7898 68.1552 53.7125 65.7877 53.7125 65.7877V55.9871C54.8984 56.9035 54.6922 59.1182 54.6922 59.1182V65.1259C54.6922 69.1989 59.7195 68.7916 59.7195 68.7916C60.8797 68.3843 59.7969 67.646 59.7969 67.646C57.9922 66.9842 57.8117 65.0495 57.8117 65.0495V57.1581C57.8117 54.0779 56.4969 52.4487 55.2078 51.6086C62.6844 50.8704 66.268 48.5029 67.918 44.7863C71.1922 44.8627 77.0961 45.27 82.7164 46.8483L82.7937 46.6192C77.1992 45.0664 71.3469 44.6591 68.0211 44.5572C68.1758 44.1754 68.3047 43.7935 68.4336 43.3862C71.8883 43.259 77.4828 43.259 82.9484 44.3281Z" fill="#EDEDED"/>
<path d="M62.0141 36.2076C63.6125 37.6586 64.5664 39.3896 64.5664 41.2479C64.5664 50.0049 57.9664 50.234 49.8195 50.234C41.6726 50.234 35.0726 49.0121 35.0726 41.2479C35.0726 39.3896 36.0008 37.6586 37.5992 36.233C40.2547 33.8402 44.7406 35.113 49.8195 35.113C54.8984 35.113 59.3586 33.8147 62.0141 36.2076Z" fill="#EDEDED"/>
<path d="M44.9211 41.7061C44.9211 44.1245 43.5547 46.0591 41.8531 46.0591C40.1516 46.0591 38.7852 44.099 38.7852 41.7061C38.7852 39.2878 40.1516 37.3531 41.8531 37.3531C43.5547 37.3276 44.9211 39.2878 44.9211 41.7061Z" fill="#EDEDED"/>
<path d="M43.9414 41.757C43.9414 43.3608 43.0133 44.659 41.9047 44.659C40.7703 44.659 39.868 43.3608 39.868 41.757C39.868 40.1533 40.7961 38.855 41.9047 38.855C43.0133 38.855 43.9414 40.1533 43.9414 41.757Z" fill="#EDEDED"/>
<path d="M61.3953 41.7061C61.3953 44.1245 60.0289 46.0591 58.3274 46.0591C56.6258 46.0591 55.2594 44.099 55.2594 41.7061C55.2594 39.2878 56.6258 37.3531 58.3274 37.3531C60.0031 37.3276 61.3953 39.2878 61.3953 41.7061Z" fill="#EDEDED"/>
<path d="M60.3898 41.757C60.3898 43.3608 59.4617 44.659 58.3531 44.659C57.2187 44.659 56.3164 43.3608 56.3164 41.757C56.3164 40.1533 57.2445 38.855 58.3531 38.855C59.4875 38.855 60.3898 40.1533 60.3898 41.757Z" fill="#EDEDED"/>
<path d="M50.6445 45.5755C50.6445 45.9828 50.3094 46.3392 49.8711 46.3392C49.4586 46.3392 49.0977 46.0082 49.0977 45.5755C49.0977 45.1427 49.4328 44.8118 49.8711 44.8118C50.2836 44.8118 50.6445 45.1427 50.6445 45.5755Z" fill="#EDEDED"/>
<path d="M48.0922 47.4847C48.0406 47.3574 48.118 47.2301 48.2469 47.1792C48.3758 47.1283 48.5047 47.2047 48.5562 47.332C48.7625 47.892 49.2781 48.2484 49.8711 48.2484C50.4641 48.2484 50.9797 47.8665 51.1859 47.332C51.2375 47.2047 51.3664 47.1283 51.4953 47.1792C51.6242 47.2301 51.7015 47.3574 51.65 47.4847C51.3922 48.2229 50.6703 48.7321 49.8711 48.7321C49.0719 48.7321 48.35 48.2229 48.0922 47.4847Z" fill="#EDEDED"/>
<path d="M31.0508 50.9467C31.0508 51.1504 30.8187 51.3031 30.5094 51.3031C30.2258 51.3031 29.968 51.1504 29.968 50.9467C29.968 50.7431 30.2 50.5904 30.5094 50.5904C30.8187 50.5904 31.0508 50.7431 31.0508 50.9467Z" fill="#EDEDED"/>
<path d="M32.5461 51.7613C32.5461 51.965 32.314 52.1177 32.0047 52.1177C31.7211 52.1177 31.4633 51.965 31.4633 51.7613C31.4633 51.5577 31.6953 51.405 32.0047 51.405C32.314 51.405 32.5461 51.5577 32.5461 51.7613Z" fill="#EDEDED"/>
<path d="M33.4484 52.8305C33.4484 53.0342 33.2164 53.1869 32.907 53.1869C32.6234 53.1869 32.3656 53.0342 32.3656 52.8305C32.3656 52.6269 32.5976 52.4741 32.907 52.4741C33.2164 52.4487 33.4484 52.6269 33.4484 52.8305Z" fill="#EDEDED"/>
<path d="M34.2734 54.0524C34.2734 54.2561 34.0414 54.4088 33.732 54.4088C33.4484 54.4088 33.1906 54.2561 33.1906 54.0524C33.1906 53.8488 33.4227 53.696 33.732 53.696C34.0414 53.6706 34.2734 53.8488 34.2734 54.0524Z" fill="#EDEDED"/>
<path d="M35.1758 55.1725C35.1758 55.3761 34.9437 55.5289 34.6344 55.5289C34.3508 55.5289 34.093 55.3761 34.093 55.1725C34.093 54.9688 34.325 54.8161 34.6344 54.8161C34.9437 54.8161 35.1758 54.9688 35.1758 55.1725Z" fill="#EDEDED"/>
<path d="M36.4133 56.1653C36.4133 56.3689 36.1812 56.5217 35.8719 56.5217C35.5883 56.5217 35.3305 56.3689 35.3305 56.1653C35.3305 55.9616 35.5625 55.8089 35.8719 55.8089C36.1812 55.7834 36.4133 55.9616 36.4133 56.1653Z" fill="#EDEDED"/>
<path d="M38.1406 56.8017C38.1406 57.0053 37.9086 57.1581 37.5992 57.1581C37.3156 57.1581 37.0578 57.0053 37.0578 56.8017C37.0578 56.598 37.2898 56.4453 37.5992 56.4453C37.9086 56.4453 38.1406 56.598 38.1406 56.8017Z" fill="#EDEDED"/>
<path d="M39.868 56.8017C39.868 57.0053 39.6359 57.1581 39.3266 57.1581C39.043 57.1581 38.7852 57.0053 38.7852 56.8017C38.7852 56.598 39.0172 56.4453 39.3266 56.4453C39.6359 56.4453 39.868 56.598 39.868 56.8017Z" fill="#EDEDED"/>
<path d="M41.6211 56.5217C41.6211 56.7253 41.3891 56.8781 41.0797 56.8781C40.7961 56.8781 40.5383 56.7253 40.5383 56.5217C40.5383 56.318 40.7703 56.1653 41.0797 56.1653C41.3633 56.1653 41.6211 56.318 41.6211 56.5217Z" fill="#EDEDED"/>
</svg>
