<svg width="95" height="95" viewBox="0 0 110 110" fill="none" xmlns="http://www.w3.org/2000/svg">
<path d="M85.9255 84.759C85.9255 90.6556 72.2657 95.4068 55.4242 95.4068C38.5827 95.4068 24.9229 90.6132 24.9229 84.759C24.9229 78.8623 38.5827 74.1111 55.4242 74.1111C72.2657 74.1111 85.9255 78.8623 85.9255 84.759Z" fill="#000000"/>
<mask id="mask0_6_61" style="mask-type:luminance" maskUnits="userSpaceOnUse" x="38" y="81" width="35" height="29">
<path d="M42.3159 103.849C42.9947 107.03 44.6491 108.897 46.3036 110H63.739C65.8601 108.558 68.0236 105.843 68.0236 100.752V87.6012C68.0236 87.6012 68.2781 84.3347 71.2901 83.2742C71.2901 83.2742 73.0294 82.0439 71.1628 81.3652C71.1628 81.3652 62.8905 80.6864 62.8905 87.474V97.4855C62.8905 97.4855 63.2299 101.176 61.2785 102.703V90.3162C61.2785 90.3162 61.4058 86.371 63.442 84.8862C63.442 84.8862 64.7995 82.4682 61.83 83.1045C61.83 83.1045 56.1455 83.9105 55.8909 90.5708L55.7637 103.297H54.4062L54.2789 90.5708C54.0244 83.9529 48.3398 83.1045 48.3398 83.1045C45.3703 82.4257 46.7278 84.8862 46.7278 84.8862C48.764 86.371 48.8913 90.3162 48.8913 90.3162V102.831C46.9399 101.431 47.2793 97.4855 47.2793 97.4855V87.474C47.2793 80.6864 39.007 81.3652 39.007 81.3652C37.098 82.0439 38.8797 83.2742 38.8797 83.2742C41.8493 84.3772 42.1462 87.6012 42.1462 87.6012V96.8068L42.3159 103.849Z" fill="#000000"/>
</mask>
<g mask="url(#mask0_6_61)">
<path d="M85.9255 84.759C85.9255 90.6556 72.2657 95.4068 55.4242 95.4068C38.5827 95.4068 24.9229 90.6132 24.9229 84.759C24.9229 78.8623 38.5827 74.1111 55.4242 74.1111C72.2657 74.1111 85.9255 78.8623 85.9255 84.759Z" fill="#000000"/>
</g>
<path d="M20.5957 53.4092L19.7049 56.4636C19.7049 56.4636 19.4928 57.5665 20.5109 57.7786C21.6139 57.7362 21.529 56.7181 21.4442 56.4211L20.5957 53.4092Z" fill="#000000"/>
<path d="M109.215 40.5553L109.3 40.1735C100.349 38.3918 91.1859 38.3494 85.6286 38.6039C86.5195 35.3374 86.8164 31.5195 86.8164 27.3197C86.8164 21.2533 84.5256 16.4173 80.8774 12.769C81.5137 10.6903 82.3621 6.06631 80.0289 0.169665C80.0289 0.169665 75.8716 -1.14541 66.4115 5.17545C62.7208 4.24217 58.7755 3.77553 54.8303 3.77553C50.5033 3.77553 46.1338 4.32701 42.0189 5.42998C32.2618 -1.23026 27.9772 0.127243 27.9772 0.127243C25.1774 7.12686 26.9167 12.3448 27.4258 13.6174C24.1168 17.1808 22.123 21.72 22.123 27.2773C22.123 31.477 22.5897 35.2526 23.7775 38.5191C18.1778 38.307 9.35402 38.3918 0.699951 40.1311L0.784795 40.5129C9.43886 38.7736 18.3475 38.7312 23.9047 38.9433C24.1593 39.622 24.4562 40.3008 24.7532 40.9371C19.2383 41.1068 9.86308 41.828 0.869639 44.3733L0.996904 44.7551C10.0752 42.2098 19.5353 41.531 25.0077 41.3613C28.3166 47.4701 34.7647 51.4577 46.3035 52.688C44.649 53.7909 42.9946 55.6575 42.3158 58.8392C40.0675 59.8997 33.0254 62.5299 28.7833 55.2333C28.7833 55.2333 26.4076 50.9063 21.8685 50.5669C21.8685 50.5669 17.4566 50.482 21.5715 53.3243C21.5715 53.3243 24.4986 54.7242 26.5349 59.9421C26.5349 59.9421 29.2075 68.8507 41.9765 65.966V75.0867C41.9765 75.0867 41.7219 78.3532 38.71 79.4138C38.71 79.4138 36.9283 80.644 38.8372 81.3228C38.8372 81.3228 47.1095 82.0015 47.1095 75.214V65.2024C47.1095 65.2024 46.7701 61.2148 48.7215 59.8573V76.317C48.7215 76.317 48.5943 80.2622 46.558 81.747C46.558 81.747 45.2005 84.165 48.1701 83.5287C48.1701 83.5287 53.8546 82.7227 54.1091 76.0625L54.2364 59.3906H55.5939L55.7212 76.0625C55.9757 82.6803 61.6602 83.5287 61.6602 83.5287C64.6298 84.2075 63.2723 81.747 63.2723 81.747C61.236 80.2622 61.1087 76.317 61.1087 76.317V59.9845C63.0601 61.5117 62.7208 65.2024 62.7208 65.2024V75.214C62.7208 82.0015 70.993 81.3228 70.993 81.3228C72.902 80.644 71.1203 79.4138 71.1203 79.4138C68.1508 78.3108 67.8538 75.0867 67.8538 75.0867V61.936C67.8538 56.8029 65.6903 54.0879 63.5692 52.688C75.8716 51.4577 81.7682 47.5125 84.4832 41.3189C89.8708 41.4462 99.5854 42.1249 108.833 44.7551L108.961 44.3733C99.7551 41.7856 90.1253 41.1068 84.6529 40.9371C84.9074 40.3008 85.1195 39.6645 85.3317 38.9857C91.0162 38.7736 100.222 38.7736 109.215 40.5553Z" fill="#000000"/>
<path d="M74.7686 27.0227C77.3988 29.4408 78.9684 32.3255 78.9684 35.4223C78.9684 50.0154 68.1084 50.3972 54.7031 50.3972C41.2978 50.3972 30.4377 48.361 30.4377 35.4223C30.4377 32.3255 31.9649 29.4408 34.5951 27.0652C38.9645 23.0775 46.346 25.1986 54.7031 25.1986C63.0602 25.1986 70.3992 23.0351 74.7686 27.0227Z" fill="#000000"/>
<path d="M46.6428 36.1859C46.6428 40.216 44.3944 43.44 41.5946 43.44C38.7947 43.44 36.5464 40.1736 36.5464 36.1859C36.5464 32.1558 38.7947 28.9317 41.5946 28.9317C44.3944 28.8893 46.6428 32.1558 46.6428 36.1859Z" fill="#000000"/>
<path d="M45.0308 36.2707C45.0308 38.9433 43.5036 41.1068 41.6795 41.1068C39.8129 41.1068 38.3281 38.9433 38.3281 36.2707C38.3281 33.5981 39.8553 31.4346 41.6795 31.4346C43.5036 31.4346 45.0308 33.5981 45.0308 36.2707Z" fill="#000000"/>
<path d="M73.7505 36.1859C73.7505 40.216 71.5021 43.44 68.7023 43.44C65.9024 43.44 63.6541 40.1736 63.6541 36.1859C63.6541 32.1558 65.9024 28.9317 68.7023 28.9317C71.4597 28.8893 73.7505 32.1558 73.7505 36.1859Z" fill="#000000"/>
<path d="M72.096 36.2707C72.096 38.9433 70.5688 41.1068 68.7446 41.1068C66.8781 41.1068 65.3933 38.9433 65.3933 36.2707C65.3933 33.5981 66.9205 31.4346 68.7446 31.4346C70.6112 31.4346 72.096 33.5981 72.096 36.2707Z" fill="#000000"/>
<path d="M56.0605 42.634C56.0605 43.3128 55.509 43.9067 54.7878 43.9067C54.109 43.9067 53.5151 43.3552 53.5151 42.634C53.5151 41.9128 54.0666 41.3614 54.7878 41.3614C55.4665 41.3614 56.0605 41.9128 56.0605 42.634Z" fill="#000000"/>
<path d="M51.8608 45.8157C51.776 45.6036 51.9032 45.3914 52.1153 45.3066C52.3274 45.2218 52.5396 45.349 52.6244 45.5611C52.9638 46.4944 53.8122 47.0883 54.7879 47.0883C55.7636 47.0883 56.6121 46.452 56.9514 45.5611C57.0363 45.349 57.2484 45.2218 57.4605 45.3066C57.6726 45.3914 57.7999 45.6036 57.715 45.8157C57.2908 47.0459 56.103 47.8943 54.7879 47.8943C53.4728 47.8943 52.285 47.0459 51.8608 45.8157Z" fill="#000000"/>
<path d="M23.8198 51.585C23.8198 51.9244 23.438 52.1789 22.9289 52.1789C22.4623 52.1789 22.0381 51.9244 22.0381 51.585C22.0381 51.2457 22.4199 50.9911 22.9289 50.9911C23.438 50.9911 23.8198 51.2457 23.8198 51.585Z" fill="#000000"/>
<path d="M26.2803 52.9425C26.2803 53.2819 25.8985 53.5364 25.3894 53.5364C24.9228 53.5364 24.4985 53.2819 24.4985 52.9425C24.4985 52.6032 24.8803 52.3486 25.3894 52.3486C25.8985 52.3486 26.2803 52.6032 26.2803 52.9425Z" fill="#000000"/>
<path d="M27.7651 54.7242C27.7651 55.0636 27.3833 55.3181 26.8743 55.3181C26.4076 55.3181 25.9834 55.0636 25.9834 54.7242C25.9834 54.3849 26.3652 54.1303 26.8743 54.1303C27.3833 54.0879 27.7651 54.3849 27.7651 54.7242Z" fill="#000000"/>
<path d="M29.1225 56.7605C29.1225 57.0999 28.7407 57.3544 28.2317 57.3544C27.765 57.3544 27.3408 57.0999 27.3408 56.7605C27.3408 56.4211 27.7226 56.1666 28.2317 56.1666C28.7407 56.1242 29.1225 56.4211 29.1225 56.7605Z" fill="#000000"/>
<path d="M30.6074 58.6271C30.6074 58.9665 30.2256 59.221 29.7165 59.221C29.2499 59.221 28.8257 58.9665 28.8257 58.6271C28.8257 58.2877 29.2075 58.0332 29.7165 58.0332C30.2256 58.0332 30.6074 58.2877 30.6074 58.6271Z" fill="#000000"/>
<path d="M32.6435 60.2815C32.6435 60.6209 32.2617 60.8754 31.7527 60.8754C31.286 60.8754 30.8618 60.6209 30.8618 60.2815C30.8618 59.9422 31.2436 59.6876 31.7527 59.6876C32.2617 59.6452 32.6435 59.9422 32.6435 60.2815Z" fill="#000000"/>
<path d="M35.4858 61.3421C35.4858 61.6815 35.104 61.936 34.595 61.936C34.1283 61.936 33.7041 61.6815 33.7041 61.3421C33.7041 61.0027 34.0859 60.7482 34.595 60.7482C35.104 60.7482 35.4858 61.0027 35.4858 61.3421Z" fill="#000000"/>
<path d="M38.3281 61.3421C38.3281 61.6815 37.9463 61.936 37.4372 61.936C36.9706 61.936 36.5464 61.6815 36.5464 61.3421C36.5464 61.0027 36.9282 60.7482 37.4372 60.7482C37.9463 60.7482 38.3281 61.0027 38.3281 61.3421Z" fill="#000000"/>
<path d="M41.2129 60.8754C41.2129 61.2148 40.8311 61.4693 40.322 61.4693C39.8554 61.4693 39.4312 61.2148 39.4312 60.8754C39.4312 60.5361 39.8129 60.2815 40.322 60.2815C40.7887 60.2815 41.2129 60.5361 41.2129 60.8754Z" fill="#000000"/>
</svg>
