<svg width="100" height="100" viewBox="0 0 100 100" fill="none" xmlns="http://www.w3.org/2000/svg">
<g clip-path="url(#clip0_12_393)">
<path fill-rule="evenodd" clip-rule="evenodd" d="M11.1111 100H88.8889C95.0253 100 100 95.0253 100 88.8889V11.1111C100 4.97461 95.0253 0 88.8889 0H11.1111C4.97461 0 0 4.97461 0 11.1111V88.8889C0 95.0253 4.97461 100 11.1111 100Z" fill="#1A1A1A"/>
<path fill-rule="evenodd" clip-rule="evenodd" d="M49.9979 18.0555C31.5917 18.0555 16.6667 33.0377 16.6667 51.5231C16.6667 66.3066 26.2167 78.8498 39.4645 83.2757C41.1312 83.5831 41.7396 82.5498 41.7396 81.663C41.7396 80.8682 41.7104 78.7641 41.6937 75.9718C32.4208 77.9943 30.4645 71.4853 30.4645 71.4853C28.95 67.6201 26.7645 66.591 26.7645 66.591C23.7375 64.5141 26.9937 64.5559 26.9937 64.5559C30.3375 64.7922 32.0979 68.0049 32.0979 68.0049C35.0729 73.1189 39.9 71.6422 41.8 70.7846C42.1021 68.6219 42.9645 67.1474 43.9167 66.3107C36.5145 65.4657 28.7333 62.5961 28.7333 49.7725C28.7333 46.1185 30.0312 43.1317 32.1645 40.7913C31.8208 39.9441 30.6771 36.5431 32.4896 31.9354C32.4896 31.9354 35.2896 31.0361 41.6563 35.3657C44.3167 34.6231 47.1667 34.2529 50.0021 34.2382C52.8333 34.2529 55.6855 34.6231 58.3479 35.3657C64.7104 31.0361 67.5041 31.9354 67.5041 31.9354C69.3229 36.5431 68.1792 39.9441 67.8355 40.7913C69.9729 43.1317 71.2625 46.1185 71.2625 49.7725C71.2625 62.6274 63.4688 65.4574 56.0437 66.2857C57.2396 67.3189 58.3063 69.3602 58.3063 72.483C58.3063 76.9569 58.2645 80.5649 58.2645 81.663C58.2645 82.5582 58.8645 83.5998 60.5563 83.2714C73.7916 78.8373 83.3333 66.3023 83.3333 51.5231C83.3333 33.0377 68.4083 18.0555 49.9979 18.0555Z" fill="#EDEDED"/>
</g>
<defs>
<clipPath id="clip0_12_393">
<rect width="100" height="100" fill="white"/>
</clipPath>
</defs>
</svg>
