<svg width="100" height="100" viewBox="0 0 100 100" fill="none" xmlns="http://www.w3.org/2000/svg">
<path d="M100 50C100 77.6142 77.6142 100 50 100C22.3858 100 0 77.6142 0 50C0 22.3858 22.3858 0 50 0C77.6142 0 100 22.3858 100 50Z" fill="#1A1A1A"/>
<path d="M69.9336 71.9356C69.9336 75.6884 61.1289 78.7123 50.2734 78.7123C39.418 78.7123 30.6133 75.6614 30.6133 71.9356C30.6133 68.1827 39.418 65.1588 50.2734 65.1588C61.1289 65.1588 69.9336 68.1827 69.9336 71.9356Z" fill="#EDEDED"/>
<path d="M41.8242 84.0851C42.2617 86.1101 43.3281 87.298 44.3945 88H55.6328C57 87.082 58.3945 85.3541 58.3945 82.1142V73.7445C58.3945 73.7445 58.5586 71.6656 60.5 70.9906C60.5 70.9906 61.6211 70.2076 60.418 69.7756C60.418 69.7756 55.086 69.3437 55.086 73.6635V80.0353C55.086 80.0353 55.3047 82.3842 54.0469 83.3562V75.4724C54.0469 75.4724 54.1289 72.9615 55.4414 72.0166C55.4414 72.0166 56.3164 70.4776 54.4024 70.8826C54.4024 70.8826 50.7383 71.3956 50.5742 75.6344L50.4922 83.7342H49.6172L49.5352 75.6344C49.3711 71.4226 45.707 70.8826 45.707 70.8826C43.793 70.4506 44.668 72.0166 44.668 72.0166C45.9805 72.9615 46.0625 75.4724 46.0625 75.4724V83.4372C44.8047 82.5462 45.0235 80.0353 45.0235 80.0353V73.6635C45.0235 69.3437 39.6914 69.7756 39.6914 69.7756C38.461 70.2076 39.6094 70.9906 39.6094 70.9906C41.5234 71.6926 41.7149 73.7445 41.7149 73.7445V79.6033L41.8242 84.0851Z" fill="#1A1A1A"/>
<path d="M69.9336 71.9356C69.9336 75.6884 61.1289 78.7123 50.2734 78.7123C39.418 78.7123 30.6133 75.6614 30.6133 71.9356C30.6133 68.1827 39.418 65.1588 50.2734 65.1588C61.1289 65.1588 69.9336 68.1827 69.9336 71.9356Z" fill="#EDEDED"/>
<path d="M27.8242 51.9833L27.25 53.9272C27.25 53.9272 27.1133 54.6292 27.7695 54.7642C28.4805 54.7372 28.4258 54.0892 28.3711 53.9002L27.8242 51.9833Z" fill="#EDEDED"/>
<path d="M84.9453 43.8026L85 43.5596C79.2305 42.4256 73.3242 42.3986 69.7422 42.5606C70.3164 40.4817 70.5078 38.0518 70.5078 35.3788C70.5078 31.518 69.0312 28.4401 66.6797 26.1182C67.0898 24.7952 67.6367 21.8523 66.1328 18.0995C66.1328 18.0995 63.4531 17.2625 57.3555 21.2853C54.9766 20.6914 52.4336 20.3944 49.8906 20.3944C47.1016 20.3944 44.2852 20.7454 41.6328 21.4473C35.3438 17.2085 32.582 18.0725 32.582 18.0725C30.7773 22.5273 31.8984 25.8482 32.2266 26.6582C30.0938 28.9261 28.8086 31.815 28.8086 35.3519C28.8086 38.0248 29.1094 40.4277 29.875 42.5066C26.2656 42.3716 20.5781 42.4256 15 43.5326L15.0547 43.7756C20.6328 42.6686 26.375 42.6416 29.957 42.7766C30.1211 43.2086 30.3125 43.6406 30.5039 44.0455C26.9492 44.1535 20.9062 44.6125 15.1094 46.2325L15.1914 46.4755C21.043 44.8555 27.1406 44.4235 30.668 44.3155C32.8008 48.2034 36.957 50.7413 44.3945 51.5243C43.3281 52.2263 42.2617 53.4142 41.8242 55.4392C40.375 56.1141 35.8359 57.7881 33.1016 53.1442C33.1016 53.1442 31.5703 50.3903 28.6445 50.1743C28.6445 50.1743 25.8008 50.1203 28.4531 51.9293C28.4531 51.9293 30.3398 52.8202 31.6523 56.1411C31.6523 56.1411 33.375 61.8109 41.6055 59.975V65.7798C41.6055 65.7798 41.4414 67.8587 39.5 68.5337C39.5 68.5337 38.3516 69.3167 39.582 69.7486C39.582 69.7486 44.9141 70.1806 44.9141 65.8608V59.489C44.9141 59.489 44.6953 56.9511 45.9531 56.0871V66.5628C45.9531 66.5628 45.8711 69.0737 44.5586 70.0186C44.5586 70.0186 43.6836 71.5576 45.5977 71.1526C45.5977 71.1526 49.2617 70.6396 49.4258 66.4008L49.5078 55.7901H50.3828L50.4648 66.4008C50.6289 70.6126 54.293 71.1526 54.293 71.1526C56.207 71.5846 55.332 70.0186 55.332 70.0186C54.0195 69.0737 53.9375 66.5628 53.9375 66.5628V56.1681C55.1953 57.1401 54.9766 59.489 54.9766 59.489V65.8608C54.9766 70.1806 60.3086 69.7486 60.3086 69.7486C61.5391 69.3167 60.3906 68.5337 60.3906 68.5337C58.4766 67.8317 58.2852 65.7798 58.2852 65.7798V57.4101C58.2852 54.1432 56.8906 52.4153 55.5234 51.5243C63.4531 50.7413 67.2539 48.2304 69.0039 44.2885C72.4766 44.3695 78.7383 44.8015 84.6992 46.4755L84.7812 46.2325C78.8477 44.5855 72.6406 44.1535 69.1133 44.0455C69.2773 43.6406 69.4141 43.2356 69.5508 42.8036C73.2148 42.6686 79.1484 42.6686 84.9453 43.8026Z" fill="#EDEDED"/>
<path d="M62.7422 35.1899C64.4375 36.7288 65.4492 38.5647 65.4492 40.5357C65.4492 49.8233 58.4492 50.0663 49.8086 50.0663C41.168 50.0663 34.168 48.7704 34.168 40.5357C34.168 38.5647 35.1523 36.7288 36.8477 35.2169C39.6641 32.6789 44.4219 34.0289 49.8086 34.0289C55.1953 34.0289 59.9258 32.6519 62.7422 35.1899Z" fill="#EDEDED"/>
<path d="M44.6133 41.0217C44.6133 43.5866 43.1641 45.6385 41.3594 45.6385C39.5547 45.6385 38.1055 43.5596 38.1055 41.0217C38.1055 38.4567 39.5547 36.4048 41.3594 36.4048C43.1641 36.3778 44.6133 38.4567 44.6133 41.0217Z" fill="#EDEDED"/>
<path d="M43.5742 41.0756C43.5742 42.7766 42.5898 44.1535 41.4141 44.1535C40.2109 44.1535 39.2539 42.7766 39.2539 41.0756C39.2539 39.3747 40.2383 37.9978 41.4141 37.9978C42.5898 37.9978 43.5742 39.3747 43.5742 41.0756Z" fill="#EDEDED"/>
<path d="M62.0859 41.0217C62.0859 43.5866 60.6367 45.6385 58.832 45.6385C57.0273 45.6385 55.5781 43.5596 55.5781 41.0217C55.5781 38.4567 57.0273 36.4048 58.832 36.4048C60.6094 36.3778 62.0859 38.4567 62.0859 41.0217Z" fill="#EDEDED"/>
<path d="M61.0195 41.0756C61.0195 42.7766 60.0352 44.1535 58.8594 44.1535C57.6562 44.1535 56.6992 42.7766 56.6992 41.0756C56.6992 39.3747 57.6836 37.9978 58.8594 37.9978C60.0625 37.9978 61.0195 39.3747 61.0195 41.0756Z" fill="#EDEDED"/>
<path d="M50.6836 45.1255C50.6836 45.5575 50.3281 45.9355 49.8633 45.9355C49.4258 45.9355 49.043 45.5845 49.043 45.1255C49.043 44.6665 49.3984 44.3155 49.8633 44.3155C50.3008 44.3155 50.6836 44.6665 50.6836 45.1255Z" fill="#EDEDED"/>
<path d="M47.9765 47.1504C47.9219 47.0154 48.0039 46.8804 48.1406 46.8265C48.2773 46.7725 48.414 46.8535 48.4687 46.9884C48.6875 47.5824 49.2344 47.9604 49.8633 47.9604C50.4922 47.9604 51.039 47.5554 51.2578 46.9884C51.3125 46.8535 51.4492 46.7725 51.5859 46.8265C51.7226 46.8804 51.8047 47.0154 51.75 47.1504C51.4765 47.9334 50.7109 48.4734 49.8633 48.4734C49.0156 48.4734 48.25 47.9334 47.9765 47.1504Z" fill="#EDEDED"/>
<path d="M29.9023 50.8223C29.9023 51.0383 29.6562 51.2003 29.3281 51.2003C29.0273 51.2003 28.7539 51.0383 28.7539 50.8223C28.7539 50.6063 29 50.4443 29.3281 50.4443C29.6562 50.4443 29.9023 50.6063 29.9023 50.8223Z" fill="#EDEDED"/>
<path d="M31.4883 51.6863C31.4883 51.9023 31.2422 52.0643 30.9141 52.0643C30.6133 52.0643 30.3398 51.9023 30.3398 51.6863C30.3398 51.4703 30.5859 51.3083 30.9141 51.3083C31.2422 51.3083 31.4883 51.4703 31.4883 51.6863Z" fill="#EDEDED"/>
<path d="M32.4453 52.8202C32.4453 53.0362 32.1992 53.1982 31.8711 53.1982C31.5703 53.1982 31.2969 53.0362 31.2969 52.8202C31.2969 52.6042 31.543 52.4423 31.8711 52.4423C32.1992 52.4153 32.4453 52.6042 32.4453 52.8202Z" fill="#EDEDED"/>
<path d="M33.3203 54.1162C33.3203 54.3322 33.0742 54.4942 32.7461 54.4942C32.4453 54.4942 32.1719 54.3322 32.1719 54.1162C32.1719 53.9002 32.418 53.7382 32.7461 53.7382C33.0742 53.7112 33.3203 53.9002 33.3203 54.1162Z" fill="#EDEDED"/>
<path d="M34.2773 55.3042C34.2773 55.5201 34.0312 55.6821 33.7031 55.6821C33.4023 55.6821 33.1289 55.5201 33.1289 55.3042C33.1289 55.0882 33.375 54.9262 33.7031 54.9262C34.0312 54.9262 34.2773 55.0882 34.2773 55.3042Z" fill="#EDEDED"/>
<path d="M35.5898 56.3571C35.5898 56.5731 35.3438 56.7351 35.0156 56.7351C34.7148 56.7351 34.4414 56.5731 34.4414 56.3571C34.4414 56.1411 34.6875 55.9791 35.0156 55.9791C35.3438 55.9521 35.5898 56.1411 35.5898 56.3571Z" fill="#EDEDED"/>
<path d="M37.4219 57.0321C37.4219 57.2481 37.1758 57.4101 36.8477 57.4101C36.5469 57.4101 36.2734 57.2481 36.2734 57.0321C36.2734 56.8161 36.5195 56.6541 36.8477 56.6541C37.1758 56.6541 37.4219 56.8161 37.4219 57.0321Z" fill="#EDEDED"/>
<path d="M39.2539 57.0321C39.2539 57.2481 39.0078 57.4101 38.6797 57.4101C38.3789 57.4101 38.1055 57.2481 38.1055 57.0321C38.1055 56.8161 38.3516 56.6541 38.6797 56.6541C39.0078 56.6541 39.2539 56.8161 39.2539 57.0321Z" fill="#EDEDED"/>
<path d="M41.1133 56.7351C41.1133 56.9511 40.8672 57.1131 40.5391 57.1131C40.2383 57.1131 39.9648 56.9511 39.9648 56.7351C39.9648 56.5191 40.2109 56.3571 40.5391 56.3571C40.8398 56.3571 41.1133 56.5191 41.1133 56.7351Z" fill="#EDEDED"/>
</svg>
