<svg width="100" height="100" viewBox="0 0 100 100" fill="none" xmlns="http://www.w3.org/2000/svg">
<path d="M76.5625 0H23.4375C10.4933 0 0 10.4933 0 23.4375V76.5625C0 89.5067 10.4933 100 23.4375 100H76.5625C89.5067 100 100 89.5067 100 76.5625V23.4375C100 10.4933 89.5067 0 76.5625 0Z" fill="#1A1A1A"/>
<path d="M18.75 14.8438L22.1132 52.5754H65.3594L63.9082 68.759L49.984 72.5238L36.0859 68.7645L35.1567 58.3731H22.6324L24.4233 78.4047L49.9809 85.5031L75.5707 78.4047L79.0016 40.0996H33.525L32.3832 27.3222H80.1324L81.25 14.8438H18.75Z" fill="#14DBEB"/>
<path d="M50 14.8438H18.75L22.1132 52.5754L50 52.5754V40.0996L33.525 40.0996L32.3832 27.3222L50 27.3222V14.8438Z" fill="#14DBEB"/>
<path d="M50 72.5184L49.984 72.5238L36.0859 68.7645L35.1567 58.3731H22.6324L24.4233 78.4047L49.9809 85.5031L50 85.4977V72.5184Z" fill="#14DBEB"/>
</svg>
