<svg width="100" height="100" viewBox="0 0 100 100" fill="none" xmlns="http://www.w3.org/2000/svg">
<path d="M76.5625 0H23.4375C10.4933 0 0 10.4933 0 23.4375V76.5625C0 89.5067 10.4933 100 23.4375 100H76.5625C89.5067 100 100 89.5067 100 76.5625V23.4375C100 10.4933 89.5067 0 76.5625 0Z" fill="#242938"/>
<path d="M39.7008 71.3355C39.7008 71.3355 36.7011 73.1613 41.7887 73.6836C47.9324 74.4664 51.1809 74.3355 57.9633 73.032C57.9633 73.032 59.7891 74.2074 62.268 75.1195C47.0043 81.6414 27.6988 74.7281 39.7008 71.3355ZM37.7442 62.857C37.7442 62.857 34.4825 65.3359 39.5699 65.8566C46.2215 66.5086 51.4414 66.6395 60.4422 64.8148C60.4422 64.8148 61.6176 66.1199 63.5731 66.7719C45.1813 72.2504 24.5693 67.2914 37.7442 62.857ZM73.7481 77.7281C73.7481 77.7281 75.9652 79.5539 71.2691 80.9898C62.5285 83.5984 34.6134 84.3824 26.7865 80.9898C24.0484 79.8144 29.2655 78.118 30.9604 77.859C32.6567 77.4676 33.569 77.4676 33.569 77.4676C30.5691 75.3801 13.6103 81.7723 24.9593 83.6117C56.1363 88.7004 81.8356 81.3945 73.7469 77.7414L73.7481 77.7281ZM41.1356 53.9855C41.1356 53.9855 26.9161 57.3781 36.0466 58.5508C39.9602 59.0715 47.6563 58.9422 54.8313 58.4199C60.7016 57.8988 66.5852 56.8547 66.5852 56.8547C66.5852 56.8547 64.4973 57.768 63.0629 58.6805C48.5711 62.4668 20.7854 60.7707 28.7432 56.857C35.5284 53.5953 41.1356 53.9855 41.1356 53.9855ZM66.5715 68.2047C81.1836 60.6383 74.3984 53.3336 69.7024 54.2473C68.527 54.5078 68.0063 54.7684 68.0063 54.7684C68.0063 54.7684 68.3973 53.9855 69.3109 53.7266C78.5723 50.4648 85.8785 63.5102 66.3113 68.5977C66.3113 68.5977 66.4422 68.4668 66.5715 68.2063V68.2047ZM42.5699 88.8141C56.6586 89.7277 78.1824 88.293 78.7047 81.6387C78.7047 81.6387 77.6629 84.2473 67.0953 86.2043C55.0945 88.4215 40.2219 88.1609 31.4827 86.725C31.4827 86.725 33.3085 88.2902 42.5711 88.8125L42.5699 88.8141Z" fill="white"/>
<path d="M57.6894 10.9375C57.6894 10.9375 65.7769 19.1558 49.9933 31.5466C37.3395 41.5906 47.1219 47.3312 49.9933 53.852C42.5578 47.2004 37.2113 41.3289 40.8617 35.8501C46.223 27.7667 60.9617 23.8533 57.6894 10.9375ZM53.5156 48.3758C57.298 52.6805 52.4738 56.5941 52.4738 56.5941C52.4738 56.5941 62.1265 51.6387 57.6922 45.5055C53.6476 39.6352 50.5172 36.765 67.4758 26.98C67.4758 26.98 40.7336 33.6316 53.5183 48.373L53.5156 48.3758Z" fill="#F58219"/>
</svg>
