<svg width="100" height="100" viewBox="0 0 100 100" fill="none" xmlns="http://www.w3.org/2000/svg">
<path d="M0 14C0 6.26801 6.26801 0 14 0H86C93.732 0 100 6.26801 100 14V86C100 93.732 93.732 100 86 100H14C6.26801 100 0 93.732 0 86V14Z" fill="#1A1A1A"/>
<path d="M34.0909 15H45V85L15 76.4603V65.2034L34.0909 70.1202V15Z" fill="#EDEDED"/>
<path d="M54 15H85L83.958 25.9091H64.8109V45L82.6554 42.2727L79.5293 77.8571L54 85V73.5714L70.0211 68.8962L71.584 54.7403L54 57.5975V15Z" fill="#EDEDED"/>
</svg>
