<svg width="100" height="100" viewBox="0 0 100 100" fill="none" xmlns="http://www.w3.org/2000/svg">
<path d="M76.5625 0H23.4375C10.4933 0 0 10.4933 0 23.4375V76.5625C0 89.5067 10.4933 100 23.4375 100H76.5625C89.5067 100 100 89.5067 100 76.5625V23.4375C100 10.4933 89.5067 0 76.5625 0Z" fill="#1A1A1A"/>
<path d="M46.8273 12.1548C48.7488 11.055 51.2512 11.0501 53.1707 12.1548C62.8277 17.6115 72.4879 23.0598 82.1434 28.5198C83.9598 29.5428 85.1742 31.564 85.1559 33.6566V66.4867C85.1695 68.666 83.8348 70.7355 81.9188 71.7352C72.2934 77.1621 62.6727 82.5953 53.0488 88.0223C51.0883 89.1434 48.5356 89.057 46.6356 87.8438C43.75 86.1711 40.8594 84.5062 37.9735 82.8352C37.3837 82.4836 36.7189 82.2039 36.3025 81.632C36.6706 81.1359 37.3288 81.0742 37.8636 80.8574C39.068 80.4742 40.1746 79.8594 41.2809 79.2629C41.5609 79.0715 41.9023 79.1449 42.1707 79.316C44.6383 80.7309 47.0844 82.1871 49.5602 83.5883C50.0883 83.8934 50.6231 83.4883 51.0746 83.2367C60.5199 77.898 69.977 72.5801 79.4211 67.2398C79.7711 67.0715 79.9645 66.7 79.9359 66.3168C79.9426 55.4867 79.9375 44.6551 79.9395 33.8249C79.9793 33.39 79.7277 32.9902 79.3344 32.8121C69.7426 27.4102 60.1551 22.0002 50.5648 16.597C50.2246 16.363 49.7758 16.3624 49.4352 16.5952C39.8445 22.0002 30.2593 27.4153 20.6689 32.8168C20.277 32.9951 20.0141 33.3885 20.0607 33.8249C20.0623 44.6551 20.0607 55.4867 20.0607 66.3184C20.0266 66.7016 20.2348 67.0652 20.5823 67.2301C23.1415 68.6812 25.7041 70.1223 28.2649 71.5687C29.7077 72.3449 31.479 72.8066 33.0686 72.2117C34.4712 71.7086 35.4544 70.277 35.4277 68.7879C35.4409 58.0211 35.421 47.2527 35.4376 36.4874C35.4027 36.0094 35.8559 35.6145 36.3207 35.6596C37.5505 35.6512 38.7816 35.643 40.0113 35.6629C40.5246 35.6512 40.8777 36.1659 40.8145 36.6474C40.8094 47.4824 40.8277 58.3176 40.8063 69.1523C40.8094 72.0402 39.623 75.1824 36.9521 76.5953C33.6616 78.2996 29.5945 77.9383 26.3437 76.3039C23.5295 74.8992 20.8439 73.2414 18.0796 71.7367C16.1586 70.7426 14.8305 68.6648 14.844 66.4871V33.6566C14.8238 31.5207 16.0869 29.4628 17.9595 28.4549C27.5833 23.0237 37.2055 17.5883 46.8273 12.1548Z" fill="white"/>
<path d="M55.2234 34.8965C59.4207 34.6263 63.914 34.7365 67.691 36.8041C70.6156 38.3888 72.2367 41.7144 72.2883 44.9633C72.2066 45.4012 71.7484 45.6429 71.3301 45.6129C70.1125 45.6113 68.8941 45.6297 67.6765 45.6047C67.1597 45.6246 66.8597 45.1484 66.7949 44.6918C66.4449 43.1371 65.5969 41.5976 64.134 40.8476C61.8879 39.7234 59.284 39.7801 56.8347 39.8035C55.0469 39.898 53.1242 40.0531 51.6094 41.1043C50.4465 41.9008 50.0933 43.5086 50.5082 44.8035C50.8996 45.7332 51.9726 46.0332 52.8512 46.3097C57.9094 47.6328 63.2695 47.5008 68.2312 49.2418C70.2855 49.9515 72.2949 51.3316 72.998 53.4824C73.918 56.3652 73.5148 59.8105 71.4637 62.1246C69.8004 64.0289 67.3781 65.0656 64.9621 65.6285C61.748 66.3453 58.4125 66.3637 55.1484 66.0453C52.0793 65.6953 48.8851 64.889 46.516 62.798C44.4898 61.0387 43.5004 58.2972 43.5984 55.6519C43.6219 55.2051 44.0668 54.8933 44.4949 54.9301C45.7211 54.9203 46.9476 54.9168 48.1738 54.932C48.664 54.8969 49.0269 55.3203 49.0523 55.782C49.2781 57.2629 49.8347 58.8176 51.1265 59.6953C53.6187 61.3035 56.7465 61.1933 59.6004 61.2383C61.9648 61.1336 64.6191 61.1019 66.5484 59.539C67.5664 58.6476 67.8679 57.1562 67.5929 55.8734C67.2949 54.7902 66.1617 54.2855 65.1887 53.9555C60.1953 52.3762 54.775 52.9492 49.8301 51.1629C47.8223 50.4535 45.8808 49.1121 45.1097 47.0496C44.0336 44.1304 44.5265 40.5195 46.7926 38.2836C49.0019 36.0594 52.191 35.203 55.2234 34.8965Z" fill="white"/>
</svg>
