<svg width="100" height="100" viewBox="0 0 101 100" fill="#1A1A1A" xmlns="http://www.w3.org/2000/svg">
<path d="M50.6748 100C49.122 100 47.6727 99.6325 46.327 98.9894L32.5589 91.7317C30.4885 90.7212 31.5237 90.3537 32.1448 90.17C34.9398 89.3431 35.4574 89.1594 38.356 87.6895C38.6665 87.5057 39.0806 87.5976 39.3912 87.7813L49.9502 93.3854C50.3642 93.5691 50.8818 93.5691 51.1924 93.3854L92.4967 72.1635C92.9108 71.9798 93.1179 71.6123 93.1179 71.153V28.8011C93.1179 28.3418 92.9108 27.9743 92.4967 27.7905L51.1924 6.66054C50.7783 6.4768 50.2607 6.4768 49.9502 6.66054L8.64582 27.7905C8.23174 27.9743 8.0247 28.4336 8.0247 28.8011V71.153C8.0247 71.5204 8.23174 71.9798 8.64582 72.1635L19.9295 77.9513C26.0371 80.7074 29.8674 77.492 29.8674 74.2765V32.4759C29.8674 31.9247 30.3849 31.3735 31.1096 31.3735H36.3891C37.0102 31.3735 37.6313 31.8328 37.6313 32.4759V74.2765C37.6313 81.5342 33.18 85.7602 25.416 85.7602C23.0351 85.7602 21.1717 85.7602 15.8922 83.4635L5.02263 77.9513C2.33112 76.5733 0.674805 74.0009 0.674805 71.2448V28.893C0.674805 26.1369 2.33112 23.5645 5.02263 22.1865L46.327 0.96463C48.915 -0.321543 52.4346 -0.321543 55.0226 0.96463L96.327 22.1865C99.0185 23.5645 100.675 26.1369 100.675 28.893V71.2448C100.675 74.0009 99.0185 76.5733 96.327 77.9513L55.0226 99.1732C53.6769 99.7244 52.1241 100 50.6748 100ZM63.4077 70.8774C45.2918 70.8774 41.5651 63.5278 41.5651 57.2807C41.5651 56.7294 42.0827 56.1782 42.8073 56.1782H48.1903C48.8115 56.1782 49.329 56.5457 49.329 57.0969C50.1572 61.966 52.5382 64.3546 63.5112 64.3546C72.2069 64.3546 75.9336 62.6091 75.9336 58.475C75.9336 56.0864 74.8984 54.3408 61.3373 53.1465C50.0537 52.136 43.0144 49.9311 43.0144 41.9384C43.0144 34.497 50.0537 30.0873 61.8549 30.0873C75.1054 30.0873 81.6272 34.1295 82.4553 42.949C82.4553 43.2246 82.3518 43.5002 82.1448 43.7758C81.9377 43.9596 81.6272 44.1433 81.3166 44.1433H75.9336C75.416 44.1433 74.8984 43.7758 74.7949 43.3165C73.5526 38.2637 70.3435 36.61 61.8549 36.61C52.3311 36.61 51.1924 39.5498 51.1924 41.7547C51.1924 44.4189 52.5382 45.2458 65.3746 46.7157C78.1075 48.1856 84.1117 50.2986 84.1117 58.1994C84.0081 66.2839 76.5547 70.8774 63.4077 70.8774Z" fill="#1A1A1A"/>
</svg>
