<svg width="100" height="100" viewBox="0 0 100 100" fill="none" xmlns="http://www.w3.org/2000/svg">
<path d="M100 50C100 77.6142 77.6142 100 50 100C22.3858 100 0 77.6142 0 50C0 22.3858 22.3858 0 50 0C77.6142 0 100 22.3858 100 50Z" fill="#1A1A1A"/>
<path d="M49.9999 83C48.9751 83 48.0186 82.7575 47.1304 82.333L38.0435 77.5429C36.677 76.876 37.3602 76.6334 37.7702 76.5122C39.6149 75.9664 39.9565 75.8452 41.8695 74.8751C42.0745 74.7538 42.3478 74.8144 42.5528 74.9357L49.5217 78.6344C49.7949 78.7556 50.1366 78.7556 50.3415 78.6344L77.6023 64.6279C77.8756 64.5067 78.0123 64.2641 78.0123 63.961V36.0087C78.0123 35.7056 77.8756 35.463 77.6023 35.3417L50.3415 21.396C50.0682 21.2747 49.7266 21.2747 49.5217 21.396L22.2609 35.3417C21.9876 35.463 21.8509 35.7662 21.8509 36.0087V63.961C21.8509 64.2035 21.9876 64.5067 22.2609 64.6279L29.7081 68.4479C33.7391 70.2669 36.2671 68.1447 36.2671 66.0225V38.4341C36.2671 38.0703 36.6086 37.7065 37.0869 37.7065H40.5714C40.9813 37.7065 41.3912 38.0096 41.3912 38.4341V66.0225C41.3912 70.8126 38.4534 73.6017 33.3292 73.6017C31.7578 73.6017 30.5279 73.6017 27.0435 72.0859L19.8696 68.4479C18.0932 67.5384 17 65.8406 17 64.0216V36.0694C17 34.2504 18.0932 32.5526 19.8696 31.6431L47.1304 17.6367C48.8385 16.7878 51.1614 16.7878 52.8695 17.6367L80.1303 31.6431C81.9067 32.5526 83 34.2504 83 36.0694V64.0216C83 65.8406 81.9067 67.5384 80.1303 68.4479L52.8695 82.4543C51.9813 82.8181 50.9565 83 49.9999 83ZM58.4036 63.7791C46.4472 63.7791 43.9875 58.9283 43.9875 54.8053C43.9875 54.4414 44.3292 54.0776 44.8074 54.0776H48.3602C48.7702 54.0776 49.1117 54.3202 49.1117 54.684C49.6583 57.8976 51.2298 59.474 58.4719 59.474C64.2111 59.474 66.6707 58.322 66.6707 55.5935C66.6707 54.017 65.9875 52.8649 57.0372 52.0767C49.59 51.4098 44.9441 49.9545 44.9441 44.6793C44.9441 39.768 49.59 36.8576 57.3788 36.8576C66.1241 36.8576 70.4285 39.5255 70.975 45.3463C70.975 45.5282 70.9067 45.7101 70.7701 45.892C70.6334 46.0133 70.4285 46.1346 70.2235 46.1346H66.6707C66.3291 46.1346 65.9875 45.892 65.9192 45.5889C65.0993 42.254 62.9812 41.1626 57.3788 41.1626C51.0931 41.1626 50.3415 43.1029 50.3415 44.5581C50.3415 46.3165 51.2298 46.8622 59.7018 47.8324C68.1055 48.8025 72.0682 50.1971 72.0682 55.4116C71.9999 60.7474 67.0806 63.7791 58.4036 63.7791Z" fill="#EDEDED"/>
</svg>
