<svg width="100" height="100" viewBox="0 0 100 100" fill="none" xmlns="http://www.w3.org/2000/svg">
<path d="M100 50C100 77.6142 77.6142 100 50 100C22.3858 100 0 77.6142 0 50C0 22.3858 22.3858 0 50 0C77.6142 0 100 22.3858 100 50Z" fill="#1A1A1A"/>
<path d="M100 50C100 77.6142 77.6142 100 50 100C22.3858 100 0 77.6142 0 50C0 22.3858 22.3858 0 50 0C77.6142 0 100 22.3858 100 50Z" fill="#1A1A1A"/>
<path d="M50.4999 88C49.3353 88 48.2484 87.7244 47.2391 87.2421L36.913 81.7988C35.3602 81.0409 36.1366 80.7653 36.6024 80.6275C38.6987 80.0073 39.0869 79.8695 41.2608 78.7671C41.4937 78.6293 41.8043 78.6982 42.0372 78.836L49.9565 83.039C50.267 83.1768 50.6552 83.1768 50.8881 83.039L81.8663 67.1226C82.1769 66.9848 82.3322 66.7092 82.3322 66.3647V34.6008C82.3322 34.2564 82.1769 33.9807 81.8663 33.8429L50.8881 17.9954C50.5775 17.8576 50.1893 17.8576 49.9565 17.9954L18.9782 33.8429C18.6677 33.9807 18.5124 34.3252 18.5124 34.6008V66.3647C18.5124 66.6403 18.6677 66.9848 18.9782 67.1226L27.441 71.4635C32.0217 73.5306 34.8944 71.119 34.8944 68.7074V37.3569C34.8944 36.9435 35.2825 36.5301 35.826 36.5301H39.7857C40.2515 36.5301 40.7173 36.8746 40.7173 37.3569V68.7074C40.7173 74.1506 37.3788 77.3202 31.5559 77.3202C29.7702 77.3202 28.3726 77.3202 24.413 75.5976L16.2609 71.4635C14.2422 70.43 13 68.5007 13 66.4336V34.6698C13 32.6027 14.2422 30.6734 16.2609 29.6399L47.2391 13.7235C49.1801 12.7588 51.8198 12.7588 53.7608 13.7235L84.739 29.6399C86.7576 30.6734 88 32.6027 88 34.6698V66.4336C88 68.5007 86.7576 70.43 84.739 71.4635L53.7608 87.3799C52.7515 87.7933 51.5869 88 50.4999 88ZM60.0496 66.1581C46.4627 66.1581 43.6677 60.6459 43.6677 55.9605C43.6677 55.5471 44.0559 55.1337 44.5993 55.1337H48.6366C49.1024 55.1337 49.4906 55.4093 49.4906 55.8227C50.1117 59.4745 51.8975 61.2659 60.1272 61.2659C66.649 61.2659 69.444 59.9568 69.444 56.8562C69.444 55.0648 68.6676 53.7556 58.4968 52.8599C50.0341 52.102 44.7546 50.4483 44.7546 44.4538C44.7546 38.8728 50.0341 35.5655 58.885 35.5655C68.8228 35.5655 73.7142 38.5971 74.3353 45.2118C74.3353 45.4185 74.2576 45.6251 74.1024 45.8318C73.947 45.9697 73.7142 46.1075 73.4812 46.1075H69.444C69.0558 46.1075 68.6676 45.8319 68.59 45.4874C67.6582 41.6978 65.2514 40.4575 58.885 40.4575C51.7421 40.4575 50.8881 42.6623 50.8881 44.316C50.8881 46.3142 51.8975 46.9343 61.5248 48.0368C71.0744 49.1392 75.5775 50.724 75.5775 56.6496C75.4998 62.7129 69.9098 66.1581 60.0496 66.1581Z" fill="#EDEDED"/>
<path d="M100 50C100 77.6142 77.6142 100 50 100C22.3858 100 0 77.6142 0 50C0 22.3858 22.3858 0 50 0C77.6142 0 100 22.3858 100 50Z" fill="#1A1A1A"/>
<path d="M50.4999 88C49.3353 88 48.2484 87.7244 47.2391 87.2421L36.913 81.7988C35.3602 81.0409 36.1366 80.7653 36.6024 80.6275C38.6987 80.0073 39.0869 79.8695 41.2608 78.7671C41.4937 78.6293 41.8043 78.6982 42.0372 78.836L49.9565 83.039C50.267 83.1768 50.6552 83.1768 50.8881 83.039L81.8663 67.1226C82.1769 66.9848 82.3322 66.7092 82.3322 66.3647V34.6008C82.3322 34.2564 82.1769 33.9807 81.8663 33.8429L50.8881 17.9954C50.5775 17.8576 50.1893 17.8576 49.9565 17.9954L18.9782 33.8429C18.6677 33.9807 18.5124 34.3252 18.5124 34.6008V66.3647C18.5124 66.6403 18.6677 66.9848 18.9782 67.1226L27.441 71.4635C32.0217 73.5306 34.8944 71.119 34.8944 68.7074V37.3569C34.8944 36.9435 35.2825 36.5301 35.826 36.5301H39.7857C40.2515 36.5301 40.7173 36.8746 40.7173 37.3569V68.7074C40.7173 74.1506 37.3788 77.3202 31.5559 77.3202C29.7702 77.3202 28.3726 77.3202 24.413 75.5976L16.2609 71.4635C14.2422 70.43 13 68.5007 13 66.4336V34.6698C13 32.6027 14.2422 30.6734 16.2609 29.6399L47.2391 13.7235C49.1801 12.7588 51.8198 12.7588 53.7608 13.7235L84.739 29.6399C86.7576 30.6734 88 32.6027 88 34.6698V66.4336C88 68.5007 86.7576 70.43 84.739 71.4635L53.7608 87.3799C52.7515 87.7933 51.5869 88 50.4999 88ZM60.0496 66.1581C46.4627 66.1581 43.6677 60.6459 43.6677 55.9605C43.6677 55.5471 44.0559 55.1337 44.5993 55.1337H48.6366C49.1024 55.1337 49.4906 55.4093 49.4906 55.8227C50.1117 59.4745 51.8975 61.2659 60.1272 61.2659C66.649 61.2659 69.444 59.9568 69.444 56.8562C69.444 55.0648 68.6676 53.7556 58.4968 52.8599C50.0341 52.102 44.7546 50.4483 44.7546 44.4538C44.7546 38.8728 50.0341 35.5655 58.885 35.5655C68.8228 35.5655 73.7142 38.5971 74.3353 45.2118C74.3353 45.4185 74.2576 45.6251 74.1024 45.8318C73.947 45.9697 73.7142 46.1075 73.4812 46.1075H69.444C69.0558 46.1075 68.6676 45.8319 68.59 45.4874C67.6582 41.6978 65.2514 40.4575 58.885 40.4575C51.7421 40.4575 50.8881 42.6623 50.8881 44.316C50.8881 46.3142 51.8975 46.9343 61.5248 48.0368C71.0744 49.1392 75.5775 50.724 75.5775 56.6496C75.4998 62.7129 69.9098 66.1581 60.0496 66.1581Z" fill="#EDEDED"/>
<path d="M100 50C100 77.6142 77.6142 100 50 100C22.3858 100 0 77.6142 0 50C0 22.3858 22.3858 0 50 0C77.6142 0 100 22.3858 100 50Z" fill="#1A1A1A"/>
<path d="M50.4999 88C49.3353 88 48.2484 87.7244 47.2391 87.2421L36.913 81.7988C35.3602 81.0409 36.1366 80.7653 36.6024 80.6275C38.6987 80.0073 39.0869 79.8695 41.2608 78.7671C41.4937 78.6293 41.8043 78.6982 42.0372 78.836L49.9565 83.039C50.267 83.1768 50.6552 83.1768 50.8881 83.039L81.8663 67.1226C82.1769 66.9848 82.3322 66.7092 82.3322 66.3647V34.6008C82.3322 34.2564 82.1769 33.9807 81.8663 33.8429L50.8881 17.9954C50.5775 17.8576 50.1893 17.8576 49.9565 17.9954L18.9782 33.8429C18.6677 33.9807 18.5124 34.3252 18.5124 34.6008V66.3647C18.5124 66.6403 18.6677 66.9848 18.9782 67.1226L27.441 71.4635C32.0217 73.5306 34.8944 71.119 34.8944 68.7074V37.3569C34.8944 36.9435 35.2825 36.5301 35.826 36.5301H39.7857C40.2515 36.5301 40.7173 36.8746 40.7173 37.3569V68.7074C40.7173 74.1506 37.3788 77.3202 31.5559 77.3202C29.7702 77.3202 28.3726 77.3202 24.413 75.5976L16.2609 71.4635C14.2422 70.43 13 68.5007 13 66.4336V34.6698C13 32.6027 14.2422 30.6734 16.2609 29.6399L47.2391 13.7235C49.1801 12.7588 51.8198 12.7588 53.7608 13.7235L84.739 29.6399C86.7576 30.6734 88 32.6027 88 34.6698V66.4336C88 68.5007 86.7576 70.43 84.739 71.4635L53.7608 87.3799C52.7515 87.7933 51.5869 88 50.4999 88ZM60.0496 66.1581C46.4627 66.1581 43.6677 60.6459 43.6677 55.9605C43.6677 55.5471 44.0559 55.1337 44.5993 55.1337H48.6366C49.1024 55.1337 49.4906 55.4093 49.4906 55.8227C50.1117 59.4745 51.8975 61.2659 60.1272 61.2659C66.649 61.2659 69.444 59.9568 69.444 56.8562C69.444 55.0648 68.6676 53.7556 58.4968 52.8599C50.0341 52.102 44.7546 50.4483 44.7546 44.4538C44.7546 38.8728 50.0341 35.5655 58.885 35.5655C68.8228 35.5655 73.7142 38.5971 74.3353 45.2118C74.3353 45.4185 74.2576 45.6251 74.1024 45.8318C73.947 45.9697 73.7142 46.1075 73.4812 46.1075H69.444C69.0558 46.1075 68.6676 45.8319 68.59 45.4874C67.6582 41.6978 65.2514 40.4575 58.885 40.4575C51.7421 40.4575 50.8881 42.6623 50.8881 44.316C50.8881 46.3142 51.8975 46.9343 61.5248 48.0368C71.0744 49.1392 75.5775 50.724 75.5775 56.6496C75.4998 62.7129 69.9098 66.1581 60.0496 66.1581Z" fill="#EDEDED"/>
<path d="M100 50C100 77.6142 77.6142 100 50 100C22.3858 100 0 77.6142 0 50C0 22.3858 22.3858 0 50 0C77.6142 0 100 22.3858 100 50Z" fill="#1A1A1A"/>
<path d="M50.4999 88C49.3353 88 48.2484 87.7244 47.2391 87.2421L36.913 81.7988C35.3602 81.0409 36.1366 80.7653 36.6024 80.6275C38.6987 80.0073 39.0869 79.8695 41.2608 78.7671C41.4937 78.6293 41.8043 78.6982 42.0372 78.836L49.9565 83.039C50.267 83.1768 50.6552 83.1768 50.8881 83.039L81.8663 67.1226C82.1769 66.9848 82.3322 66.7092 82.3322 66.3647V34.6008C82.3322 34.2564 82.1769 33.9807 81.8663 33.8429L50.8881 17.9954C50.5775 17.8576 50.1893 17.8576 49.9565 17.9954L18.9782 33.8429C18.6677 33.9807 18.5124 34.3252 18.5124 34.6008V66.3647C18.5124 66.6403 18.6677 66.9848 18.9782 67.1226L27.441 71.4635C32.0217 73.5306 34.8944 71.119 34.8944 68.7074V37.3569C34.8944 36.9435 35.2825 36.5301 35.826 36.5301H39.7857C40.2515 36.5301 40.7173 36.8746 40.7173 37.3569V68.7074C40.7173 74.1506 37.3788 77.3202 31.5559 77.3202C29.7702 77.3202 28.3726 77.3202 24.413 75.5976L16.2609 71.4635C14.2422 70.43 13 68.5007 13 66.4336V34.6698C13 32.6027 14.2422 30.6734 16.2609 29.6399L47.2391 13.7235C49.1801 12.7588 51.8198 12.7588 53.7608 13.7235L84.739 29.6399C86.7576 30.6734 88 32.6027 88 34.6698V66.4336C88 68.5007 86.7576 70.43 84.739 71.4635L53.7608 87.3799C52.7515 87.7933 51.5869 88 50.4999 88ZM60.0496 66.1581C46.4627 66.1581 43.6677 60.6459 43.6677 55.9605C43.6677 55.5471 44.0559 55.1337 44.5993 55.1337H48.6366C49.1024 55.1337 49.4906 55.4093 49.4906 55.8227C50.1117 59.4745 51.8975 61.2659 60.1272 61.2659C66.649 61.2659 69.444 59.9568 69.444 56.8562C69.444 55.0648 68.6676 53.7556 58.4968 52.8599C50.0341 52.102 44.7546 50.4483 44.7546 44.4538C44.7546 38.8728 50.0341 35.5655 58.885 35.5655C68.8228 35.5655 73.7142 38.5971 74.3353 45.2118C74.3353 45.4185 74.2576 45.6251 74.1024 45.8318C73.947 45.9697 73.7142 46.1075 73.4812 46.1075H69.444C69.0558 46.1075 68.6676 45.8319 68.59 45.4874C67.6582 41.6978 65.2514 40.4575 58.885 40.4575C51.7421 40.4575 50.8881 42.6623 50.8881 44.316C50.8881 46.3142 51.8975 46.9343 61.5248 48.0368C71.0744 49.1392 75.5775 50.724 75.5775 56.6496C75.4998 62.7129 69.9098 66.1581 60.0496 66.1581Z" fill="#EDEDED"/>
<path d="M100 50C100 77.6142 77.6142 100 50 100C22.3858 100 0 77.6142 0 50C0 22.3858 22.3858 0 50 0C77.6142 0 100 22.3858 100 50Z" fill="#1A1A1A"/>
<path d="M50.9999 85C49.913 85 48.8985 84.7427 47.9565 84.2926L38.3188 79.2122C36.8695 78.5048 37.5942 78.2476 38.0289 78.119C39.9854 77.5402 40.3478 77.4116 42.3768 76.3826C42.5941 76.254 42.884 76.3183 43.1014 76.4469L50.4927 80.3698C50.7825 80.4984 51.1448 80.4984 51.3622 80.3698L80.2752 65.5145C80.5651 65.3859 80.71 65.1286 80.71 64.8071V35.1608C80.71 34.8393 80.5651 34.582 80.2752 34.4534L51.3622 19.6624C51.0724 19.5338 50.7101 19.5338 50.4927 19.6624L21.5797 34.4534C21.2898 34.582 21.1449 34.9035 21.1449 35.1608V64.8071C21.1449 65.0643 21.2898 65.3859 21.5797 65.5145L29.4783 69.5659C33.7536 71.4952 36.4348 69.2444 36.4348 66.9935V37.7331C36.4348 37.3473 36.797 36.9614 37.3043 36.9614H41C41.4347 36.9614 41.8695 37.283 41.8695 37.7331V66.9935C41.8695 72.0739 38.7536 75.0321 33.3188 75.0321C31.6522 75.0321 30.3478 75.0321 26.6522 73.4245L19.0435 69.5659C17.1594 68.6013 16 66.8006 16 64.8714V35.2251C16 33.2958 17.1594 31.4951 19.0435 30.5306L47.9565 15.6752C49.7681 14.7749 52.2318 14.7749 54.0434 15.6752L82.9564 30.5306C84.8405 31.4951 86 33.2958 86 35.2251V64.8714C86 66.8006 84.8405 68.6013 82.9564 69.5659L54.0434 84.4212C53.1014 84.8071 52.0144 85 50.9999 85ZM59.9129 64.6142C47.2318 64.6142 44.6231 59.4695 44.6231 55.0965C44.6231 54.7106 44.9855 54.3247 45.4927 54.3247H49.2608C49.6956 54.3247 50.0579 54.582 50.0579 54.9678C50.6376 58.3762 52.3043 60.0482 59.9854 60.0482C66.0724 60.0482 68.6811 58.8264 68.6811 55.9325C68.6811 54.2605 67.9564 53.0386 58.4637 52.2025C50.5652 51.4952 45.6377 49.9518 45.6377 44.3569C45.6377 39.1479 50.5652 36.0611 58.826 36.0611C68.1013 36.0611 72.6666 38.8907 73.2462 45.0643C73.2462 45.2572 73.1738 45.4501 73.0289 45.6431C72.8839 45.7717 72.6666 45.9003 72.4491 45.9003H68.6811C68.3187 45.9003 67.9564 45.6431 67.884 45.3216C67.0144 41.7846 64.768 40.627 58.826 40.627C52.1593 40.627 51.3622 42.6849 51.3622 44.2283C51.3622 46.0932 52.3043 46.6721 61.2898 47.701C70.2028 48.7299 74.4057 50.209 74.4057 55.7396C74.3332 61.3987 69.1158 64.6142 59.9129 64.6142Z" fill="#EDEDED"/>
</svg>
