<svg width="100" height="100" viewBox="0 0 100 100" fill="none" xmlns="http://www.w3.org/2000/svg">
<path d="M0 14C0 6.26801 6.26801 0 14 0H86C93.732 0 100 6.26801 100 14V86C100 93.732 93.732 100 86 100H14C6.26801 100 0 93.732 0 86V14Z" fill="#1A1A1A"/>
<path d="M49.9999 83C48.913 83 47.8985 82.7427 46.9565 82.2926L37.3188 77.2122C35.8695 76.5048 36.5942 76.2476 37.0289 76.119C38.9854 75.5402 39.3478 75.4116 41.3768 74.3826C41.5941 74.254 41.884 74.3183 42.1014 74.4469L49.4927 78.3698C49.7825 78.4984 50.1448 78.4984 50.3622 78.3698L79.2752 63.5145C79.5651 63.3859 79.71 63.1286 79.71 62.8071V33.1608C79.71 32.8393 79.5651 32.582 79.2752 32.4534L50.3622 17.6624C50.0724 17.5338 49.7101 17.5338 49.4927 17.6624L20.5797 32.4534C20.2898 32.582 20.1449 32.9035 20.1449 33.1608V62.8071C20.1449 63.0643 20.2898 63.3859 20.5797 63.5145L28.4783 67.5659C32.7536 69.4952 35.4348 67.2444 35.4348 64.9935V35.7331C35.4348 35.3473 35.797 34.9614 36.3043 34.9614H40C40.4347 34.9614 40.8695 35.283 40.8695 35.7331V64.9935C40.8695 70.0739 37.7536 73.0321 32.3188 73.0321C30.6522 73.0321 29.3478 73.0321 25.6522 71.4245L18.0435 67.5659C16.1594 66.6013 15 64.8006 15 62.8714V33.2251C15 31.2958 16.1594 29.4951 18.0435 28.5306L46.9565 13.6752C48.7681 12.7749 51.2318 12.7749 53.0434 13.6752L81.9564 28.5306C83.8405 29.4951 85 31.2958 85 33.2251V62.8714C85 64.8006 83.8405 66.6013 81.9564 67.5659L53.0434 82.4212C52.1014 82.8071 51.0144 83 49.9999 83ZM58.9129 62.6142C46.2318 62.6142 43.6231 57.4695 43.6231 53.0965C43.6231 52.7106 43.9855 52.3247 44.4927 52.3247H48.2608C48.6956 52.3247 49.0579 52.582 49.0579 52.9678C49.6376 56.3762 51.3043 58.0482 58.9854 58.0482C65.0724 58.0482 67.6811 56.8264 67.6811 53.9325C67.6811 52.2605 66.9564 51.0386 57.4637 50.2025C49.5652 49.4952 44.6377 47.9518 44.6377 42.3569C44.6377 37.1479 49.5652 34.0611 57.826 34.0611C67.1013 34.0611 71.6666 36.8907 72.2462 43.0643C72.2462 43.2572 72.1738 43.4501 72.0289 43.6431C71.8839 43.7717 71.6666 43.9003 71.4491 43.9003H67.6811C67.3187 43.9003 66.9564 43.6431 66.884 43.3216C66.0144 39.7846 63.768 38.627 57.826 38.627C51.1593 38.627 50.3622 40.6849 50.3622 42.2283C50.3622 44.0932 51.3043 44.6721 60.2898 45.701C69.2028 46.7299 73.4057 48.209 73.4057 53.7396C73.3332 59.3987 68.1158 62.6142 58.9129 62.6142Z" fill="#EDEDED"/>
</svg>
