<svg width="100" height="100" viewBox="0 0 100 100" fill="none" xmlns="http://www.w3.org/2000/svg">
<path d="M100 50C100 77.6142 77.6142 100 50 100C22.3858 100 0 77.6142 0 50C0 22.3858 22.3858 0 50 0C77.6142 0 100 22.3858 100 50Z" fill="#1A1A1A"/>
<path d="M45.4975 31H50.7475L49.2637 38.8881H53.9812C56.5684 38.9434 58.4956 39.5216 59.764 40.6228C61.0575 41.7237 61.4381 43.8169 60.9056 46.9003L58.3565 60.6528H53.0303L55.465 47.5197C55.7184 46.1428 55.6425 45.1656 55.2369 44.5875C54.8312 44.0094 53.9562 43.7203 52.6119 43.7203L48.3887 43.6791L45.269 60.6528H40.019L45.4975 31Z" fill="#EDEDED"/>
<path fill-rule="evenodd" clip-rule="evenodd" d="M21.4404 38.8884H31.6362C34.6287 38.9156 36.7975 39.8522 38.1419 41.6966C39.4862 43.5412 39.93 46.0603 39.4734 49.2544C39.2963 50.7141 38.9028 52.1453 38.2941 53.5497C37.7106 54.9537 36.8994 56.22 35.8594 57.3491C34.5909 58.7806 33.2341 59.6891 31.7884 60.075C30.3428 60.4606 28.8461 60.6531 27.2992 60.6531H22.7339L21.2882 68.5H16L21.4404 38.8884ZM23.6089 55.9862L25.884 43.6378H26.6525C26.9317 43.6378 27.2231 43.6237 27.5275 43.5966C29.5568 43.5691 31.2429 43.7756 32.5875 44.2159C33.9569 44.6562 34.4134 46.3222 33.9569 49.2131C33.3994 52.655 32.3081 54.6647 30.6852 55.2428C29.0622 55.7937 27.0329 56.055 24.5981 56.0275H24.0654C23.9132 56.0275 23.7611 56.0134 23.6089 55.9862Z" fill="#EDEDED"/>
<path fill-rule="evenodd" clip-rule="evenodd" d="M76.739 38.8884H66.5431L61.1028 68.5H66.3909L67.8368 60.6531H72.4022C73.949 60.6531 75.4456 60.4606 76.8912 60.075C78.3372 59.6891 79.6937 58.7806 80.9622 57.3491C82.0022 56.22 82.8134 54.9537 83.3968 53.5497C84.0056 52.1453 84.399 50.7141 84.5762 49.2544C85.0328 46.0603 84.5893 43.5412 83.2447 41.6966C81.9003 39.8522 79.7318 38.9156 76.739 38.8884ZM70.9868 43.6378L68.7118 55.9862C68.864 56.0134 69.0162 56.0275 69.1684 56.0275H69.7009C72.1359 56.055 74.165 55.7937 75.7881 55.2428C77.4109 54.6647 78.5022 52.655 79.06 49.2131C79.5165 46.3222 79.06 44.6562 77.6903 44.2159C76.3459 43.7756 74.6597 43.5691 72.6303 43.5966C72.3259 43.6237 72.0347 43.6378 71.7553 43.6378H70.9868Z" fill="#EDEDED"/>
</svg>
