<svg width="102" height="102" viewBox="0 0 102 102" fill="none" xmlns="http://www.w3.org/2000/svg">
<path d="M77.5625 1H24.4375C11.4933 1 1 11.4933 1 24.4375V77.5625C1 90.5067 11.4933 101 24.4375 101H77.5625C90.5067 101 101 90.5067 101 77.5625V24.4375C101 11.4933 90.5067 1 77.5625 1Z" fill="#1A1A1A"/>
<path d="M51.0004 58.4027C55.0254 58.4027 58.2879 55.1398 58.2879 51.1152C58.2879 47.0906 55.0254 43.8277 51.0004 43.8277C46.9758 43.8277 43.7129 47.0906 43.7129 51.1152C43.7129 55.1398 46.9758 58.4027 51.0004 58.4027Z" fill="white"/>
<path d="M77.5625 1H24.4375C11.4933 1 1 11.4933 1 24.4375V77.5625C1 90.5067 11.4933 101 24.4375 101H77.5625C90.5067 101 101 90.5067 101 77.5625V24.4375C101 11.4933 90.5067 1 77.5625 1Z" stroke="white" stroke-width="1.67081"/>
<path d="M51.0004 58.4027C55.0254 58.4027 58.2879 55.1398 58.2879 51.1152C58.2879 47.0906 55.0254 43.8277 51.0004 43.8277C46.9758 43.8277 43.7129 47.0906 43.7129 51.1152C43.7129 55.1398 46.9758 58.4027 51.0004 58.4027Z" stroke="white" stroke-width="1.67081"/>
<path fill-rule="evenodd" clip-rule="evenodd" d="M51.0008 36.2982C60.7852 36.2982 69.8746 37.7021 76.7281 40.0616C84.9855 42.9043 90.0625 47.2133 90.0625 51.1152C90.0625 55.1812 84.682 59.759 75.8145 62.6969C69.1105 64.918 60.2887 66.0773 51.0008 66.0773C41.4781 66.0773 32.4605 64.9891 25.681 62.6723C17.1037 59.7406 11.9375 55.1039 11.9375 51.1152C11.9375 47.2449 16.785 42.9691 24.9264 40.1309C31.8054 37.7325 41.1191 36.2982 50.9992 36.2982H51.0008Z" stroke="white" stroke-width="1.67081"/>
<path fill-rule="evenodd" clip-rule="evenodd" d="M38.102 43.7492C42.9902 35.2735 48.7469 28.1009 54.2149 23.3426C60.8024 17.6096 67.0719 15.3644 70.4516 17.3134C73.9738 19.3446 75.2516 26.2928 73.3668 35.4419C71.943 42.359 68.5391 50.5801 63.8988 58.6262C59.1414 66.8754 53.6941 74.1434 48.3008 78.8574C41.4762 84.8231 34.8783 86.982 31.4232 84.9895C28.0704 83.0574 26.7883 76.7211 28.3967 68.2504C29.7557 61.093 33.1661 52.3082 38.1004 43.7492H38.102Z" stroke="white" stroke-width="1.67081"/>
<path fill-rule="evenodd" clip-rule="evenodd" d="M38.1142 58.6476C33.2122 50.1812 29.8748 41.6101 28.4817 34.4967C26.8048 25.9261 27.9904 19.3732 31.3672 17.4185C34.8861 15.3813 41.5437 17.7445 48.5289 23.9467C53.8102 28.6359 59.2332 35.6895 63.8867 43.7277C68.6578 51.9691 72.2336 60.3187 73.6246 67.3453C75.3848 76.2375 73.9602 83.0316 70.5082 85.0297C67.159 86.9687 61.0297 84.916 54.4941 79.2918C48.9723 74.5402 43.0645 67.1984 38.1142 58.6476Z" stroke="white" stroke-width="1.67081"/>
</svg>
