<svg width="100" height="100" viewBox="0 0 100 100" fill="none" xmlns="http://www.w3.org/2000/svg">
<path d="M0 14C0 6.26801 6.26801 0 14 0H86C93.732 0 100 6.26801 100 14V86C100 93.732 93.732 100 86 100H14C6.26801 100 0 93.732 0 86V14Z" fill="#1A1A1A"/>
<path d="M72.554 37.0954C71.8279 36.8466 71.0754 36.6111 70.3007 36.3885C70.4281 35.8711 70.5449 35.3604 70.6488 34.8585C72.3545 26.6157 71.2393 19.9754 67.4309 17.789C63.7791 15.6926 57.807 17.8785 51.7754 23.1039C51.1954 23.6064 50.6137 24.1385 50.0324 24.6959C49.645 24.327 49.2582 23.9706 48.8725 23.6296C42.5512 18.0422 36.2151 15.6876 32.4105 17.8802C28.7622 19.9827 27.6818 26.2253 29.2172 34.037C29.3655 34.7915 29.5389 35.562 29.7348 36.3455C28.8381 36.5988 27.9724 36.869 27.144 37.1564C19.733 39.7286 15 43.7598 15 47.9413C15 52.2599 20.0809 56.5917 27.8001 59.2181C28.4092 59.4254 29.0414 59.6214 29.6927 59.8075C29.4813 60.6547 29.2973 61.4851 29.143 62.2949C27.6789 69.971 28.8223 76.0662 32.4608 78.1553C36.219 80.3129 42.5266 78.0952 48.6684 72.7506C49.1539 72.3282 49.6411 71.8801 50.1291 71.4105C50.7617 72.0169 51.3932 72.5908 52.0215 73.1292C57.9706 78.2256 63.8463 80.2835 67.4815 78.1885C71.2361 76.0247 72.4562 69.4771 70.8721 61.5109C70.7511 60.9025 70.6103 60.2809 70.4522 59.6483C70.8951 59.5179 71.33 59.3834 71.754 59.2435C79.7788 56.5966 85 52.3176 85 47.9413C85 43.7447 80.1143 39.6863 72.554 37.0954ZM70.8135 56.4177C70.4307 56.5439 70.038 56.6657 69.6378 56.784C68.7519 53.992 67.5562 51.0232 66.0931 47.9559C67.4893 44.9615 68.6387 42.0306 69.4999 39.2567C70.216 39.463 70.9109 39.6806 71.5807 39.9101C78.0584 42.1301 82.0096 45.4122 82.0096 47.9413C82.0096 50.6352 77.7424 54.1322 70.8135 56.4177ZM67.9385 62.089C68.6391 65.6116 68.7391 68.7964 68.2751 71.2861C67.8582 73.5232 67.0197 75.0148 65.983 75.6122C63.7771 76.8833 59.0595 75.231 53.9717 70.8725C53.3884 70.3729 52.801 69.8394 52.2117 69.2748C54.1841 67.1273 56.1554 64.6308 58.0793 61.8581C61.4632 61.5592 64.6604 61.0705 67.5597 60.4033C67.7025 60.9768 67.8292 61.5391 67.9385 62.089ZM38.8646 75.3925C36.7093 76.1502 34.9926 76.172 33.955 75.5763C31.747 74.3085 30.829 69.4147 32.0812 62.8501C32.2245 62.0983 32.3953 61.3261 32.592 60.5367C35.4595 61.1679 38.6332 61.6222 42.0253 61.8959C43.9622 64.609 45.9904 67.1028 48.0343 69.2864C47.5878 69.7155 47.1429 70.1241 46.7006 70.5091C43.9847 72.8725 41.2631 74.5492 38.8646 75.3925ZM28.7672 56.4013C25.354 55.2399 22.5351 53.7304 20.603 52.0834C18.8668 50.6031 17.9903 49.1336 17.9903 47.9413C17.9903 45.4039 21.7904 42.1673 28.1283 39.9675C28.8974 39.7005 29.7025 39.449 30.5378 39.2127C31.4138 42.0492 32.5629 45.0148 33.9495 48.0137C32.5449 51.0572 31.3796 54.07 30.495 56.9398C29.8994 56.7694 29.3224 56.5901 28.7672 56.4013ZM32.1519 33.4652C30.8364 26.7723 31.7101 21.7235 33.9086 20.4566C36.2505 19.1069 41.429 21.0313 46.8869 25.8557C47.2358 26.1641 47.586 26.4868 47.9373 26.8208C45.9034 28.9948 43.8937 31.4699 41.9741 34.1669C38.682 34.4707 35.5306 34.9586 32.6331 35.6122C32.451 34.8826 32.2896 34.1659 32.1519 33.4652ZM62.3468 40.8876C61.6541 39.6966 60.943 38.5337 60.2182 37.4026C62.4516 37.6836 64.5914 38.0568 66.601 38.5134C65.9977 40.4382 65.2457 42.4507 64.3606 44.5138C63.7256 43.3138 63.054 42.1038 62.3468 40.8876ZM50.0334 28.9482C51.4127 30.4358 52.794 32.0967 54.1526 33.8988C52.7835 33.8344 51.3975 33.8009 50 33.8009C48.6157 33.8009 47.2398 33.8337 45.8793 33.8969C47.2393 32.1116 48.6325 30.453 50.0334 28.9482ZM37.6411 40.9082C36.9492 42.1025 36.2901 43.3059 35.6651 44.5116C34.7943 42.4557 34.0494 40.4339 33.4408 38.4819C35.438 38.037 37.5678 37.6731 39.787 37.3974C39.0519 38.5389 38.3349 39.7106 37.6411 40.9082ZM39.8509 58.6975C37.558 58.4429 35.3963 58.0978 33.3996 57.6651C34.0178 55.6781 34.7792 53.6133 35.6685 51.5131C36.2951 52.7179 36.9568 53.9218 37.653 55.1187C38.3621 56.3382 39.0968 57.5327 39.8509 58.6975ZM50.1161 67.1442C48.6989 65.6219 47.2851 63.938 45.9045 62.1266C47.2447 62.1789 48.6112 62.2057 50 62.2057C51.4268 62.2057 52.8373 62.1738 54.2255 62.1122C52.8625 63.9562 51.486 65.6427 50.1161 67.1442ZM64.3891 51.406C65.3247 53.529 66.1134 55.5831 66.7396 57.5362C64.71 57.997 62.5187 58.3683 60.2099 58.6442C60.9366 57.4979 61.6539 56.315 62.3588 55.0984C63.0718 53.8674 63.7489 52.6345 64.3891 51.406ZM59.7685 53.6111C58.6742 55.4999 57.5508 57.3029 56.4104 59.0048C54.3332 59.1526 52.1872 59.2288 50 59.2288C47.8216 59.2288 45.7028 59.1614 43.6623 59.0296C42.4759 57.3053 41.3281 55.497 40.2408 53.6274C39.1564 51.7628 38.1586 49.8825 37.2543 48.0128C38.1584 46.1387 39.1538 44.2562 40.2319 42.395C41.313 40.5289 42.4504 38.7297 43.6259 37.0163C45.7077 36.8595 47.8425 36.7778 49.9999 36.7778C52.167 36.7778 54.3047 36.8602 56.3858 37.0182C57.5433 38.7191 58.6733 40.5128 59.7586 42.3793C60.8561 44.2666 61.8645 46.1365 62.7763 47.9704C61.8672 49.8359 60.8612 51.7246 59.7685 53.6111ZM65.9372 20.3681C68.2813 21.7137 69.1928 27.1409 67.7201 34.2576C67.6261 34.7117 67.5204 35.1742 67.4054 35.643C64.5013 34.9759 61.3478 34.4795 58.046 34.1712C56.1225 31.4445 54.1294 28.9655 52.1286 26.8194C52.6666 26.3043 53.2037 25.813 53.7386 25.3496C58.9065 20.8724 63.7366 19.1047 65.9372 20.3681ZM50 41.7186C53.4522 41.7186 56.2508 44.5045 56.2508 47.9413C56.2508 51.3779 53.4522 54.1639 50 54.1639C46.5478 54.1639 43.7492 51.3779 43.7492 47.9413C43.7492 44.5045 46.5478 41.7186 50 41.7186Z" fill="#EDEDED"/>
</svg>
