<svg width="100" height="100" viewBox="0 0 100 100" fill="none" xmlns="http://www.w3.org/2000/svg">
<path d="M0 14C0 6.26801 6.26801 0 14 0H86C93.732 0 100 6.26801 100 14V86C100 93.732 93.732 100 86 100H14C6.26801 100 0 93.732 0 86V14Z" fill="#1A1A1A"/>
<path d="M70.443 39.7443C69.7688 39.5122 69.07 39.2926 68.3506 39.0849C68.4689 38.6023 68.5774 38.126 68.6739 37.6578C70.2578 29.9692 69.2222 23.7753 65.6858 21.7359C62.2949 19.7805 56.7494 21.8194 51.1486 26.6935C50.61 27.1622 50.0699 27.6585 49.5301 28.1785C49.1704 27.8344 48.8112 27.5019 48.453 27.1839C42.5833 21.9721 36.6997 19.7758 33.1669 21.821C29.7792 23.7821 28.776 29.605 30.2017 36.8915C30.3394 37.5953 30.5004 38.314 30.6823 39.0448C29.8497 39.2811 29.0458 39.5331 28.2766 39.8012C21.3949 42.2005 17 45.9607 17 49.861C17 53.8893 21.718 57.9298 28.8858 60.3797C29.4514 60.573 30.0384 60.7558 30.6432 60.9294C30.4469 61.7197 30.2761 62.4942 30.1328 63.2496C28.7733 70.4096 29.835 76.095 33.2136 78.0437C36.7034 80.0562 42.5604 77.9876 48.2635 73.0023C48.7143 72.6083 49.1667 72.1904 49.6199 71.7523C50.2073 72.318 50.7937 72.8533 51.3771 73.3555C56.9013 78.1092 62.3573 80.0288 65.7328 78.0746C69.2192 76.0563 70.3522 69.9489 68.8812 62.5183C68.7689 61.9508 68.6381 61.371 68.4913 60.7809C68.9026 60.6593 69.3064 60.5338 69.7001 60.4033C77.1517 57.9344 82 53.9431 82 49.861C82 45.9466 77.4633 42.161 70.443 39.7443ZM68.8268 57.7675C68.4714 57.8852 68.1067 57.9989 67.7351 58.1092C66.9125 55.5049 65.8022 52.7357 64.4436 49.8746C65.7401 47.0816 66.8074 44.3477 67.607 41.7603C68.272 41.9527 68.9173 42.1557 69.5392 42.3698C75.5542 44.4405 79.2232 47.502 79.2232 49.861C79.2232 52.3738 75.2608 55.6357 68.8268 57.7675ZM66.1572 63.0575C66.8077 66.3433 66.9006 69.314 66.4697 71.6363C66.0826 73.723 65.304 75.1143 64.3414 75.6715C62.293 76.8572 57.9124 75.316 53.188 71.2505C52.6464 70.7845 52.1009 70.2869 51.5537 69.7602C53.3852 67.7571 55.2157 65.4284 57.0022 62.8422C60.1444 62.5634 63.1132 62.1075 65.8054 61.4852C65.938 62.0201 66.0557 62.5446 66.1572 63.0575ZM39.16 75.4666C37.1586 76.1734 35.5646 76.1937 34.6011 75.6381C32.5508 74.4555 31.6984 69.8907 32.8611 63.7675C32.9942 63.0662 33.1528 62.3459 33.3354 61.6096C35.9981 62.1984 38.9451 62.6221 42.0949 62.8774C43.8935 65.4081 45.7768 67.7342 47.6747 69.771C47.2601 70.1713 46.847 70.5524 46.4363 70.9115C43.9144 73.116 41.3872 74.68 39.16 75.4666ZM29.7838 57.7522C26.6144 56.6689 23.9969 55.2609 22.2028 53.7246C20.5906 52.3439 19.7767 50.9732 19.7767 49.861C19.7767 47.4942 23.3054 44.4752 29.1906 42.4233C29.9047 42.1743 30.6523 41.9397 31.428 41.7193C32.2414 44.3651 33.3084 47.1313 34.596 49.9286C33.2917 52.7674 32.2096 55.5777 31.3882 58.2545C30.8352 58.0956 30.2994 57.9283 29.7838 57.7522ZM32.9268 36.3582C31.7052 30.1153 32.5165 25.4059 34.558 24.2242C36.7326 22.9652 41.5412 24.7602 46.6093 29.2603C46.9332 29.548 47.2584 29.849 47.5846 30.1605C45.696 32.1883 43.8299 34.497 42.0474 37.0127C38.9904 37.2961 36.0641 37.7512 33.3736 38.3608C33.2045 37.6803 33.0546 37.0118 32.9268 36.3582ZM60.9649 43.2816C60.3217 42.1706 59.6614 41.0859 58.9883 40.0309C61.0622 40.293 63.0492 40.6411 64.9152 41.067C64.355 42.8624 63.6567 44.7396 62.8348 46.664C62.2452 45.5446 61.6216 44.416 60.9649 43.2816ZM49.531 32.1449C50.8118 33.5325 52.0944 35.0817 53.356 36.7626C52.0847 36.7026 50.7977 36.6713 49.5 36.6713C48.2146 36.6713 46.937 36.7019 45.6736 36.7609C46.9365 35.0956 48.2302 33.5485 49.531 32.1449ZM38.0239 43.3008C37.3814 44.4148 36.7694 45.5373 36.189 46.6619C35.3804 44.7442 34.6887 42.8584 34.1236 41.0376C35.9781 40.6226 37.9558 40.2832 40.0165 40.026C39.3339 41.0908 38.6681 42.1837 38.0239 43.3008ZM40.0758 59.8941C37.9467 59.6566 35.9394 59.3347 34.0853 58.9311C34.6594 57.0777 35.3664 55.1517 36.1922 53.1927C36.774 54.3165 37.3885 55.4394 38.0349 56.5559C38.6934 57.6934 39.3756 58.8076 40.0758 59.8941ZM49.6078 67.7729C48.2918 66.3529 46.979 64.7822 45.697 63.0926C46.9415 63.1414 48.2104 63.1664 49.5 63.1664C50.8249 63.1664 52.1346 63.1366 53.4237 63.0792C52.158 64.7992 50.8799 66.3723 49.6078 67.7729ZM62.8613 53.0928C63.7301 55.073 64.4624 56.989 65.0439 58.8108C63.1593 59.2407 61.1245 59.587 58.9806 59.8443C59.6554 58.7751 60.3215 57.6717 60.976 56.5369C61.6381 55.3887 62.2668 54.2387 62.8613 53.0928ZM58.5707 55.1496C57.5546 56.9114 56.5115 58.5932 55.4525 60.1807C53.5237 60.3186 51.531 60.3896 49.5 60.3896C47.4772 60.3896 45.5097 60.3268 43.615 60.2038C42.5133 58.5955 41.4475 56.9087 40.4379 55.1648C39.4309 53.4256 38.5044 51.6717 37.6647 49.9277C38.5042 48.1796 39.4285 46.4237 40.4296 44.6876C41.4335 42.947 42.4897 41.2687 43.5812 39.6705C45.5143 39.5243 47.4966 39.4481 49.4999 39.4481C51.5122 39.4481 53.4972 39.5249 55.4297 39.6723C56.5045 41.2589 57.5538 42.932 58.5616 44.673C59.5807 46.4334 60.517 48.1776 61.3637 49.8882C60.5195 51.6282 59.5854 53.39 58.5707 55.1496ZM64.2988 24.1416C66.4755 25.3968 67.3219 30.4591 65.9544 37.0973C65.8671 37.5209 65.7689 37.9523 65.6622 38.3896C62.9655 37.7673 60.0372 37.3043 56.9713 37.0167C55.1852 34.4733 53.3344 32.161 51.4766 30.1592C51.9761 29.6787 52.4749 29.2205 52.9716 28.7882C57.7703 24.612 62.2554 22.9632 64.2988 24.1416ZM49.5 44.0567C52.7056 44.0567 55.3043 46.6553 55.3043 49.861C55.3043 53.0666 52.7056 55.6653 49.5 55.6653C46.2944 55.6653 43.6957 53.0666 43.6957 49.861C43.6957 46.6553 46.2944 44.0567 49.5 44.0567Z" fill="#EDEDED"/>
</svg>
