<svg width="100" height="100" viewBox="0 0 100 100" fill="none" xmlns="http://www.w3.org/2000/svg">
<path d="M100 50C100 77.6142 77.6142 100 50 100C22.3858 100 0 77.6142 0 50C0 22.3858 22.3858 0 50 0C77.6142 0 100 22.3858 100 50Z" fill="#1A1A1A"/>
<path d="M61.9594 58.5068C64.2474 58.2733 65.9832 56.3297 65.9043 53.9971C65.8255 51.6649 63.8529 49.7989 61.4859 49.7989H61.3282C58.8821 49.8766 56.9889 51.8981 57.0678 54.3082C57.1467 55.4744 57.62 56.4851 58.3301 57.1848C55.6476 62.394 51.5448 66.2036 45.3909 69.3913C41.2092 71.5682 36.8701 72.3458 32.5308 71.8016C28.9803 71.3351 26.2189 69.7803 24.4829 67.2142C21.9583 63.4047 21.7217 59.284 23.852 55.1635C25.3511 52.209 27.7178 50.032 29.2169 48.9434C28.9014 47.9328 28.4279 46.2224 28.1913 44.9785C16.751 53.142 17.9346 64.1823 21.4061 69.3913C24.0096 73.2788 29.2959 75.6891 35.1343 75.6891C36.7121 75.6891 38.2901 75.5333 39.8682 75.1449C49.9671 73.2011 57.6202 67.2921 61.9594 58.5068ZM75.8455 48.866C69.8493 41.9464 61.0127 38.1368 50.9137 38.1368H49.6516C48.9415 36.7373 47.4423 35.8042 45.7854 35.8042H45.6276C43.1819 35.8821 41.2886 37.9033 41.3673 40.3137C41.4463 42.6461 43.4185 44.512 45.7854 44.512H45.9431C47.6789 44.4343 49.1781 43.3458 49.8092 41.8685H51.2293C57.2257 41.8685 62.9061 43.5789 68.0348 46.9221C71.9794 49.4878 74.8199 52.8311 76.3978 56.8739C77.739 60.1393 77.6601 63.327 76.2399 66.0482C74.0308 70.1687 70.3228 72.4235 65.431 72.4235C62.275 72.4235 59.2771 71.4905 57.699 70.7908C56.8312 71.5682 55.2531 72.8121 54.1484 73.5899C57.5413 75.1447 61.0127 76 64.3263 76C71.9005 76 77.5024 71.8791 79.6327 67.7586C81.9205 63.2491 81.7626 55.4744 75.8455 48.866ZM35.7654 59.8282C35.8444 62.1606 37.8168 64.0263 40.1838 64.0263H40.3416C42.7873 63.9489 44.6808 61.9273 44.6019 59.5172C44.5231 57.1846 42.5505 55.3189 40.1838 55.3189H40.0261C39.8682 55.3189 39.6313 55.3189 39.4738 55.3963C36.2389 50.1096 34.8977 44.3565 35.3711 38.1366C35.6865 33.4717 37.2646 29.4287 40.0261 26.0854C42.3139 23.2087 46.7322 21.8093 49.7305 21.7318C58.0935 21.5762 61.6436 31.8388 61.8805 35.9595C62.9061 36.1928 64.6419 36.7371 65.8255 37.1259C64.8786 24.5309 56.9888 18 49.4149 18C42.3139 18 35.7654 23.0536 33.1617 30.5174C29.5325 40.469 31.8994 50.032 36.3176 57.5736C35.9233 58.1178 35.6865 58.9729 35.7654 59.8282Z" fill="#EDEDED"/>
</svg>
