<svg width="100" height="100" viewBox="0 0 100 100" fill="none" xmlns="http://www.w3.org/2000/svg">
<path d="M76.5625 0H23.4375C10.4933 0 0 10.4933 0 23.4375V76.5625C0 89.5067 10.4933 100 23.4375 100H76.5625C89.5067 100 100 89.5067 100 76.5625V23.4375C100 10.4933 89.5067 0 76.5625 0Z" fill="#1A1A1A"/>
<path d="M65.0699 64.6871C67.9531 64.3887 70.1402 61.9031 70.0406 58.9207C69.9414 55.9383 67.4558 53.5523 64.4734 53.5523H64.2746C61.1926 53.6515 58.8066 56.2363 58.9058 59.3183C59.0055 60.8098 59.6019 62.1019 60.4965 62.9969C57.1164 69.6578 51.9469 74.5293 44.1922 78.6055C38.9231 81.389 33.4551 82.3832 27.9872 81.6875C23.5134 81.091 20.0338 79.1023 17.8466 75.8219C14.6653 70.9504 14.367 65.6812 17.0513 60.4121C18.9402 56.634 21.9227 53.8504 23.8117 52.4586C23.414 51.1664 22.8175 48.9789 22.5193 47.3883C8.10374 57.8273 9.595 71.9445 13.9693 78.6055C17.2501 83.5762 23.9111 86.6582 31.268 86.6582C33.2563 86.6582 35.2447 86.4594 37.233 85.9621C49.9586 83.4769 59.6019 75.9211 65.0699 64.6871Z" fill="white"/>
<path d="M82.5672 52.3594C75.0117 43.5109 63.8769 38.6397 51.1515 38.6397H49.5609C48.666 36.8501 46.7769 35.6571 44.6894 35.6571H44.4906C41.4086 35.7565 39.0225 38.3414 39.1219 41.4234C39.2215 44.4059 41.7066 46.7918 44.6894 46.7918H44.8883C47.0754 46.6926 48.9644 45.3008 49.7597 43.4117H51.5492C59.1047 43.4117 66.2629 45.5988 72.725 49.8738C77.6957 53.1547 81.275 57.4297 83.2633 62.5992C84.9535 66.7746 84.8539 70.8508 83.0644 74.3305C80.2808 79.5996 75.6082 82.4828 69.4441 82.4828C65.4676 82.4828 61.6898 81.2899 59.7012 80.3949C58.6078 81.3891 56.6195 82.9797 55.2277 83.9738C59.5023 85.9621 63.8769 87.0559 68.0523 87.0559C77.5965 87.0559 84.6551 81.7867 87.3394 76.5176C90.2226 70.7516 90.0238 60.8098 82.5672 52.3594Z" fill="white"/>
<path d="M32.0634 66.3773C32.1628 69.3598 34.6482 71.7457 37.6307 71.7457H37.8296C40.9113 71.6461 43.2977 69.0613 43.198 65.9793C43.0988 62.9969 40.6133 60.6109 37.6307 60.6109H37.4319C37.233 60.6109 36.9348 60.6109 36.736 60.7105C32.6598 53.95 30.9698 46.593 31.5663 38.6397C31.9639 32.6747 33.9523 27.505 37.4319 23.23C40.3148 19.5516 45.8824 17.7621 49.6602 17.6627C60.1984 17.4638 64.6723 30.5869 64.9703 35.8561C66.2629 36.1543 68.45 36.8502 69.9414 37.3473C68.7484 21.2417 58.8066 12.8906 49.2625 12.8906C40.3148 12.8906 32.0634 19.3527 28.7826 28.8968C24.2094 41.6223 27.1919 53.8504 32.7593 63.4941C32.2622 64.1898 31.9639 65.2836 32.0634 66.3773Z" fill="white"/>
</svg>
