<svg width="100" height="100" viewBox="0 0 100 100" fill="none" xmlns="http://www.w3.org/2000/svg">
<g clip-path="url(#clip0_11_389)">
<path d="M70.16 68.98C73.732 68.624 76.5 65.632 76.5 61.996C76.5 61.852 76.496 61.708 76.488 61.564V61.584C76.3 57.732 73.152 54.68 69.284 54.64H69.024C65.152 54.784 62.068 57.956 62.068 61.848C62.068 61.936 62.068 62.024 62.072 62.116V62.104C62.176 63.996 62.952 65.692 64.16 66.972L64.156 66.968C59.408 75.824 52.152 82.808 43.34 87.092L43.064 87.212C38.296 89.852 32.608 91.404 26.556 91.404C25.024 91.404 23.512 91.304 22.036 91.112L22.212 91.132C16.768 90.608 12.08 87.756 9.10398 83.596L9.06798 83.54C6.91998 80.52 5.63597 76.76 5.63597 72.696C5.63597 69.348 6.50798 66.204 8.03998 63.476L7.99197 63.572C10.18 59.428 13.164 55.98 16.768 53.324L16.852 53.268C16.168 51.456 15.556 49.272 15.124 47.028L15.08 46.764C-3.65203 60.16 -1.75203 78.484 3.93598 87.144C8.90798 93.488 16.572 97.528 25.18 97.528C25.572 97.528 25.96 97.52 26.348 97.504H26.292C26.432 97.508 26.6 97.508 26.768 97.508C29.356 97.508 31.872 97.208 34.288 96.644L34.064 96.688C50.096 93.752 63.224 83.42 69.96 69.432L70.088 69.136L70.16 68.98Z" fill="#1A1A1A"/>
<path d="M92.72 53.196C83.108 42.236 69.08 35.356 53.44 35.356C52.964 35.356 52.484 35.364 52.012 35.376H52.084H49.932C48.8 33.108 46.492 31.576 43.828 31.576C43.748 31.576 43.672 31.576 43.592 31.58H43.604H43.448C39.584 31.636 36.472 34.7801 36.472 38.6521C36.472 38.7681 36.476 38.8801 36.48 38.9921V38.9761C36.66 42.8281 39.808 45.8881 43.68 45.9281H43.996C46.852 45.8161 49.264 44.04 50.304 41.552L50.32 41.5041H52.66C62.876 41.5161 72.356 44.652 80.196 50.016L80.028 49.9081C86.152 53.8281 90.88 59.46 93.596 66.128L93.68 66.3601C94.72 68.5281 95.324 71.072 95.324 73.756C95.324 76.596 94.648 79.276 93.444 81.644L93.488 81.544C90.38 87.888 83.972 92.1761 76.564 92.1761C76.292 92.1761 76.024 92.1721 75.756 92.1601H75.796C71.248 92.0641 66.956 91.0641 63.064 89.3321L63.272 89.416C61.756 90.6801 59.228 92.76 57.392 94.028C62.248 96.412 67.944 97.864 73.964 98.004H74.012C74.248 98.012 74.524 98.0161 74.8 98.0161C85.008 98.0161 93.948 92.5961 98.904 84.4801L98.976 84.3561C100.344 81.1121 101.136 77.3441 101.136 73.3881C101.136 65.4681 97.952 58.292 92.796 53.072L92.8 53.076L92.74 53.204L92.72 53.196Z" fill="#1A1A1A"/>
<path d="M27.376 71.264C27.552 75.12 30.708 78.188 34.588 78.216H34.844C38.716 78.084 41.808 74.908 41.808 71.016C41.808 67.056 38.612 63.84 34.656 63.812H34.388C34.348 63.808 34.3 63.808 34.256 63.808C33.964 63.808 33.684 63.852 33.42 63.94L33.44 63.936C29.16 56.972 26.628 48.536 26.628 39.508C26.628 38.052 26.692 36.612 26.824 35.192L26.812 35.376C27.176 27.752 29.976 20.844 34.44 15.348L34.392 15.412C38.356 11.128 43.94 8.4 50.168 8.2H50.204C63.852 7.944 69.544 24.952 69.984 31.712L76.312 33.604C74.84 12.88 61.952 2 49.628 2C37.1 2.652 26.704 11.08 23.14 22.524L23.084 22.732C21.332 27.78 20.316 33.596 20.316 39.648C20.316 50 23.28 59.66 28.4 67.824L28.272 67.604C27.7 68.468 27.36 69.528 27.36 70.668C27.36 70.88 27.372 71.088 27.396 71.292L27.392 71.268L27.376 71.264Z" fill="#1A1A1A"/>
</g>
<defs>
<clipPath id="clip0_11_389">
<rect width="100" height="100" fill="white"/>
</clipPath>
</defs>
</svg>
