<svg width="100" height="100" viewBox="0 0 100 100" fill="none" xmlns="http://www.w3.org/2000/svg">
<path d="M0 14C0 6.26801 6.26801 0 14 0H86C93.732 0 100 6.26801 100 14V86C100 93.732 93.732 100 86 100H14C6.26801 100 0 93.732 0 86V14Z" fill="#1A1A1A"/>
<path d="M63.5025 63.0939C66.0858 62.8283 68.0455 60.6166 67.9564 57.9622C67.8675 55.3083 65.6403 53.185 62.968 53.185H62.7899C60.0282 53.2734 57.8906 55.5737 57.9798 58.3163C58.0689 59.6433 58.6032 60.7934 59.405 61.5896C56.3763 67.5174 51.7442 71.8524 44.7962 75.4798C40.0749 77.9569 35.1759 78.8418 30.2767 78.2225C26.2681 77.6917 23.1504 75.9224 21.1904 73.0024C18.34 68.6674 18.0729 63.9783 20.478 59.2895C22.1706 55.9275 24.8427 53.4502 26.5352 52.2115C26.179 51.0614 25.6444 49.1152 25.3772 47.6997C12.4609 56.9892 13.7971 69.5523 17.7166 75.4798C20.656 79.9034 26.6244 82.6462 33.2161 82.6462C34.9976 82.6462 36.7791 82.4689 38.5608 82.027C49.9629 79.815 58.6035 73.0911 63.5025 63.0939ZM79.1804 52.1233C72.4105 44.2493 62.4336 39.9143 51.0316 39.9143H49.6066C48.8049 38.3218 47.1123 37.2599 45.2416 37.2599H45.0634C42.3021 37.3485 40.1645 39.6486 40.2534 42.3914C40.3426 45.0455 42.5693 47.1689 45.2416 47.1689H45.4197C47.3794 47.0805 49.072 45.8418 49.7846 44.1607H51.3879C58.158 44.1607 64.5714 46.107 70.3618 49.9114C74.8155 52.831 78.0224 56.6354 79.8039 61.2358C81.3182 64.9516 81.2291 68.579 79.6256 71.6756C77.1315 76.3644 72.9451 78.9302 67.4221 78.9302C63.8588 78.9302 60.4741 77.8685 58.6924 77.0723C57.7126 77.9569 55.9309 79.3724 54.6837 80.2575C58.5143 82.0267 62.4336 83 66.1749 83C74.7263 83 81.0511 78.3107 83.4563 73.6219C86.0393 68.4904 85.861 59.6433 79.1804 52.1233ZM33.9287 64.5976C34.0179 67.2517 36.2448 69.3748 38.9171 69.3748H39.0954C41.8567 69.2866 43.9945 66.9863 43.9053 64.2438C43.8164 61.5894 41.5893 59.4663 38.9171 59.4663H38.7391C38.5608 59.4663 38.2934 59.4663 38.1156 59.5545C34.4633 53.5386 32.949 46.9918 33.4835 39.9141C33.8396 34.6057 35.6213 30.0051 38.7391 26.2007C41.3221 22.9272 46.3105 21.3347 49.6957 21.2465C59.1378 21.0694 63.146 32.7476 63.4134 37.4367C64.5714 37.7021 66.5312 38.3216 67.8675 38.764C66.7984 24.4317 57.8906 17 49.3394 17C41.3221 17 33.9287 22.7507 30.989 31.2439C26.8915 42.5682 29.5638 53.4502 34.5521 62.0321C34.107 62.6513 33.8396 63.6243 33.9287 64.5976Z" fill="#EDEDED"/>
</svg>
