<svg width="100" height="100" viewBox="0 0 100 100" fill="none" xmlns="http://www.w3.org/2000/svg">
<path d="M100 50C100 77.6142 77.6142 100 50 100C22.3858 100 0 77.6142 0 50C0 22.3858 22.3858 0 50 0C77.6142 0 100 22.3858 100 50Z" fill="#191919"/>
<path d="M63.5025 60.0939C66.0858 59.8283 68.0455 57.6166 67.9564 54.9622C67.8675 52.3083 65.6403 50.185 62.968 50.185H62.7899C60.0282 50.2734 57.8906 52.5737 57.9798 55.3163C58.0689 56.6433 58.6032 57.7934 59.405 58.5896C56.3763 64.5174 51.7442 68.8524 44.7962 72.4798C40.0749 74.9569 35.1759 75.8418 30.2767 75.2225C26.2681 74.6917 23.1504 72.9224 21.1904 70.0024C18.34 65.6674 18.0729 60.9783 20.478 56.2895C22.1706 52.9275 24.8427 50.4502 26.5352 49.2115C26.179 48.0614 25.6444 46.1152 25.3772 44.6997C12.4609 53.9892 13.7971 66.5523 17.7166 72.4798C20.656 76.9034 26.6244 79.6462 33.2161 79.6462C34.9976 79.6462 36.7791 79.4689 38.5608 79.027C49.9629 76.815 58.6035 70.0911 63.5025 60.0939ZM79.1804 49.1233C72.4105 41.2493 62.4336 36.9143 51.0316 36.9143H49.6066C48.8049 35.3218 47.1123 34.2599 45.2416 34.2599H45.0634C42.3021 34.3485 40.1645 36.6486 40.2534 39.3914C40.3426 42.0455 42.5693 44.1689 45.2416 44.1689H45.4197C47.3794 44.0805 49.072 42.8418 49.7846 41.1607H51.3879C58.158 41.1607 64.5714 43.107 70.3618 46.9114C74.8155 49.831 78.0224 53.6354 79.8039 58.2358C81.3182 61.9516 81.2291 65.579 79.6256 68.6756C77.1315 73.3644 72.9451 75.9302 67.4221 75.9302C63.8588 75.9302 60.4741 74.8685 58.6924 74.0723C57.7126 74.9569 55.9309 76.3724 54.6837 77.2575C58.5143 79.0267 62.4336 80 66.1749 80C74.7263 80 81.0511 75.3107 83.4563 70.6219C86.0393 65.4904 85.861 56.6433 79.1804 49.1233ZM33.9287 61.5976C34.0179 64.2517 36.2448 66.3748 38.9171 66.3748H39.0954C41.8567 66.2866 43.9945 63.9863 43.9053 61.2438C43.8164 58.5894 41.5893 56.4663 38.9171 56.4663H38.7391C38.5608 56.4663 38.2934 56.4663 38.1156 56.5545C34.4633 50.5386 32.949 43.9918 33.4835 36.9141C33.8396 31.6057 35.6213 27.0051 38.7391 23.2007C41.3221 19.9272 46.3105 18.3347 49.6957 18.2465C59.1378 18.0694 63.146 29.7476 63.4134 34.4367C64.5714 34.7021 66.5312 35.3216 67.8675 35.764C66.7984 21.4317 57.8906 14 49.3394 14C41.3221 14 33.9287 19.7507 30.989 28.2439C26.8915 39.5682 29.5638 50.4502 34.5521 59.0321C34.107 59.6513 33.8396 60.6243 33.9287 61.5976Z" fill="#EDEDED"/>
</svg>
