<svg width="100" height="100" viewBox="0 0 100 100" fill="none" xmlns="http://www.w3.org/2000/svg">
<path d="M0 14C0 6.26801 6.26801 0 14 0H86C93.732 0 100 6.26801 100 14V86C100 93.732 93.732 100 86 100H14C6.26801 100 0 93.732 0 86V14Z" fill="#1A1A1A"/>
<path d="M87.3487 54.7039C87.3487 75.9669 70.1117 93.2039 48.8487 93.2039C27.5858 93.2039 10.3487 75.9669 10.3487 54.7039C10.3487 33.441 27.5858 16.2039 48.8487 16.2039C70.1117 16.2039 87.3487 33.441 87.3487 54.7039Z" fill="white"/>
<path d="M32.9673 62.8086C31.5412 63.7515 29.3927 65.2789 27.7307 66.9403C25.002 69.6649 24.4309 73.4441 25.8703 74.327C27.2018 75.1429 30.3107 74.172 32.5355 71.6063C34.8705 68.9126 35.8334 65.4979 34.8389 61.6213C34.722 61.6949 34.6074 61.7688 34.4948 61.8375L34.4972 61.8427L34.3465 61.9332C33.7658 62.2995 33.2914 62.6017 32.9673 62.8086ZM73.04 61.5857C72.2322 63.4415 72.1916 64.0388 72.4369 64.2246C73.609 63.7793 75.5481 62.7065 75.5635 59.8315C75.5658 59.401 75.476 58.9389 75.3319 58.4561C74.079 59.6292 73.3567 60.8573 73.04 61.5857ZM85.6162 55.974C82.4853 55.5882 80.042 56.0526 78.1459 56.8877C78.497 57.854 78.7669 58.8604 78.805 59.8743C78.893 62.0994 77.4442 63.7464 75.9345 64.922C75.0528 65.6073 74.1147 66.0642 73.3272 66.3401C72.6977 66.6209 71.8607 66.9111 71.2668 66.7829C69.9572 66.5016 69.2601 65.2718 70.151 62.559C70.6322 61.0908 72.0202 58.8559 74.2607 56.9309C73.7502 55.8194 73.1809 54.687 72.8909 53.6464C72.3192 51.5954 72.1465 50.3555 72.1465 50.3555C72.1465 50.3555 70.2998 54.4035 67.9173 58.0849C67.7799 58.2988 67.6429 58.5086 67.5054 58.7177C67.9734 59.8675 68.3421 61.0834 68.392 62.3093C68.4797 64.5341 67.5686 66.2166 66.0567 67.3897C65.2382 68.0277 64.3652 68.4684 63.616 68.7488C63.137 68.9699 62.1626 69.3337 60.7772 69.4316C60.0194 69.4864 59.2905 69.4369 58.8835 69.1107C58.3232 68.6633 58.2557 68.111 58.5459 67.3566C58.7912 66.7162 60.6265 64.501 62.1654 62.5615C62.5904 62.0258 62.9952 61.4786 63.3574 60.9718L63.3485 60.9501C63.3485 60.9501 63.6274 60.5697 64.0797 59.9057C63.5173 58.6254 62.8043 57.2924 62.469 56.0838C61.8974 54.0326 61.7244 52.7924 61.7244 52.7924C61.7244 52.7924 59.8526 57.8664 57.9025 61.9166C56.3933 65.0536 55.3852 66.9545 54.9311 67.7875L54.9265 67.8208C54.9265 67.8208 54.8587 67.9425 54.7419 68.1328L54.6546 68.2872L54.652 68.2729C54.1458 69.0634 53.0098 70.6122 51.8807 70.6122C48.7809 70.6122 49.919 63.956 49.919 63.956C49.919 63.956 49.0128 66.4216 47.9912 68.5371C47.1593 70.2623 46.4012 71.724 44.7432 71.724C44.2664 71.724 43.5106 71.7094 42.8828 71.0786C41.4589 69.6482 40.3702 66.0166 40.5837 63.2038C40.7658 60.8122 41.1145 59.1558 41.5914 57.7736C40.741 58.2635 39.7582 58.8445 38.7572 59.4658L37.2183 60.4246L37.268 60.5198C38.541 63.1233 38.8807 68.8275 36.1048 73.2064C33.3291 77.5874 28.1621 80.2529 23.1278 78.7728C21.5034 78.2942 19.0495 74.7413 21.1661 69.789C23.0331 65.422 30.4946 61.2931 32.461 60.2628L33.0007 59.9485C29.0802 56.3216 19.2902 51.429 17.9182 43.9137C17.5311 41.7979 18.4693 36.7387 24.3447 30.9225C29.2866 26.0323 36.1612 22.2864 42.5117 19.8994C53.1807 15.8896 64.4532 18.2548 66.1874 25.4466C67.8925 32.5194 62.089 40.9797 54.6566 44.0209C48.0207 46.736 42.5341 46.3054 40.28 45.5228C37.7179 44.6327 36.2152 42.8453 35.8487 41.8362C35.7045 41.4413 35.4568 40.7777 35.8487 40.5492C36.0892 40.4088 36.1858 40.4421 36.8291 41.194C37.4412 41.908 39.902 43.8238 44.5766 43.2691C56.8433 41.8151 64.2324 31.7319 61.8974 26.3058C60.2622 22.5078 50.8077 20.7943 38.9954 27.0221C24.5763 34.6231 23.7936 40.8892 23.6701 43.2691C23.3324 49.8157 31.3067 53.2593 35.6216 58.128L35.7876 58.3208C36.5951 57.8498 37.4479 57.3524 38.2847 56.867C40.46 55.6031 42.5117 54.4177 43.4676 53.8656C44.9861 51.5318 48.0677 48.9564 50.2924 48.9564C53.8489 48.9564 52.6275 54.361 52.6275 54.361C52.6275 54.361 52.6995 54.1136 52.7961 54.1114C52.8974 54.1084 53.2889 53.3994 54.3868 53.8228C55.516 54.2609 55.2592 55.0987 55.2664 55.1843C55.2799 55.3505 53.9323 60.1554 53.3723 63.2373C53.1043 64.7079 53.2594 65.7792 53.3386 65.7792C53.4486 65.7792 53.6738 65.4053 53.883 65.0033L53.8784 64.9914C53.8784 64.9914 54.0356 64.6869 54.2991 64.1396L54.3509 64.0251L54.353 64.0303C54.6636 63.3877 55.0999 62.4429 55.6037 61.272C56.5912 58.9711 60.3588 50.087 60.6784 49.1043C60.9977 48.1215 61.1642 47.1054 61.3218 46.6696C61.477 46.2342 62.8088 45.9057 64.3652 45.9178C65.9218 45.9298 66.0797 46.6316 66.0904 46.777C66.1017 46.9219 65.3505 48.8712 65.1772 50.2488C65.0063 51.6268 65.1708 52.3142 65.3126 53.4711C65.4047 54.2275 65.8521 55.1869 66.3813 56.2743C67.9919 53.4898 70.8257 48.164 71.098 46.6719C71.2845 45.6512 71.5838 44.673 71.7414 44.2373C71.8988 43.8018 73.2285 43.4736 74.7848 43.4853C76.3416 43.4974 76.4988 44.1993 76.5101 44.3445C76.5215 44.4899 75.7676 46.4387 75.5969 47.8168C75.4257 49.1922 75.5905 49.8824 75.7318 51.039C75.8536 52.0288 76.5777 53.3592 77.2955 54.8723C79.2545 53.8513 81.5603 53.1663 84.2599 53.1521C85.3778 53.1452 86.6759 53.2638 87.3462 53.4849V30.7178C87.3462 29.1114 86.5676 27.6313 85.252 26.8295L50.124 5.36343C48.8107 4.56127 47.2023 4.56127 45.8884 5.36343L10.8574 26.8191C9.54369 27.6213 8.84173 29.104 8.84173 30.7077V73.6583C8.84173 75.262 9.54798 76.7447 10.8596 77.5466L45.947 99.0191C47.2605 99.8236 48.8533 99.8236 50.1667 99.0191L85.27 77.5466C86.5835 76.7422 87.3487 75.2617 87.3487 73.6583V56.3003C86.9031 56.1616 86.2508 56.0523 85.6162 55.974ZM47.825 53.7249C47.0715 54.6172 45.7872 56.9182 45.1865 58.8442C43.992 62.6682 44.5094 66.5544 45.3551 66.7879C46.3426 67.0613 47.9624 61.9497 48.738 59.9505C49.2241 58.6986 51.1138 53.1423 50.6998 52.3998C50.3764 51.8191 49.0376 52.2879 47.825 53.7249ZM61.4911 66.6138C61.4911 66.6138 61.2529 66.8521 61.3558 66.9185C61.4953 67.0068 61.7969 66.8922 62.1252 66.7113C63.0544 66.0931 65.1396 64.5507 65.1441 62.2683C65.1441 62.202 65.1416 62.1377 65.1373 62.0688C64.6536 62.7399 64.2081 63.3371 63.8236 63.8438C63.1668 64.7077 61.4911 66.6138 61.4911 66.6138Z" fill="#1A1A1A"/>
</svg>
