<svg width="101" height="100" viewBox="0 0 101 101" fill="none" xmlns="http://www.w3.org/2000/svg">
<g clip-path="url(#clip0_12_396)">
<path d="M50.5 100.5C78.1142 100.5 100.5 78.1142 100.5 50.5C100.5 22.8858 78.1142 0.5 50.5 0.5C22.8858 0.5 0.5 22.8858 0.5 50.5C0.5 78.1142 22.8858 100.5 50.5 100.5Z" fill="#0000FF"/>
<path d="M100.5 50.5C100.5 78.1143 78.1143 100.5 50.5 100.5C22.8857 100.5 0.5 78.1143 0.5 50.5C0.5 22.8857 22.8857 0.5 50.5 0.5C78.1143 0.5 100.5 22.8857 100.5 50.5ZM10.0083 50.5C10.0083 72.8629 28.1371 90.9916 50.5 90.9916C72.8629 90.9916 90.9916 72.8629 90.9916 50.5C90.9916 28.1371 72.8629 10.0083 50.5 10.0083C28.1371 10.0083 10.0083 28.1371 10.0083 50.5Z" fill="#1A1A1A"/>
<mask id="mask0_12_396" style="mask-type:luminance" maskUnits="userSpaceOnUse" x="6" y="0" width="88" height="101">
<path d="M93.7544 0.5H6.38235V100.5H93.7544V0.5Z" fill="white"/>
</mask>
<g mask="url(#mask0_12_396)">
<path d="M33.2322 61.6019C31.6451 62.5944 29.254 64.2022 27.4043 65.951C24.3674 68.819 23.7319 72.7971 25.3338 73.7265C26.8157 74.5854 30.2756 73.5634 32.7516 70.8626C35.3503 68.0272 36.4219 64.4327 35.3151 60.3521C35.1851 60.4296 35.0575 60.5074 34.9322 60.5797L34.9349 60.5851L34.7671 60.6804C34.1209 61.066 33.5929 61.3841 33.2322 61.6019ZM77.8299 60.3146C76.9309 62.2681 76.8857 62.8968 77.1588 63.0924C78.4632 62.6237 80.6213 61.4944 80.6384 58.4681C80.641 58.0149 80.541 57.5285 80.3806 57.0203C78.9862 58.2551 78.1824 59.5479 77.8299 60.3146ZM91.8263 54.4076C88.3418 54.0015 85.6226 54.4903 83.5124 55.3694C83.9032 56.3865 84.2035 57.4459 84.2459 58.5131C84.3438 60.8554 82.7315 62.589 81.0513 63.8265C80.07 64.5479 79.026 65.0288 78.1496 65.3193C77.449 65.6148 76.5175 65.9203 75.8565 65.7854C74.3991 65.4893 73.6232 64.1947 74.6147 61.3391C75.1503 59.7937 76.695 57.4412 79.1885 55.4148C78.6203 54.2448 77.9868 53.0528 77.664 51.9575C77.0278 49.7985 76.8356 48.4934 76.8356 48.4934C76.8356 48.4934 74.7803 52.7544 72.1288 56.6296C71.9759 56.8547 71.8234 57.0756 71.6704 57.2957C72.1912 58.506 72.6015 59.7859 72.6571 61.0763C72.7547 63.4182 71.7407 65.1893 70.0581 66.4241C69.1472 67.0957 68.1756 67.5596 67.3418 67.8547C66.8087 68.0875 65.7243 68.4704 64.1824 68.5735C63.339 68.6312 62.5278 68.579 62.0749 68.2357C61.4513 67.7647 61.3762 67.1834 61.6991 66.3893C61.9721 65.7151 64.0147 63.3834 65.7274 61.3418C66.2004 60.7779 66.6509 60.2019 67.054 59.6684L67.0441 59.6456C67.0441 59.6456 67.3544 59.2451 67.8578 58.5462C67.2319 57.1985 66.4384 55.7954 66.0653 54.5231C65.4291 52.364 65.2366 51.0585 65.2366 51.0585C65.2366 51.0585 63.1534 56.3996 60.9831 60.6629C59.3035 63.965 58.1816 65.966 57.6762 66.8428L57.671 66.8779C57.671 66.8779 57.5956 67.006 57.4656 67.2063L57.3684 67.3688L57.3656 67.3538C56.8022 68.1859 55.5379 69.8162 54.2813 69.8162C50.8315 69.8162 52.0981 62.8097 52.0981 62.8097C52.0981 62.8097 51.0896 65.405 49.9526 67.6319C49.0268 69.4479 48.1831 70.9865 46.3379 70.9865C45.8072 70.9865 44.966 70.9712 44.2674 70.3071C42.6827 68.8015 41.471 64.9787 41.7087 62.0179C41.9113 59.5004 42.2994 57.7568 42.8301 56.3019C41.8837 56.8176 40.7899 57.4291 39.6759 58.0831L37.9632 59.0924L38.0185 59.1926C39.4353 61.9332 39.8134 67.9376 36.724 72.5469C33.6349 77.1585 27.8844 79.9643 22.2816 78.4063C20.4738 77.9025 17.7428 74.1626 20.0984 68.9497C22.1762 64.3528 30.4803 60.0066 32.6687 58.9221L33.2694 58.5913C28.9062 54.7735 18.0107 49.6234 16.4837 41.7125C16.0529 39.4854 17.0971 34.1599 23.6359 28.0376C29.1359 22.89 36.7868 18.9469 43.8544 16.4343C55.7281 12.2135 68.2735 14.7032 70.2035 22.2735C72.1012 29.7185 65.6424 38.6241 57.3707 41.8254C49.9854 44.6834 43.8793 44.2301 41.3707 43.4063C38.5193 42.4694 36.8469 40.5879 36.439 39.5257C36.2785 39.11 36.0028 38.4115 36.439 38.1709C36.7066 38.0231 36.8141 38.0582 37.5301 38.8497C38.2113 39.6012 40.95 41.6179 46.1524 41.034C59.8043 39.5035 68.0278 28.8896 65.4291 23.1779C63.6093 19.18 53.0871 17.3763 39.941 23.9319C23.8937 31.9329 23.0226 38.5288 22.8851 41.034C22.5093 47.9251 31.3841 51.55 36.1862 56.6749L36.371 56.8779C37.2697 56.3821 38.2188 55.8585 39.15 55.3476C41.571 54.0172 43.8544 52.7694 44.9182 52.1882C46.6082 49.7316 50.0377 47.0206 52.5137 47.0206C56.4718 47.0206 55.1124 52.7097 55.1124 52.7097C55.1124 52.7097 55.1926 52.4493 55.3001 52.4469C55.4128 52.4438 55.8485 51.6975 57.0704 52.1432C58.3271 52.6043 58.0413 53.4862 58.0493 53.5763C58.0643 53.7513 56.5646 58.809 55.9413 62.0531C55.6431 63.6012 55.8157 64.7288 55.9038 64.7288C56.0263 64.7288 56.2769 64.3353 56.5097 63.9121L56.5046 63.8996C56.5046 63.8996 56.6796 63.579 56.9728 63.0029L57.0304 62.8824L57.0328 62.8879C57.3785 62.2115 57.864 61.2169 58.4247 59.9844C59.5237 57.5624 63.7168 48.2107 64.0725 47.1763C64.4278 46.1418 64.6131 45.0722 64.7885 44.6135C64.9612 44.1551 66.4434 43.8094 68.1756 43.8221C69.9079 43.8347 70.0837 44.5735 70.0956 44.7265C70.1082 44.879 69.2721 46.9309 69.0793 48.381C68.8891 49.8316 69.0721 50.5551 69.2299 51.7729C69.3325 52.5691 69.8304 53.579 70.4193 54.7237C72.2118 51.7926 75.3656 46.1865 75.6687 44.6159C75.8762 43.5415 76.2093 42.5118 76.3847 42.0531C76.5599 41.5947 78.0397 41.2493 79.7718 41.2616C81.5043 41.2743 81.6793 42.0131 81.6919 42.166C81.7046 42.319 80.8656 44.3704 80.6756 45.821C80.4851 47.2688 80.6684 47.9954 80.8257 49.2128C80.9612 50.2547 81.7671 51.6551 82.566 53.2479C84.7462 52.1732 87.3124 51.4521 90.3168 51.4371C91.5609 51.4299 93.0056 51.5547 93.7516 51.7875V27.8221C93.7516 26.1312 92.8851 24.5732 91.4209 23.7291L52.3263 1.13328C50.8646 0.288908 49.0746 0.288908 47.6124 1.13328L8.62569 23.7182C7.16359 24.5626 6.38235 26.1234 6.38235 27.8115V73.0226C6.38235 74.7107 7.16835 76.2715 8.62809 77.1156L47.6776 99.7182C49.1394 100.565 50.9121 100.565 52.3738 99.7182L91.441 77.1156C92.9028 76.2688 93.7544 74.7104 93.7544 73.0226V54.751C93.2585 54.605 92.5325 54.49 91.8263 54.4076ZM49.7676 52.0401C48.9291 52.9794 47.4997 55.4015 46.8312 57.4288C45.5018 61.4541 46.0776 65.5448 47.0188 65.7906C48.1178 66.0784 49.9206 60.6978 50.7837 58.5934C51.3247 57.2756 53.4278 51.4268 52.9671 50.6453C52.6072 50.034 51.1172 50.5275 49.7676 52.0401ZM64.9769 65.6074C64.9769 65.6074 64.7118 65.8582 64.8263 65.9281C64.9816 66.021 65.3172 65.9004 65.6826 65.71C66.7168 65.0593 69.0374 63.4357 69.0424 61.0332C69.0424 60.9634 69.0397 60.8957 69.0349 60.8231C68.4966 61.5296 68.0007 62.1582 67.5728 62.6916C66.8418 63.6009 64.9769 65.6074 64.9769 65.6074Z" fill="#1A1A1A"/>
</g>
</g>
<defs>
<clipPath id="clip0_12_396">
<rect width="100" height="100" fill="white" transform="translate(0.5 0.5)"/>
</clipPath>
</defs>
</svg>
