<svg width="100" height="100" viewBox="0 0 100 100" fill="none" xmlns="http://www.w3.org/2000/svg">
<path d="M76.5625 0H23.4375C10.4933 0 0 10.4933 0 23.4375V76.5625C0 89.5067 10.4933 100 23.4375 100H76.5625C89.5067 100 100 89.5067 100 76.5625V23.4375C100 10.4933 89.5067 0 76.5625 0Z" fill="#242938"/>
<path fill-rule="evenodd" clip-rule="evenodd" d="M32.4219 42.9688C34.7653 33.5941 40.6254 28.9062 50 28.9062C64.0625 28.9062 65.8203 39.4531 72.8516 41.2109C77.5395 42.3832 81.6406 40.6254 85.1562 35.9375C82.8129 45.3121 76.9527 50 67.5781 50C53.5156 50 51.7578 39.4531 44.7266 37.6953C40.0387 36.5231 35.9375 38.2809 32.4219 42.9688ZM14.8438 64.0625C17.1871 54.6879 23.0472 50 32.4219 50C46.4844 50 48.2422 60.5469 55.2734 62.3047C59.9613 63.477 64.0625 61.7191 67.5781 57.0312C65.2348 66.4059 59.3746 71.0938 50 71.0938C35.9375 71.0938 34.1797 60.5469 27.1484 58.7891C22.4606 57.6168 18.3594 59.3746 14.8438 64.0625Z" fill="url(#paint0_linear_307_2050)"/>
<defs>
<linearGradient id="paint0_linear_307_2050" x1="33.7891" y1="28.9063" x2="63.8672" y2="72.4609" gradientUnits="userSpaceOnUse">
<stop stop-color="#32B1C1"/>
<stop offset="1" stop-color="#14C6B7"/>
</linearGradient>
</defs>
</svg>
