<svg width="100" height="100" viewBox="0 0 100 100" fill="none" xmlns="http://www.w3.org/2000/svg">
<path d="M100 50C100 77.6142 77.6142 100 50 100C22.3858 100 0 77.6142 0 50C0 22.3858 22.3858 0 50 0C77.6142 0 100 22.3858 100 50Z" fill="#1A1A1A"/>
<path d="M33.25 42.6667C35.55 33.5556 41.3 29 50.5 29C64.3 29 66.025 39.25 72.925 40.9583C77.525 42.0972 81.55 40.3889 85 35.8333C82.7 44.9444 76.95 49.5 67.75 49.5C53.95 49.5 52.225 39.25 45.325 37.5417C40.725 36.4028 36.7 38.1111 33.25 42.6667ZM16 63.1667C18.3 54.0556 24.05 49.5 33.25 49.5C47.05 49.5 48.775 59.75 55.675 61.4583C60.275 62.5972 64.3 60.8889 67.75 56.3333C65.45 65.4444 59.7 70 50.5 70C36.7 70 34.975 59.75 28.075 58.0417C23.475 56.9028 19.45 58.6111 16 63.1667Z" fill="#EDEDED"/>
</svg>
