<svg width="100" height="100" viewBox="0 0 100 100" fill="none" xmlns="http://www.w3.org/2000/svg">
<path d="M100 50C100 77.6142 77.6142 100 50 100C22.3858 100 0 77.6142 0 50C0 22.3858 22.3858 0 50 0C77.6142 0 100 22.3858 100 50Z" fill="#1A1A1A"/>
<path d="M32.5 43C34.8333 33.6667 40.6667 29 50 29C64 29 65.75 39.5 72.75 41.25C77.4167 42.4167 81.5 40.6667 85 36C82.6667 45.3333 76.8333 50 67.5 50C53.5 50 51.75 39.5 44.75 37.75C40.0833 36.5833 36 38.3333 32.5 43ZM15 64C17.3333 54.6667 23.1667 50 32.5 50C46.5 50 48.25 60.5 55.25 62.25C59.9167 63.4167 64 61.6667 67.5 57C65.1667 66.3333 59.3333 71 50 71C36 71 34.25 60.5 27.25 58.75C22.5833 57.5833 18.5 59.3333 15 64Z" fill="#EDEDED"/>
</svg>
