<svg width="95" height="95" viewBox="0 0 110 110" fill="none" xmlns="http://www.w3.org/2000/svg">
<g clip-path="url(#clip0_4_3)">
<path d="M93.5 0H16.5C7.3873 0 0 7.3873 0 16.5V93.5C0 102.613 7.3873 110 16.5 110H93.5C102.613 110 110 102.613 110 93.5V16.5C110 7.3873 102.613 0 93.5 0Z" fill="#1A1A1A"/>
<path d="M50.0586 61.0156H63.8086V52.207H25.3516V61.0156H39.1016V100.332H50.0586V61.0156ZM68.1055 98.1836C69.8457 99.0859 71.9727 99.7519 74.3359 100.203C76.6992 100.654 79.2773 100.869 81.8555 100.869C84.4336 100.869 86.7969 100.633 89.1602 100.139C91.5234 99.6445 93.457 98.8281 95.1758 97.7754C96.916 96.6367 98.3984 95.1973 99.2578 93.2637C100.117 91.3301 100.783 89.1816 100.783 86.3887C100.783 84.4336 100.482 82.7363 99.9023 81.2324C99.3223 79.7285 98.4844 78.4395 97.3242 77.3652C96.2285 76.2266 94.9609 75.2168 93.457 74.3574C91.9531 73.498 90.2344 72.5957 88.3008 71.7793C86.8828 71.1992 85.7227 70.6406 84.4336 70.082C83.3164 69.5234 82.3496 68.9648 81.6406 68.4062C80.8457 67.8262 80.2441 67.2246 79.8145 66.6016C79.3848 65.957 79.1699 65.248 79.1699 64.4531C79.1699 63.7227 79.3611 63.0566 79.75 62.4551C80.1389 61.8535 80.6738 61.3594 81.3613 60.9297C82.0488 60.5 82.9082 60.1777 83.9395 59.9414C84.9492 59.7051 86.0664 59.5977 87.377 59.5977C88.2793 59.5977 89.2246 59.6643 90.1699 59.7996C91.1582 59.935 92.168 60.1434 93.1777 60.4227C94.1875 60.7019 95.1758 61.0457 96.1856 61.4754C97.1309 61.9051 98.0117 62.3992 98.7637 62.9578V52.8602C97.1309 52.2371 95.3262 51.7644 93.3926 51.4637C91.459 51.1629 89.3106 51.0125 86.7324 51.0125C84.1543 51.0125 81.791 51.2918 79.4277 51.8289C77.0645 52.366 75.1309 53.2254 73.4121 54.407C71.6719 55.5672 70.4043 56.9852 69.3301 58.9187C68.3203 60.7234 67.8262 62.7859 67.8262 65.3641C67.8262 68.5867 68.75 71.3797 70.6191 73.5281C72.4668 75.8914 75.3457 77.6102 78.9981 79.3289C80.4805 79.9305 81.791 80.532 83.0801 81.1121C84.3691 81.6922 85.4434 82.2937 86.3027 82.9168C87.2266 83.5398 87.957 84.2273 88.4512 84.9578C88.9883 85.6883 89.2676 86.5477 89.2676 87.5359C89.2676 88.2234 89.1 88.868 88.7734 89.4695C88.4469 90.0711 87.9356 90.5867 87.2481 91.0164C86.5606 91.4461 85.7227 91.7898 84.6699 92.0477C83.6602 92.284 82.5215 92.4129 81.0176 92.4129C78.6543 92.4129 76.291 92.0047 74.1426 91.1883C71.7793 90.3719 69.6309 89.1473 68.1055 87.8711V98.1836Z" fill="#EDEDED"/>
</g>
<defs>
<clipPath id="clip0_4_3">
<rect width="110" height="110" fill="white"/>
</clipPath>
</defs>
</svg>
