<?xml version="1.0" encoding="UTF-8"?>
<svg id="Camada_1" data-name="Camada 1" xmlns="http://www.w3.org/2000/svg" viewBox="0 0 399.86 343.51">
  <defs>
    <style>
      .cls-1 {
        fill: #bc55ff;
      }

      .cls-2 {
        fill: #3228fa;
      }
    </style>
  </defs>
  <polygon class="cls-1" points="86.86 307.79 310.77 307.79 311.96 335.54 88.44 335.54 86.86 307.79"/>
  <path class="cls-2" d="m87.82,190.61h0c5.83-13.18,11.33-25.63,16.85-38.08,1.01-2.28,1.92-4.62,3.12-6.8,2.49-4.54,7.17-5.64,10.82-2.13,7.08,6.82,13.92,13.89,20.68,21.04,2.81,2.97,2.64,6.57-.2,9.42-2.9,2.91-6.5,2.8-9.37-.04-4.36-4.31-8.36-8.98-13.24-14.27h0c-5.86,13.26-11.14,25.09-16.24,36.98-.36.84.24,2.74,1.01,3.31,9.07,6.74,18.26,13.32,28,20.37,0,0,0,0,0,0,3.61-5.76,7.05-11.16,10.39-16.62,11.81-19.31,23.53-38.69,35.45-57.94,1.89-3.05,1.73-4.98-.54-7.79-10.75-13.28-9.32-32.11,3.05-43.91,11.96-11.41,31.11-11.79,43.77-.87,12.7,10.95,15.04,30.26,4.71,43.74-3.02,3.94-2.87,6.46-.34,10.37,6.69,10.33,12.91,20.96,19.71,32.11h0c1.55-1.42,2.87-2.53,4.07-3.75,9.71-9.86,19.39-19.74,29.09-29.61,6.82-6.95,11.22-6.09,15.19,2.93,5.36,12.18,10.72,24.37,16.1,36.54.66,1.49,1.44,2.93,2.39,4.86,0,0,0,0,0,0,9.11-6.61,17.94-12.83,26.45-19.44,1.14-.89,1.26-3.9.92-5.76-2.83-15.7,6.66-31.03,21.93-35.06,15.74-4.16,31.88,4.76,36.85,20.35,6.57,20.66-10.69,41.69-32.07,39.1-4.08-.49-6.45-2.6-6.43-6.82.03-4.27,2.61-6.26,6.6-6.7,2.64-.29,5.41-.01,7.91-.74,8.2-2.39,13.18-11,11.41-19.17-1.76-8.13-9.65-14.13-17.53-13.34-9,.9-15.44,7.8-15.5,16.62,0,.83-.1,1.72.14,2.49,1.74,5.49.58,10.26.59,10.42.2,6.99-11.9,15.26-13.19,16.14-6.75,4.62-52.16,36.17-63.43,45.23-1.49,1.2-5.63,4.61-9.75,3.56-3.39-.86-5.13-4.37-5.84-5.52-16.06-26.29-32.12-52.59-48.13-78.91-5.83-9.58-5.49-14.1,1.42-23.09,7-9.12,5.3-21.1-4.43-27.87-6.09-4.24-14.27-4.29-20.4-.11-9.87,6.73-11.57,18.89-4.45,28.01,6.83,8.76,7.08,13.59,1.28,23.11-16.12,26.44-32.23,52.89-48.32,79.35-.66,1.08-2.46,4.01-5.71,4.94-4.88,1.39-9.96-2.61-11.93-4.14-19.36-14.98-50.89-39.38-63.82-47.47-2.31-1.45-7.71-4.68-9.8-10.79-1.45-4.26-1.68-6.14-.44-11.47,2.06-8.87-2.95-17.33-11.14-19.78-8.35-2.5-16.92,1.42-20.33,9.28-3.45,7.95-.6,16.95,7.16,21.03,2.66,1.4,6,1.95,9.06,2.05,10.52.35,14.53,2.99,18.28,12.94,13.31,35.36,26.7,70.69,39.78,106.13,1.69,4.57,3.94,5.85,8.62,5.83,38.68-.19,77.35-.11,116.03-.11,1.5,0,3.02-.11,4.49.09,4.09.56,6.11,3.16,6.32,7.13.21,3.89-2.43,5.72-5.67,6.56-1.88.49-3.97.27-5.97.27-37.51.01-75.02-.02-112.53.07-2.14,0-6.04.7-6.13,1.44-.49,4.04-.24,8.22.3,12.29.07.52,3.27.89,5.01.89,55.85.03,111.69.01,167.54,0,10.84,0,21.67.01,32.51-.01,1.78,0,3.57-.17,5.23-.26h0c1.36-7.22.64-12.5.61-13.1,0,0-.19-.63-6.19-.84-8.33-.29-21.96-.37-30.29-.52-5.23-.09-8.3-2.75-8.32-6.73-.01-4.34,3.16-7.12,8.33-7.28.83-.03,1.67,0,2.5,0,9.84,0,19.69-.4,29.5.15,5.57.31,7.74-1.89,9.53-6.75,11.22-30.46,22.73-60.81,34.15-91.2.29-.78.59-1.55.93-2.31,1.61-3.65,4.27-5.6,8.32-4.48,3.87,1.07,5.72,4.94,4.38,9.26-1.13,3.65-2.62,7.18-3.98,10.76-10.87,28.79-21.83,57.54-32.51,86.4-1.46,3.94-1.98,8.36-2.21,12.59-.36,6.65-.02,13.33-.11,20-.08,5.7-2.55,8.1-8.27,8.3-.83.03-1.67,0-2.5,0-72.68,0-145.37,0-218.05,0-9.14,0-11.52-1.79-10.82-10.62,1.32-16.87-2.58-32.38-8.83-47.96-11.89-29.64-22.72-59.7-33.81-89.66-1.46-3.94-3.12-5.66-7.74-5.63-17.19.11-30.91-14.94-29.74-32,1.16-16.93,16.87-30.35,33.1-28.27,18.46,2.36,30.58,18.32,26.93,35.96-.61,2.94.66,5.94,3.14,7.64,8.09,5.55,15.96,11.42,24.59,17.65Zm196.66-28.6s0,0,0,0c-10.06,9.49-19.79,18.57-29.34,27.83-.81.79-1.05,3.21-.45,4.24,5.06,8.75,10.38,17.35,15.91,26.48,0,0,0,0,0,0,9.72-7.04,19.02-13.71,28.21-20.55.95-.71,1.35-2.18.88-3.27-5.09-11.9-10.36-23.73-15.21-34.74Z"/>
  <path class="cls-2" d="m228.8,243.73s0,0,0,0c-.91,1.9-1.59,3.79-2.64,5.44-6.34,9.97-12.71,19.92-19.17,29.81-4.47,6.84-9.53,6.91-13.93.18-6.56-10.03-12.95-20.17-19.53-30.19-2.38-3.62-2.55-6.86-.09-10.58,6.7-10.13,13.13-20.44,19.76-30.62,4.06-6.22,9.38-6.34,13.39-.23,6.76,10.29,13.39,20.68,19.99,31.08.95,1.5,1.44,3.29,2.22,5.11Zm-28.74-19.8s0,0,0,0c-4.24,6.39-8.07,11.93-11.59,17.66-.57.93-.15,2.94.49,4.06,2.53,4.46,5.36,8.75,8.03,13.13,2,3.28,3.95,2.37,5.68-.13,2.73-3.94,5.46-7.9,7.91-12.03.75-1.26,1.29-3.48.68-4.55-3.4-5.97-7.18-11.73-11.2-18.15Z"/>
  <path class="cls-2" d="m206.82,33.34c0,8.15.06,16.31-.02,24.46-.05,5.22-2.56,8.05-6.81,8.03-4.33-.02-6.83-2.78-6.85-8.01-.06-16.64-.06-33.28.01-49.92.02-4.77,2.64-7.73,6.55-7.89,4.08-.17,7.02,2.93,7.09,7.87.11,8.49.03,16.97.03,25.46Z"/>
  <path class="cls-2" d="m167.11,73.36c.32.87.23,2.53.23,2.88,0,2.39-1.61,4.43-3.41,4.84-2.51.58-6.23.22-8.1-1.34-5.35-4.44-10.05-9.68-14.98-14.63-6.94-6.94-13.89-13.87-20.78-20.86-3.89-3.95-4.21-7.84-1.09-10.86,2.96-2.87,6.81-2.59,10.53,1.1,11.81,11.7,23.56,23.44,35.25,35.26,1.44,1.46,1.81,2.17,2.34,3.61Z"/>
  <path class="cls-2" d="m243.38,80.27c-2.61,2.03-6.56,1.84-9.09-.62-.47-.46-.81-.96-1-1.5-.71-2.12-.44-5.75.97-7.21,12.22-12.7,24.72-25.12,37.31-37.46,2.73-2.67,6.17-2.47,8.99.2,2.81,2.67,2.91,5.85.76,9.02-.74,1.09-1.77,1.98-2.71,2.92-10.94,10.94-21.84,21.91-32.86,32.76-.56.55-1.46,1.19-2.36,1.89Z"/>
  <path class="cls-2" d="m242.8,314.79c-5.58.06-8.87-2.27-9.01-6.38-.16-4.79,2.82-7.5,8.36-7.6,5.72-.11,8.82,2.29,8.98,6.93.15,4.35-2.98,7-8.34,7.06Z"/>
  <path class="cls-1" d="m200.06,223.93s0,0,0,0c4.02,6.42,7.8,12.17,11.2,18.15.61,1.07.07,3.3-.68,4.55-2.45,4.12-5.17,8.08-7.91,12.03-1.74,2.51-3.68,3.41-5.68.13-2.67-4.38-5.5-8.67-8.03-13.13-.64-1.13-1.06-3.13-.49-4.06,3.52-5.73,7.35-11.28,11.59-17.66Z"/>
</svg>